<svg width="22" height="23" viewBox="0 0 22 23" fill="none" xmlns="http://www.w3.org/2000/svg">
<path d="M10.5418 7.52962C12.8335 7.52962 14.6668 9.36296 14.6668 11.6546C14.6668 13.9463 12.8335 15.7796 10.5418 15.7796C8.25016 15.7796 6.41683 13.9463 6.41683 11.6546C6.41683 9.36296 8.25016 7.52962 10.5418 7.52962ZM10.5418 8.44629C9.69093 8.44629 8.87487 8.78431 8.2732 9.38599C7.67152 9.98767 7.3335 10.8037 7.3335 11.6546C7.3335 12.5055 7.67152 13.3216 8.2732 13.9233C8.87487 14.5249 9.69093 14.863 10.5418 14.863C11.3927 14.863 12.2088 14.5249 12.8105 13.9233C13.4121 13.3216 13.7502 12.5055 13.7502 11.6546C13.7502 10.8037 13.4121 9.98767 12.8105 9.38599C12.2088 8.78431 11.3927 8.44629 10.5418 8.44629ZM4.5835 4.77962H6.41683L8.25016 2.94629H12.8335L14.6668 4.77962H16.5002C17.2295 4.77962 17.929 5.06935 18.4447 5.58508C18.9604 6.1008 19.2502 6.80028 19.2502 7.52962V15.7796C19.2502 16.509 18.9604 17.2084 18.4447 17.7242C17.929 18.2399 17.2295 18.5296 16.5002 18.5296H4.5835C3.85415 18.5296 3.15468 18.2399 2.63895 17.7242C2.12323 17.2084 1.8335 16.509 1.8335 15.7796V7.52962C1.8335 6.80028 2.12323 6.1008 2.63895 5.58508C3.15468 5.06935 3.85415 4.77962 4.5835 4.77962ZM8.626 3.86296L6.79266 5.69629H4.5835C4.09727 5.69629 3.63095 5.88944 3.28713 6.23326C2.94332 6.57708 2.75016 7.04339 2.75016 7.52962V15.7796C2.75016 16.2659 2.94332 16.7322 3.28713 17.076C3.63095 17.4198 4.09727 17.613 4.5835 17.613H16.5002C16.9864 17.613 17.4527 17.4198 17.7965 17.076C18.1403 16.7322 18.3335 16.2659 18.3335 15.7796V7.52962C18.3335 7.04339 18.1403 6.57708 17.7965 6.23326C17.4527 5.88944 16.9864 5.69629 16.5002 5.69629H14.291L12.4577 3.86296H8.626Z" fill="#FDFDFD" stroke="#656565"/>
</svg>
