<svg width="24" height="24" viewBox="0 0 24 24" fill="none" xmlns="http://www.w3.org/2000/svg">
  <path fill-rule="evenodd" clip-rule="evenodd" d="M12 22C17.5228 22 22 17.5228 22 12C22 6.47715 17.5228 2 12 2C6.47715 2 2 6.47715 2 12C2 17.5228 6.47715 22 12 22Z" stroke="#1E473C" stroke-width="1.5" stroke-linecap="round" stroke-linejoin="round"/>
  <path d="M8 14C8 14 9.5 16 12 16C14.5 16 16 14 16 14" stroke="#1E473C" stroke-width="1.5" stroke-linecap="round" stroke-linejoin="round"/>
  <path d="M8.5 9C8.77614 9 9 8.77614 9 8.5C9 8.22386 8.77614 8 8.5 8C8.22386 8 8 8.22386 8 8.5C8 8.77614 8.22386 9 8.5 9Z" fill="#1E473C" stroke="#1E473C" stroke-width="1.5" stroke-linecap="round" stroke-linejoin="round"/>
  <path d="M15.5 9C15.7761 9 16 8.77614 16 8.5C16 8.22386 15.7761 8 15.5 8C15.2239 8 15 8.22386 15 8.5C15 8.77614 15.2239 9 15.5 9Z" fill="#1E473C" stroke="#1E473C" stroke-width="1.5" stroke-linecap="round" stroke-linejoin="round"/>
</svg> 