<svg width="14" height="18" viewBox="0 0 14 18" fill="none" xmlns="http://www.w3.org/2000/svg">
<path d="M1.616 18C1.168 18 0.786667 17.8427 0.472 17.528C0.157333 17.2133 0 16.8323 0 16.385V7.615C0 7.16833 0.157333 6.78733 0.472 6.472C0.786667 6.15733 1.168 6 1.616 6H3V4C3 2.886 3.38833 1.941 4.165 1.165C4.941 0.388333 5.886 0 7 0C8.114 0 9.05933 0.388333 9.836 1.165C10.6127 1.94167 11.0007 2.88667 11 4V6H12.385C12.8317 6 13.2127 6.15733 13.528 6.472C13.8427 6.78667 14 7.168 14 7.616V16.385C14 16.8317 13.8427 17.2127 13.528 17.528C13.2133 17.8427 12.8323 18 12.385 18H1.616ZM1.616 17H12.385C12.5643 17 12.7117 16.9423 12.827 16.827C12.9423 16.7117 13 16.5643 13 16.385V7.615C13 7.43567 12.9423 7.28833 12.827 7.173C12.7117 7.05767 12.5643 7 12.385 7H1.615C1.43567 7 1.28833 7.05767 1.173 7.173C1.05767 7.28833 1 7.436 1 7.616V16.385C1 16.5643 1.05767 16.7117 1.173 16.827C1.28833 16.9423 1.436 17 1.616 17ZM7 13.5C7.422 13.5 7.77733 13.3553 8.066 13.066C8.35533 12.7773 8.5 12.422 8.5 12C8.5 11.578 8.35533 11.2227 8.066 10.934C7.77667 10.6453 7.42133 10.5007 7 10.5C6.57867 10.4993 6.22333 10.644 5.934 10.934C5.64467 11.2227 5.5 11.578 5.5 12C5.5 12.422 5.64467 12.7773 5.934 13.066C6.22267 13.3553 6.578 13.5 7 13.5ZM4 6H10V4C10 3.16667 9.70833 2.45833 9.125 1.875C8.54167 1.29167 7.83333 1 7 1C6.16667 1 5.45833 1.29167 4.875 1.875C4.29167 2.45833 4 3.16667 4 4V6Z" fill="#333333"/>
</svg>
