<svg width="23" height="18" viewBox="0 0 23 18" fill="none" xmlns="http://www.w3.org/2000/svg">
<path d="M1.68177 1.63636V14.7273C1.68177 15.1613 1.85418 15.5775 2.16105 15.8844C2.46793 16.1912 2.88415 16.3636 3.31814 16.3636H19.6818C20.1158 16.3636 20.532 16.1912 20.8389 15.8844C21.1457 15.5775 21.3181 15.1613 21.3181 14.7273V1.63636H1.68177ZM1.68177 0H21.3181C21.7521 0 22.1683 0.172402 22.4752 0.47928C22.7821 0.786157 22.9545 1.20237 22.9545 1.63636V14.7273C22.9545 15.5953 22.6097 16.4277 21.9959 17.0414C21.3822 17.6552 20.5498 18 19.6818 18H3.31814C2.45016 18 1.61773 17.6552 1.00397 17.0414C0.390214 16.4277 0.0454102 15.5953 0.0454102 14.7273V1.63636C0.0454102 1.20237 0.217812 0.786157 0.52469 0.47928C0.831568 0.172402 1.24778 0 1.68177 0Z" fill="#E5E5E5"/>
<path d="M21.5227 1.63636L15.1949 8.86909C14.7341 9.39583 14.166 9.81796 13.5288 10.1072C12.8915 10.3964 12.1998 10.546 11.5 10.546C10.8001 10.546 10.1084 10.3964 9.47113 10.1072C8.83387 9.81796 8.26581 9.39583 7.80505 8.86909L1.47723 1.63636H21.5227ZM3.65196 1.63636L9.03559 7.79073C9.34277 8.14197 9.72151 8.42347 10.1464 8.61634C10.5713 8.80921 11.0325 8.909 11.4991 8.909C11.9658 8.909 12.427 8.80921 12.8519 8.61634C13.2768 8.42347 13.6555 8.14197 13.9627 7.79073L19.348 1.63636H3.65196Z" fill="#E5E5E5"/>
</svg>
