<svg width="21" height="21" viewBox="0 0 21 21" fill="none" xmlns="http://www.w3.org/2000/svg">
<path d="M20.7502 19.6896L15.0861 14.0255C16.4471 12.3915 17.1258 10.2958 16.981 8.17412C16.8362 6.05248 15.8789 4.06836 14.3085 2.63451C12.738 1.20065 10.6752 0.427456 8.54918 0.475768C6.42316 0.52408 4.39761 1.39018 2.89389 2.89389C1.39018 4.39761 0.52408 6.42316 0.475768 8.54918C0.427456 10.6752 1.20065 12.738 2.63451 14.3085C4.06836 15.8789 6.05248 16.8362 8.17412 16.981C10.2958 17.1258 12.3915 16.4471 14.0255 15.0861L19.6896 20.7502L20.7502 19.6896ZM2.00018 8.75018C2.00018 7.41515 2.39606 6.11011 3.13776 5.00008C3.87946 3.89005 4.93366 3.02488 6.16706 2.51399C7.40047 2.0031 8.75767 1.86943 10.067 2.12988C11.3764 2.39033 12.5791 3.0332 13.5231 3.97721C14.4672 4.92121 15.11 6.12395 15.3705 7.43332C15.6309 8.74269 15.4973 10.0999 14.9864 11.3333C14.4755 12.5667 13.6103 13.6209 12.5003 14.3626C11.3902 15.1043 10.0852 15.5002 8.75018 15.5002C6.96058 15.4982 5.24484 14.7864 3.9794 13.521C2.71396 12.2555 2.00216 10.5398 2.00018 8.75018Z" fill="#121F24"/>
</svg>
