<svg width="24" height="24" viewBox="0 0 24 24" fill="none" xmlns="http://www.w3.org/2000/svg">
<path d="M8.50196 16.9883C6.1321 16.9883 4.12346 16.165 2.47602 14.5186C0.829572 12.8731 0.00634766 10.865 0.00634766 8.49413C0.00634766 6.12329 0.829572 4.11464 2.47602 2.46819C4.12247 0.821743 6.13111 -0.000987375 8.50196 8.8926e-07C10.8728 0.000989154 12.881 0.824213 14.5264 2.46967C16.1719 4.11513 16.9951 6.12329 16.9961 8.49413C16.9961 9.5239 16.8138 10.5206 16.4491 11.4841C16.0844 12.4477 15.6051 13.2719 15.0112 13.9568L23.7706 22.7133C23.909 22.8516 23.9831 23.0221 23.993 23.2247C24.0019 23.4253 23.9278 23.6047 23.7706 23.7628C23.6125 23.9209 23.4376 24 23.2459 24C23.0542 24 22.8792 23.9209 22.7211 23.7628L13.9631 15.0048C13.2219 15.6363 12.3695 16.125 11.406 16.4709C10.4424 16.8168 9.47392 16.9897 8.50048 16.9897M8.50048 15.5073C10.4671 15.5073 12.1279 14.8304 13.4828 13.4765C14.8367 12.1225 15.5137 10.4618 15.5137 8.49413C15.5137 6.5265 14.8372 4.86621 13.4843 3.51328C12.1314 2.16035 10.4711 1.48339 8.50344 1.4824C6.53581 1.4824 4.87503 2.15936 3.52111 3.51328C2.16719 4.8672 1.48973 6.52749 1.48874 8.49413C1.48776 10.4608 2.16472 12.1211 3.51963 13.475C4.87454 14.8289 6.53482 15.5059 8.50048 15.5059" fill="#E5E5E5"/>
</svg>
