<svg width="241" height="46" viewBox="0 0 241 46" fill="none" xmlns="http://www.w3.org/2000/svg">
<mask id="path-1-outside-1_2288_21173" maskUnits="userSpaceOnUse" x="0" y="7" width="63" height="31" fill="black">
<rect fill="white" y="7" width="63" height="31"/>
<path d="M7.97266 8.21094L11.7812 24.6953L12.6016 29.2852L13.4414 24.793L16.6836 8.21094H23.0312L26.4492 24.6953L27.3281 29.2852L28.207 24.8711L32.0547 8.21094H38.168L30.0625 37H24.3203L20.8438 20.1641L19.8281 14.5977L18.8125 20.1641L15.3359 37H9.75L1.58594 8.21094H7.97266ZM60.7094 13.3086H45.475V19.4219H59.4594V24.4219H45.475V31.8242H61.4125V37H39.5961V8.21094H60.7094V13.3086Z"/>
</mask>
<path d="M7.97266 8.21094L8.94699 7.98583L8.76796 7.21094H7.97266V8.21094ZM11.7812 24.6953L12.7657 24.5194L12.7612 24.4947L12.7556 24.4702L11.7812 24.6953ZM12.6016 29.2852L11.6172 29.4611L13.5845 29.4689L12.6016 29.2852ZM13.4414 24.793L12.46 24.6011L12.4584 24.6092L13.4414 24.793ZM16.6836 8.21094V7.21094H15.8602L15.7022 8.01905L16.6836 8.21094ZM23.0312 8.21094L24.0104 8.00791L23.8452 7.21094H23.0312V8.21094ZM26.4492 24.6953L27.4314 24.5072L27.4299 24.4998L27.4284 24.4923L26.4492 24.6953ZM27.3281 29.2852L26.346 29.4732L28.3089 29.4804L27.3281 29.2852ZM28.207 24.8711L27.2327 24.6461L27.2293 24.6609L27.2263 24.6758L28.207 24.8711ZM32.0547 8.21094V7.21094H31.2593L31.0803 7.98591L32.0547 8.21094ZM38.168 8.21094L39.1305 8.48195L39.4884 7.21094H38.168V8.21094ZM30.0625 37V38H30.8198L31.0251 37.271L30.0625 37ZM24.3203 37L23.341 37.2022L23.5057 38H24.3203V37ZM20.8438 20.1641L19.86 20.3436L19.8621 20.3549L19.8644 20.3663L20.8438 20.1641ZM19.8281 14.5977L20.8119 14.4182H18.8444L19.8281 14.5977ZM18.8125 20.1641L19.7918 20.3663L19.7942 20.3549L19.7963 20.3436L18.8125 20.1641ZM15.3359 37V38H16.1505L16.3153 37.2022L15.3359 37ZM9.75 37L8.78794 37.2728L8.99415 38H9.75V37ZM1.58594 8.21094V7.21094H0.262923L0.623874 8.48376L1.58594 8.21094ZM7.97266 8.21094L6.99832 8.43605L10.8069 24.9204L11.7812 24.6953L12.7556 24.4702L8.94699 7.98583L7.97266 8.21094ZM11.7812 24.6953L10.7968 24.8712L11.6172 29.4611L12.6016 29.2852L13.586 29.1092L12.7657 24.5194L11.7812 24.6953ZM12.6016 29.2852L13.5845 29.4689L14.4244 24.9767L13.4414 24.793L12.4584 24.6092L11.6186 29.1014L12.6016 29.2852ZM13.4414 24.793L14.4228 24.9849L17.665 8.40283L16.6836 8.21094L15.7022 8.01905L12.46 24.6011L13.4414 24.793ZM16.6836 8.21094V9.21094H23.0312V8.21094V7.21094H16.6836V8.21094ZM23.0312 8.21094L22.0521 8.41397L25.47 24.8983L26.4492 24.6953L27.4284 24.4923L24.0104 8.00791L23.0312 8.21094ZM26.4492 24.6953L25.4671 24.8834L26.346 29.4732L27.3281 29.2852L28.3103 29.0971L27.4314 24.5072L26.4492 24.6953ZM27.3281 29.2852L28.3089 29.4804L29.1878 25.0664L28.207 24.8711L27.2263 24.6758L26.3474 29.0899L27.3281 29.2852ZM28.207 24.8711L29.1814 25.0961L33.029 8.43596L32.0547 8.21094L31.0803 7.98591L27.2327 24.6461L28.207 24.8711ZM32.0547 8.21094V9.21094H38.168V8.21094V7.21094H32.0547V8.21094ZM38.168 8.21094L37.2054 7.93993L29.0999 36.729L30.0625 37L31.0251 37.271L39.1305 8.48195L38.168 8.21094ZM30.0625 37V36H24.3203V37V38H30.0625V37ZM24.3203 37L25.2997 36.7978L21.8231 19.9618L20.8438 20.1641L19.8644 20.3663L23.341 37.2022L24.3203 37ZM20.8438 20.1641L21.8275 19.9846L20.8119 14.4182L19.8281 14.5977L18.8444 14.7771L19.86 20.3436L20.8438 20.1641ZM19.8281 14.5977L18.8444 14.4182L17.8287 19.9846L18.8125 20.1641L19.7963 20.3436L20.8119 14.7771L19.8281 14.5977ZM18.8125 20.1641L17.8332 19.9618L14.3566 36.7978L15.3359 37L16.3153 37.2022L19.7918 20.3663L18.8125 20.1641ZM15.3359 37V36H9.75V37V38H15.3359V37ZM9.75 37L10.7121 36.7272L2.548 7.93811L1.58594 8.21094L0.623874 8.48376L8.78794 37.2728L9.75 37ZM1.58594 8.21094V9.21094H7.97266V8.21094V7.21094H1.58594V8.21094ZM60.7094 13.3086V14.3086H61.7094V13.3086H60.7094ZM45.475 13.3086V12.3086H44.475V13.3086H45.475ZM45.475 19.4219H44.475V20.4219H45.475V19.4219ZM59.4594 19.4219H60.4594V18.4219H59.4594V19.4219ZM59.4594 24.4219V25.4219H60.4594V24.4219H59.4594ZM45.475 24.4219V23.4219H44.475V24.4219H45.475ZM45.475 31.8242H44.475V32.8242H45.475V31.8242ZM61.4125 31.8242H62.4125V30.8242H61.4125V31.8242ZM61.4125 37V38H62.4125V37H61.4125ZM39.5961 37H38.5961V38H39.5961V37ZM39.5961 8.21094V7.21094H38.5961V8.21094H39.5961ZM60.7094 8.21094H61.7094V7.21094H60.7094V8.21094ZM60.7094 13.3086V12.3086H45.475V13.3086V14.3086H60.7094V13.3086ZM45.475 13.3086H44.475V19.4219H45.475H46.475V13.3086H45.475ZM45.475 19.4219V20.4219H59.4594V19.4219V18.4219H45.475V19.4219ZM59.4594 19.4219H58.4594V24.4219H59.4594H60.4594V19.4219H59.4594ZM59.4594 24.4219V23.4219H45.475V24.4219V25.4219H59.4594V24.4219ZM45.475 24.4219H44.475V31.8242H45.475H46.475V24.4219H45.475ZM45.475 31.8242V32.8242H61.4125V31.8242V30.8242H45.475V31.8242ZM61.4125 31.8242H60.4125V37H61.4125H62.4125V31.8242H61.4125ZM61.4125 37V36H39.5961V37V38H61.4125V37ZM39.5961 37H40.5961V8.21094H39.5961H38.5961V37H39.5961ZM39.5961 8.21094V9.21094H60.7094V8.21094V7.21094H39.5961V8.21094ZM60.7094 8.21094H59.7094V13.3086H60.7094H61.7094V8.21094H60.7094Z" fill="#09322F" mask="url(#path-1-outside-1_2288_21173)"/>
<mask id="path-3-outside-2_2288_21173" maskUnits="userSpaceOnUse" x="61" y="6" width="180" height="33" fill="black">
<rect fill="white" x="61" y="6" width="180" height="33"/>
<path d="M78.6258 17.3711C78.6258 15.8737 78.2286 14.806 77.4344 14.168C76.6531 13.5299 75.5529 13.2109 74.1336 13.2109H68.5281V21.6875H74.1336C75.5529 21.6875 76.6531 21.3424 77.4344 20.6523C78.2286 19.9622 78.6258 18.8685 78.6258 17.3711ZM84.5828 17.332C84.5828 20.7305 83.7234 23.1328 82.0047 24.5391C80.2859 25.9453 77.8315 26.6484 74.6414 26.6484H68.5281V37H62.5516V8.21094H75.0906C77.9812 8.21094 80.2859 8.95312 82.0047 10.4375C83.7234 11.9219 84.5828 14.2201 84.5828 17.332ZM92.7102 13.2109V20.9453H99.5266C100.881 20.9453 101.896 20.7891 102.573 20.4766C103.771 19.9297 104.37 18.849 104.37 17.2344C104.37 15.4896 103.791 14.3177 102.632 13.7188C101.981 13.3802 101.004 13.2109 99.7023 13.2109H92.7102ZM100.952 8.21094C102.971 8.25 104.52 8.4974 105.601 8.95312C106.695 9.40885 107.619 10.0794 108.374 10.9648C108.999 11.694 109.494 12.5013 109.859 13.3867C110.223 14.2721 110.405 15.2812 110.405 16.4141C110.405 17.7812 110.06 19.1289 109.37 20.457C108.68 21.7721 107.541 22.7031 105.952 23.25C107.28 23.7839 108.218 24.5456 108.765 25.5352C109.325 26.5117 109.605 28.0091 109.605 30.0273V31.9609C109.605 33.276 109.657 34.168 109.761 34.6367C109.917 35.3789 110.282 35.9258 110.855 36.2773V37H104.234C104.051 36.362 103.921 35.8477 103.843 35.457C103.687 34.6497 103.602 33.8229 103.589 32.9766L103.55 30.3008C103.524 28.4648 103.185 27.2409 102.534 26.6289C101.896 26.0169 100.692 25.7109 98.9211 25.7109H92.7102V37H86.8312V8.21094H100.952ZM125.935 32.7031C128.318 32.7031 130.206 31.8242 131.599 30.0664C133.005 28.3086 133.709 25.8086 133.709 22.5664C133.709 19.3372 133.005 16.8438 131.599 15.0859C130.206 13.3151 128.318 12.4297 125.935 12.4297C123.552 12.4297 121.651 13.3086 120.232 15.0664C118.813 16.8242 118.103 19.3242 118.103 22.5664C118.103 25.8086 118.813 28.3086 120.232 30.0664C121.651 31.8242 123.552 32.7031 125.935 32.7031ZM139.724 22.5664C139.724 27.7357 138.272 31.694 135.369 34.4414C133.194 36.681 130.05 37.8008 125.935 37.8008C121.821 37.8008 118.676 36.681 116.502 34.4414C113.585 31.694 112.127 27.7357 112.127 22.5664C112.127 17.293 113.585 13.3346 116.502 10.6914C118.676 8.45182 121.821 7.33203 125.935 7.33203C130.05 7.33203 133.194 8.45182 135.369 10.6914C138.272 13.3346 139.724 17.293 139.724 22.5664ZM140.684 22.8398C140.684 17.8138 142.031 13.9401 144.727 11.2188C147.07 8.84896 150.052 7.66406 153.672 7.66406C158.516 7.66406 162.057 9.2526 164.297 12.4297C165.534 14.2135 166.198 16.0039 166.289 17.8008H160.273C159.883 16.4206 159.382 15.3789 158.77 14.6758C157.676 13.4258 156.055 12.8008 153.906 12.8008C151.719 12.8008 149.993 13.6862 148.73 15.457C147.467 17.2148 146.836 19.7083 146.836 22.9375C146.836 26.1667 147.5 28.5885 148.828 30.2031C150.169 31.8047 151.868 32.6055 153.926 32.6055C156.035 32.6055 157.643 31.9154 158.75 30.5352C159.362 29.793 159.87 28.6797 160.273 27.1953H166.23C165.71 30.3333 164.375 32.8854 162.227 34.8516C160.091 36.8177 157.35 37.8008 154.004 37.8008C149.863 37.8008 146.608 36.4727 144.238 33.8164C141.868 31.1471 140.684 27.4883 140.684 22.8398ZM189.729 13.3086H174.495V19.4219H188.479V24.4219H174.495V31.8242H190.432V37H168.616V8.21094H189.729V13.3086ZM197.075 28.1133C197.257 29.4284 197.615 30.4115 198.149 31.0625C199.126 32.2474 200.799 32.8398 203.169 32.8398C204.588 32.8398 205.74 32.6836 206.626 32.3711C208.305 31.7721 209.145 30.6589 209.145 29.0312C209.145 28.0807 208.729 27.3451 207.895 26.8242C207.062 26.3164 205.753 25.8672 203.97 25.4766L200.923 24.793C197.928 24.1159 195.858 23.3802 194.712 22.5859C192.772 21.2578 191.802 19.181 191.802 16.3555C191.802 13.7773 192.739 11.6354 194.614 9.92969C196.489 8.22396 199.243 7.37109 202.876 7.37109C205.91 7.37109 208.494 8.17839 210.63 9.79297C212.778 11.3945 213.904 13.7253 214.009 16.7852H208.227C208.123 15.0534 207.368 13.8229 205.962 13.0938C205.024 12.612 203.859 12.3711 202.466 12.3711C200.916 12.3711 199.679 12.6836 198.755 13.3086C197.83 13.9336 197.368 14.806 197.368 15.9258C197.368 16.9544 197.824 17.7227 198.735 18.2305C199.321 18.569 200.571 18.9661 202.485 19.4219L207.446 20.6133C209.621 21.1341 211.261 21.8307 212.368 22.7031C214.087 24.0573 214.946 26.0169 214.946 28.582C214.946 31.2122 213.937 33.3997 211.919 35.1445C209.914 36.8763 207.075 37.7422 203.403 37.7422C199.653 37.7422 196.704 36.8893 194.555 35.1836C192.407 33.4648 191.333 31.1081 191.333 28.1133H197.075ZM221.355 28.1133C221.537 29.4284 221.895 30.4115 222.429 31.0625C223.405 32.2474 225.079 32.8398 227.448 32.8398C228.868 32.8398 230.02 32.6836 230.905 32.3711C232.585 31.7721 233.425 30.6589 233.425 29.0312C233.425 28.0807 233.008 27.3451 232.175 26.8242C231.342 26.3164 230.033 25.8672 228.249 25.4766L225.202 24.793C222.208 24.1159 220.137 23.3802 218.991 22.5859C217.051 21.2578 216.081 19.181 216.081 16.3555C216.081 13.7773 217.019 11.6354 218.894 9.92969C220.769 8.22396 223.523 7.37109 227.155 7.37109C230.189 7.37109 232.774 8.17839 234.909 9.79297C237.058 11.3945 238.184 13.7253 238.288 16.7852H232.507C232.403 15.0534 231.648 13.8229 230.241 13.0938C229.304 12.612 228.139 12.3711 226.745 12.3711C225.196 12.3711 223.959 12.6836 223.034 13.3086C222.11 13.9336 221.648 14.806 221.648 15.9258C221.648 16.9544 222.103 17.7227 223.015 18.2305C223.601 18.569 224.851 18.9661 226.765 19.4219L231.726 20.6133C233.9 21.1341 235.541 21.8307 236.648 22.7031C238.366 24.0573 239.226 26.0169 239.226 28.582C239.226 31.2122 238.217 33.3997 236.198 35.1445C234.193 36.8763 231.355 37.7422 227.683 37.7422C223.933 37.7422 220.984 36.8893 218.835 35.1836C216.687 33.4648 215.613 31.1081 215.613 28.1133H221.355Z"/>
</mask>
<path d="M78.6258 17.3711C78.6258 15.8737 78.2286 14.806 77.4344 14.168C76.6531 13.5299 75.5529 13.2109 74.1336 13.2109H68.5281V21.6875H74.1336C75.5529 21.6875 76.6531 21.3424 77.4344 20.6523C78.2286 19.9622 78.6258 18.8685 78.6258 17.3711ZM84.5828 17.332C84.5828 20.7305 83.7234 23.1328 82.0047 24.5391C80.2859 25.9453 77.8315 26.6484 74.6414 26.6484H68.5281V37H62.5516V8.21094H75.0906C77.9812 8.21094 80.2859 8.95312 82.0047 10.4375C83.7234 11.9219 84.5828 14.2201 84.5828 17.332ZM92.7102 13.2109V20.9453H99.5266C100.881 20.9453 101.896 20.7891 102.573 20.4766C103.771 19.9297 104.37 18.849 104.37 17.2344C104.37 15.4896 103.791 14.3177 102.632 13.7188C101.981 13.3802 101.004 13.2109 99.7023 13.2109H92.7102ZM100.952 8.21094C102.971 8.25 104.52 8.4974 105.601 8.95312C106.695 9.40885 107.619 10.0794 108.374 10.9648C108.999 11.694 109.494 12.5013 109.859 13.3867C110.223 14.2721 110.405 15.2812 110.405 16.4141C110.405 17.7812 110.06 19.1289 109.37 20.457C108.68 21.7721 107.541 22.7031 105.952 23.25C107.28 23.7839 108.218 24.5456 108.765 25.5352C109.325 26.5117 109.605 28.0091 109.605 30.0273V31.9609C109.605 33.276 109.657 34.168 109.761 34.6367C109.917 35.3789 110.282 35.9258 110.855 36.2773V37H104.234C104.051 36.362 103.921 35.8477 103.843 35.457C103.687 34.6497 103.602 33.8229 103.589 32.9766L103.55 30.3008C103.524 28.4648 103.185 27.2409 102.534 26.6289C101.896 26.0169 100.692 25.7109 98.9211 25.7109H92.7102V37H86.8312V8.21094H100.952ZM125.935 32.7031C128.318 32.7031 130.206 31.8242 131.599 30.0664C133.005 28.3086 133.709 25.8086 133.709 22.5664C133.709 19.3372 133.005 16.8438 131.599 15.0859C130.206 13.3151 128.318 12.4297 125.935 12.4297C123.552 12.4297 121.651 13.3086 120.232 15.0664C118.813 16.8242 118.103 19.3242 118.103 22.5664C118.103 25.8086 118.813 28.3086 120.232 30.0664C121.651 31.8242 123.552 32.7031 125.935 32.7031ZM139.724 22.5664C139.724 27.7357 138.272 31.694 135.369 34.4414C133.194 36.681 130.05 37.8008 125.935 37.8008C121.821 37.8008 118.676 36.681 116.502 34.4414C113.585 31.694 112.127 27.7357 112.127 22.5664C112.127 17.293 113.585 13.3346 116.502 10.6914C118.676 8.45182 121.821 7.33203 125.935 7.33203C130.05 7.33203 133.194 8.45182 135.369 10.6914C138.272 13.3346 139.724 17.293 139.724 22.5664ZM140.684 22.8398C140.684 17.8138 142.031 13.9401 144.727 11.2188C147.07 8.84896 150.052 7.66406 153.672 7.66406C158.516 7.66406 162.057 9.2526 164.297 12.4297C165.534 14.2135 166.198 16.0039 166.289 17.8008H160.273C159.883 16.4206 159.382 15.3789 158.77 14.6758C157.676 13.4258 156.055 12.8008 153.906 12.8008C151.719 12.8008 149.993 13.6862 148.73 15.457C147.467 17.2148 146.836 19.7083 146.836 22.9375C146.836 26.1667 147.5 28.5885 148.828 30.2031C150.169 31.8047 151.868 32.6055 153.926 32.6055C156.035 32.6055 157.643 31.9154 158.75 30.5352C159.362 29.793 159.87 28.6797 160.273 27.1953H166.23C165.71 30.3333 164.375 32.8854 162.227 34.8516C160.091 36.8177 157.35 37.8008 154.004 37.8008C149.863 37.8008 146.608 36.4727 144.238 33.8164C141.868 31.1471 140.684 27.4883 140.684 22.8398ZM189.729 13.3086H174.495V19.4219H188.479V24.4219H174.495V31.8242H190.432V37H168.616V8.21094H189.729V13.3086ZM197.075 28.1133C197.257 29.4284 197.615 30.4115 198.149 31.0625C199.126 32.2474 200.799 32.8398 203.169 32.8398C204.588 32.8398 205.74 32.6836 206.626 32.3711C208.305 31.7721 209.145 30.6589 209.145 29.0312C209.145 28.0807 208.729 27.3451 207.895 26.8242C207.062 26.3164 205.753 25.8672 203.97 25.4766L200.923 24.793C197.928 24.1159 195.858 23.3802 194.712 22.5859C192.772 21.2578 191.802 19.181 191.802 16.3555C191.802 13.7773 192.739 11.6354 194.614 9.92969C196.489 8.22396 199.243 7.37109 202.876 7.37109C205.91 7.37109 208.494 8.17839 210.63 9.79297C212.778 11.3945 213.904 13.7253 214.009 16.7852H208.227C208.123 15.0534 207.368 13.8229 205.962 13.0938C205.024 12.612 203.859 12.3711 202.466 12.3711C200.916 12.3711 199.679 12.6836 198.755 13.3086C197.83 13.9336 197.368 14.806 197.368 15.9258C197.368 16.9544 197.824 17.7227 198.735 18.2305C199.321 18.569 200.571 18.9661 202.485 19.4219L207.446 20.6133C209.621 21.1341 211.261 21.8307 212.368 22.7031C214.087 24.0573 214.946 26.0169 214.946 28.582C214.946 31.2122 213.937 33.3997 211.919 35.1445C209.914 36.8763 207.075 37.7422 203.403 37.7422C199.653 37.7422 196.704 36.8893 194.555 35.1836C192.407 33.4648 191.333 31.1081 191.333 28.1133H197.075ZM221.355 28.1133C221.537 29.4284 221.895 30.4115 222.429 31.0625C223.405 32.2474 225.079 32.8398 227.448 32.8398C228.868 32.8398 230.02 32.6836 230.905 32.3711C232.585 31.7721 233.425 30.6589 233.425 29.0312C233.425 28.0807 233.008 27.3451 232.175 26.8242C231.342 26.3164 230.033 25.8672 228.249 25.4766L225.202 24.793C222.208 24.1159 220.137 23.3802 218.991 22.5859C217.051 21.2578 216.081 19.181 216.081 16.3555C216.081 13.7773 217.019 11.6354 218.894 9.92969C220.769 8.22396 223.523 7.37109 227.155 7.37109C230.189 7.37109 232.774 8.17839 234.909 9.79297C237.058 11.3945 238.184 13.7253 238.288 16.7852H232.507C232.403 15.0534 231.648 13.8229 230.241 13.0938C229.304 12.612 228.139 12.3711 226.745 12.3711C225.196 12.3711 223.959 12.6836 223.034 13.3086C222.11 13.9336 221.648 14.806 221.648 15.9258C221.648 16.9544 222.103 17.7227 223.015 18.2305C223.601 18.569 224.851 18.9661 226.765 19.4219L231.726 20.6133C233.9 21.1341 235.541 21.8307 236.648 22.7031C238.366 24.0573 239.226 26.0169 239.226 28.582C239.226 31.2122 238.217 33.3997 236.198 35.1445C234.193 36.8763 231.355 37.7422 227.683 37.7422C223.933 37.7422 220.984 36.8893 218.835 35.1836C216.687 33.4648 215.613 31.1081 215.613 28.1133H221.355Z" fill="#09322F"/>
<path d="M77.4344 14.168L76.8018 14.9425L76.8081 14.9476L77.4344 14.168ZM68.5281 13.2109V12.2109H67.5281V13.2109H68.5281ZM68.5281 21.6875H67.5281V22.6875H68.5281V21.6875ZM77.4344 20.6523L76.7785 19.8974L76.7723 19.9029L77.4344 20.6523ZM68.5281 26.6484V25.6484H67.5281V26.6484H68.5281ZM68.5281 37V38H69.5281V37H68.5281ZM62.5516 37H61.5516V38H62.5516V37ZM62.5516 8.21094V7.21094H61.5516V8.21094H62.5516ZM78.6258 17.3711H79.6258C79.6258 15.7176 79.1859 14.2923 78.0606 13.3883L77.4344 14.168L76.8081 14.9476C77.2714 15.3197 77.6258 16.0298 77.6258 17.3711H78.6258ZM77.4344 14.168L78.0669 13.3934C77.0467 12.5603 75.691 12.2109 74.1336 12.2109V13.2109V14.2109C75.4147 14.2109 76.2595 14.4996 76.8018 14.9425L77.4344 14.168ZM74.1336 13.2109V12.2109H68.5281V13.2109V14.2109H74.1336V13.2109ZM68.5281 13.2109H67.5281V21.6875H68.5281H69.5281V13.2109H68.5281ZM68.5281 21.6875V22.6875H74.1336V21.6875V20.6875H68.5281V21.6875ZM74.1336 21.6875V22.6875C75.7079 22.6875 77.0753 22.3038 78.0964 21.4018L77.4344 20.6523L76.7723 19.9029C76.2309 20.3811 75.3978 20.6875 74.1336 20.6875V21.6875ZM77.4344 20.6523L78.0902 21.4072C79.1832 20.4576 79.6258 19.0317 79.6258 17.3711H78.6258H77.6258C77.6258 18.7053 77.274 19.4669 76.7785 19.8975L77.4344 20.6523ZM84.5828 17.332H83.5828C83.5828 20.5916 82.757 22.6315 81.3714 23.7651L82.0047 24.5391L82.6379 25.313C84.6899 23.6342 85.5828 20.8693 85.5828 17.332H84.5828ZM82.0047 24.5391L81.3714 23.7651C79.895 24.9731 77.6991 25.6484 74.6414 25.6484V26.6484V27.6484C77.9639 27.6484 80.6768 26.9175 82.6379 25.313L82.0047 24.5391ZM74.6414 26.6484V25.6484H68.5281V26.6484V27.6484H74.6414V26.6484ZM68.5281 26.6484H67.5281V37H68.5281H69.5281V26.6484H68.5281ZM68.5281 37V36H62.5516V37V38H68.5281V37ZM62.5516 37H63.5516V8.21094H62.5516H61.5516V37H62.5516ZM62.5516 8.21094V9.21094H75.0906V8.21094V7.21094H62.5516V8.21094ZM75.0906 8.21094V9.21094C77.8085 9.21094 79.8591 9.90581 81.3511 11.1943L82.0047 10.4375L82.6583 9.68068C80.7128 8.00044 78.154 7.21094 75.0906 7.21094V8.21094ZM82.0047 10.4375L81.3511 11.1943C82.7769 12.4257 83.5828 14.3979 83.5828 17.332H84.5828H85.5828C85.5828 14.0422 84.67 11.418 82.6583 9.68068L82.0047 10.4375ZM92.7102 13.2109V12.2109H91.7102V13.2109H92.7102ZM92.7102 20.9453H91.7102V21.9453H92.7102V20.9453ZM102.573 20.4766L102.158 19.5669L102.154 19.5686L102.573 20.4766ZM102.632 13.7188L102.171 14.606L102.173 14.6071L102.632 13.7188ZM100.952 8.21094L100.972 7.21112L100.962 7.21094H100.952V8.21094ZM105.601 8.95312L105.212 9.87456L105.216 9.8762L105.601 8.95312ZM108.374 10.9648L107.613 11.6138L107.615 11.6156L108.374 10.9648ZM109.37 20.457L110.256 20.9217L110.258 20.9181L109.37 20.457ZM105.952 23.25L105.627 22.3045L103.091 23.1775L105.579 24.1778L105.952 23.25ZM108.765 25.5352L107.89 26.0188L107.893 26.0257L107.897 26.0325L108.765 25.5352ZM109.761 34.6367L110.74 34.4307L110.737 34.4198L109.761 34.6367ZM110.855 36.2773H111.855V35.7177L111.378 35.425L110.855 36.2773ZM110.855 37V38H111.855V37H110.855ZM104.234 37L103.272 37.2747L103.479 38H104.234V37ZM103.843 35.457L102.861 35.6471L102.862 35.6531L103.843 35.457ZM103.589 32.9766L102.589 32.9912L102.589 32.9919L103.589 32.9766ZM103.55 30.3008L102.55 30.315L102.55 30.3154L103.55 30.3008ZM102.534 26.6289L101.842 27.3506L101.849 27.3575L102.534 26.6289ZM92.7102 25.7109V24.7109H91.7102V25.7109H92.7102ZM92.7102 37V38H93.7102V37H92.7102ZM86.8312 37H85.8312V38H86.8312V37ZM86.8312 8.21094V7.21094H85.8312V8.21094H86.8312ZM92.7102 13.2109H91.7102V20.9453H92.7102H93.7102V13.2109H92.7102ZM92.7102 20.9453V21.9453H99.5266V20.9453V19.9453H92.7102V20.9453ZM99.5266 20.9453V21.9453C100.926 21.9453 102.117 21.7887 102.992 21.3845L102.573 20.4766L102.154 19.5686C101.676 19.7894 100.835 19.9453 99.5266 19.9453V20.9453ZM102.573 20.4766L102.989 21.3863C103.769 21.0302 104.386 20.4808 104.796 19.7406C105.199 19.0133 105.37 18.1608 105.37 17.2344H104.37H103.37C103.37 17.9225 103.242 18.4177 103.046 18.7711C102.858 19.1117 102.576 19.3761 102.158 19.5669L102.573 20.4766ZM104.37 17.2344H105.37C105.37 15.2622 104.695 13.6593 103.091 12.8304L102.632 13.7188L102.173 14.6071C102.887 14.9761 103.37 15.717 103.37 17.2344H104.37ZM102.632 13.7188L103.093 12.8315C102.228 12.3818 101.059 12.2109 99.7023 12.2109V13.2109V14.2109C100.95 14.2109 101.733 14.3786 102.171 14.606L102.632 13.7188ZM99.7023 13.2109V12.2109H92.7102V13.2109V14.2109H99.7023V13.2109ZM100.952 8.21094L100.933 9.21075C102.902 9.24887 104.304 9.49143 105.212 9.87455L105.601 8.95312L105.989 8.0317C104.736 7.50337 103.039 7.25113 100.972 7.21112L100.952 8.21094ZM105.601 8.95312L105.216 9.8762C106.167 10.2726 106.962 10.8503 107.613 11.6138L108.374 10.9648L109.135 10.3159C108.276 9.30854 107.222 8.54515 105.985 8.03005L105.601 8.95312ZM108.374 10.9648L107.615 11.6156C108.171 12.2644 108.61 12.9806 108.934 13.7675L109.859 13.3867L110.783 13.006C110.378 12.022 109.827 11.1236 109.133 10.3141L108.374 10.9648ZM109.859 13.3867L108.934 13.7675C109.241 14.5121 109.405 15.3884 109.405 16.4141H110.405H111.405C111.405 15.1741 111.206 14.0321 110.783 13.006L109.859 13.3867ZM110.405 16.4141H109.405C109.405 17.6059 109.106 18.7965 108.483 19.996L109.37 20.457L110.258 20.9181C111.015 19.4613 111.405 17.9566 111.405 16.4141H110.405ZM109.37 20.457L108.485 19.9924C107.929 21.0515 107.008 21.8288 105.627 22.3045L105.952 23.25L106.278 24.1955C108.073 23.5774 109.431 22.4927 110.256 20.9217L109.37 20.457ZM105.952 23.25L105.579 24.1778C106.752 24.6492 107.481 25.2794 107.89 26.0188L108.765 25.5352L109.64 25.0515C108.955 23.8118 107.809 22.9185 106.325 22.3222L105.952 23.25ZM108.765 25.5352L107.897 26.0325C108.326 26.7802 108.605 28.0648 108.605 30.0273H109.605H110.605C110.605 27.9534 110.323 26.2432 109.632 25.0378L108.765 25.5352ZM109.605 30.0273H108.605V31.9609H109.605H110.605V30.0273H109.605ZM109.605 31.9609H108.605C108.605 33.2647 108.653 34.2624 108.785 34.8536L109.761 34.6367L110.737 34.4198C110.66 34.0735 110.605 33.2874 110.605 31.9609H109.605ZM109.761 34.6367L108.782 34.8427C108.987 35.8158 109.493 36.6153 110.332 37.1297L110.855 36.2773L111.378 35.425C111.07 35.2363 110.847 34.942 110.739 34.4307L109.761 34.6367ZM110.855 36.2773H109.855V37H110.855H111.855V36.2773H110.855ZM110.855 37V36H104.234V37V38H110.855V37ZM104.234 37L105.195 36.7253C105.016 36.0986 104.894 35.6135 104.824 35.2609L103.843 35.457L102.862 35.6531C102.948 36.0818 103.087 36.6254 103.272 37.2747L104.234 37ZM103.843 35.457L104.825 35.267C104.68 34.519 104.601 33.7506 104.589 32.9612L103.589 32.9766L102.589 32.9919C102.603 33.8952 102.693 34.7805 102.861 35.6471L103.843 35.457ZM103.589 32.9766L104.589 32.962L104.55 30.2862L103.55 30.3008L102.55 30.3154L102.589 32.9912L103.589 32.9766ZM103.55 30.3008L104.55 30.2866C104.536 29.3177 104.44 28.4611 104.24 27.7393C104.042 27.0213 103.723 26.374 103.219 25.9003L102.534 26.6289L101.849 27.3575C101.997 27.4958 102.173 27.7665 102.313 28.2724C102.452 28.7746 102.538 29.448 102.55 30.315L103.55 30.3008ZM102.534 26.6289L103.227 25.9072C102.287 25.0063 100.727 24.7109 98.9211 24.7109V25.7109V26.7109C100.657 26.7109 101.505 27.0276 101.842 27.3506L102.534 26.6289ZM98.9211 25.7109V24.7109H92.7102V25.7109V26.7109H98.9211V25.7109ZM92.7102 25.7109H91.7102V37H92.7102H93.7102V25.7109H92.7102ZM92.7102 37V36H86.8312V37V38H92.7102V37ZM86.8312 37H87.8312V8.21094H86.8312H85.8312V37H86.8312ZM86.8312 8.21094V9.21094H100.952V8.21094V7.21094H86.8312V8.21094ZM131.599 30.0664L130.818 29.4417L130.816 29.4453L131.599 30.0664ZM131.599 15.0859L130.813 15.7043L130.818 15.7106L131.599 15.0859ZM135.369 34.4414L134.681 33.715L134.666 33.7296L134.651 33.7448L135.369 34.4414ZM116.502 34.4414L117.219 33.7448L117.203 33.7288L117.187 33.7135L116.502 34.4414ZM116.502 10.6914L117.173 11.4324L117.197 11.4109L117.219 11.388L116.502 10.6914ZM135.369 10.6914L134.651 11.388L134.673 11.4101L134.696 11.4309L135.369 10.6914ZM125.935 32.7031V33.7031C128.601 33.7031 130.787 32.7014 132.383 30.6876L131.599 30.0664L130.816 29.4453C129.625 30.9471 128.035 31.7031 125.935 31.7031V32.7031ZM131.599 30.0664L132.38 30.6911C133.979 28.6926 134.709 25.9384 134.709 22.5664H133.709H132.709C132.709 25.6788 132.032 27.9246 130.818 29.4417L131.599 30.0664ZM133.709 22.5664H134.709C134.709 19.2063 133.978 16.4592 132.38 14.4612L131.599 15.0859L130.818 15.7106C132.033 17.2283 132.709 19.4682 132.709 22.5664H133.709ZM131.599 15.0859L132.385 14.4676C130.79 12.4402 128.604 11.4297 125.935 11.4297V12.4297V13.4297C128.032 13.4297 129.622 14.19 130.813 15.7043L131.599 15.0859ZM125.935 12.4297V11.4297C123.269 11.4297 121.075 12.4308 119.454 14.4382L120.232 15.0664L121.01 15.6946C122.228 14.1864 123.836 13.4297 125.935 13.4297V12.4297ZM120.232 15.0664L119.454 14.4382C117.84 16.437 117.103 19.1926 117.103 22.5664H118.103H119.103C119.103 19.4558 119.785 17.2114 121.01 15.6946L120.232 15.0664ZM118.103 22.5664H117.103C117.103 25.9402 117.84 28.6958 119.454 30.6946L120.232 30.0664L121.01 29.4382C119.785 27.9214 119.103 25.677 119.103 22.5664H118.103ZM120.232 30.0664L119.454 30.6946C121.075 32.702 123.269 33.7031 125.935 33.7031V32.7031V31.7031C123.836 31.7031 122.228 30.9465 121.01 29.4382L120.232 30.0664ZM139.724 22.5664H138.724C138.724 27.5457 137.331 31.2078 134.681 33.715L135.369 34.4414L136.056 35.1678C139.214 32.1802 140.724 27.9256 140.724 22.5664H139.724ZM135.369 34.4414L134.651 33.7448C132.72 35.7344 129.869 36.8008 125.935 36.8008V37.8008V38.8008C130.23 38.8008 133.669 37.6276 136.086 35.138L135.369 34.4414ZM125.935 37.8008V36.8008C122.001 36.8008 119.151 35.7344 117.219 33.7448L116.502 34.4414L115.784 35.138C118.201 37.6276 121.64 38.8008 125.935 38.8008V37.8008ZM116.502 34.4414L117.187 33.7135C114.525 31.206 113.127 27.5444 113.127 22.5664H112.127H111.127C111.127 27.9269 112.645 32.182 115.816 35.1693L116.502 34.4414ZM112.127 22.5664H113.127C113.127 17.4748 114.53 13.8277 117.173 11.4324L116.502 10.6914L115.83 9.95042C112.64 12.8416 111.127 17.1112 111.127 22.5664H112.127ZM116.502 10.6914L117.219 11.388C119.151 9.39842 122.001 8.33203 125.935 8.33203V7.33203V6.33203C121.64 6.33203 118.201 7.50522 115.784 9.9948L116.502 10.6914ZM125.935 7.33203V8.33203C129.869 8.33203 132.72 9.39842 134.651 11.388L135.369 10.6914L136.086 9.9948C133.669 7.50522 130.23 6.33203 125.935 6.33203V7.33203ZM135.369 10.6914L134.696 11.4309C137.327 13.8259 138.724 17.4735 138.724 22.5664H139.724H140.724C140.724 17.1125 139.218 12.8434 136.042 9.95192L135.369 10.6914ZM144.727 11.2188L145.437 11.9224L145.438 11.9219L144.727 11.2188ZM164.297 12.4297L165.119 11.8598L165.114 11.8535L164.297 12.4297ZM166.289 17.8008V18.8008H167.341L167.288 17.7501L166.289 17.8008ZM160.273 17.8008L159.311 18.0731L159.517 18.8008H160.273V17.8008ZM158.77 14.6758L159.524 14.0193L159.522 14.0173L158.77 14.6758ZM148.73 15.457L149.543 16.0405L149.545 16.0377L148.73 15.457ZM148.828 30.2031L148.056 30.8384L148.061 30.8451L148.828 30.2031ZM158.75 30.5352L157.978 29.8989L157.97 29.9096L158.75 30.5352ZM160.273 27.1953V26.1953H159.509L159.308 26.9329L160.273 27.1953ZM166.23 27.1953L167.217 27.359L167.41 26.1953H166.23V27.1953ZM162.227 34.8516L161.551 34.1138L161.549 34.1159L162.227 34.8516ZM144.238 33.8164L143.49 34.4803L143.492 34.4821L144.238 33.8164ZM140.684 22.8398H141.684C141.684 17.992 142.98 14.4036 145.437 11.9224L144.727 11.2188L144.016 10.5151C141.083 13.4766 139.684 17.6356 139.684 22.8398H140.684ZM144.727 11.2188L145.438 11.9219C147.576 9.7594 150.294 8.66406 153.672 8.66406V7.66406V6.66406C149.81 6.66406 146.564 7.93852 144.016 10.5156L144.727 11.2188ZM153.672 7.66406V8.66406C158.28 8.66406 161.474 10.1603 163.48 13.0058L164.297 12.4297L165.114 11.8535C162.641 8.34486 158.751 6.66406 153.672 6.66406V7.66406ZM164.297 12.4297L163.475 12.9995C164.628 14.662 165.21 16.276 165.29 17.8514L166.289 17.8008L167.288 17.7501C167.185 15.7319 166.44 13.7651 165.119 11.8599L164.297 12.4297ZM166.289 17.8008V16.8008H160.273V17.8008V18.8008H166.289V17.8008ZM160.273 17.8008L161.236 17.5285C160.824 16.0754 160.271 14.8773 159.524 14.0193L158.77 14.6758L158.015 15.3323C158.492 15.8805 158.941 16.7657 159.311 18.0731L160.273 17.8008ZM158.77 14.6758L159.522 14.0173C158.186 12.4905 156.253 11.8008 153.906 11.8008V12.8008V13.8008C155.857 13.8008 157.165 14.3611 158.017 15.3343L158.77 14.6758ZM153.906 12.8008V11.8008C151.398 11.8008 149.368 12.8406 147.916 14.8764L148.73 15.457L149.545 16.0377C150.619 14.5318 152.04 13.8008 153.906 13.8008V12.8008ZM148.73 15.457L147.918 14.8735C146.486 16.8664 145.836 19.5966 145.836 22.9375H146.836H147.836C147.836 19.8201 148.448 17.5633 149.543 16.0405L148.73 15.457ZM146.836 22.9375H145.836C145.836 26.2785 146.519 28.9701 148.056 30.8384L148.828 30.2031L149.6 29.5679C148.481 28.207 147.836 26.0548 147.836 22.9375H146.836ZM148.828 30.2031L148.061 30.8451C149.589 32.6696 151.567 33.6055 153.926 33.6055V32.6055V31.6055C152.17 31.6055 150.749 30.9398 149.595 29.5611L148.828 30.2031ZM153.926 32.6055V33.6055C156.274 33.6055 158.196 32.824 159.53 31.1607L158.75 30.5352L157.97 29.9096C157.09 31.0067 155.797 31.6055 153.926 31.6055V32.6055ZM158.75 30.5352L159.522 31.1713C160.262 30.2735 160.817 29.0063 161.238 27.4577L160.273 27.1953L159.308 26.9329C158.922 28.3531 158.462 29.3124 157.978 29.899L158.75 30.5352ZM160.273 27.1953V28.1953H166.23V27.1953V26.1953H160.273V27.1953ZM166.23 27.1953L165.244 27.0316C164.756 29.9705 163.519 32.313 161.551 34.1139L162.227 34.8516L162.902 35.5893C165.231 33.4579 166.663 30.6962 167.217 27.359L166.23 27.1953ZM162.227 34.8516L161.549 34.1159C159.627 35.8862 157.14 36.8008 154.004 36.8008V37.8008V38.8008C157.56 38.8008 160.556 37.7492 162.904 35.5872L162.227 34.8516ZM154.004 37.8008V36.8008C150.097 36.8008 147.133 35.5588 144.984 33.1507L144.238 33.8164L143.492 34.4821C146.083 37.3865 149.629 38.8008 154.004 38.8008V37.8008ZM144.238 33.8164L144.986 33.1525C142.823 30.7159 141.684 27.3193 141.684 22.8398H140.684H139.684C139.684 27.6573 140.914 31.5784 143.49 34.4803L144.238 33.8164ZM189.729 13.3086V14.3086H190.729V13.3086H189.729ZM174.495 13.3086V12.3086H173.495V13.3086H174.495ZM174.495 19.4219H173.495V20.4219H174.495V19.4219ZM188.479 19.4219H189.479V18.4219H188.479V19.4219ZM188.479 24.4219V25.4219H189.479V24.4219H188.479ZM174.495 24.4219V23.4219H173.495V24.4219H174.495ZM174.495 31.8242H173.495V32.8242H174.495V31.8242ZM190.432 31.8242H191.432V30.8242H190.432V31.8242ZM190.432 37V38H191.432V37H190.432ZM168.616 37H167.616V38H168.616V37ZM168.616 8.21094V7.21094H167.616V8.21094H168.616ZM189.729 8.21094H190.729V7.21094H189.729V8.21094ZM189.729 13.3086V12.3086H174.495V13.3086V14.3086H189.729V13.3086ZM174.495 13.3086H173.495V19.4219H174.495H175.495V13.3086H174.495ZM174.495 19.4219V20.4219H188.479V19.4219V18.4219H174.495V19.4219ZM188.479 19.4219H187.479V24.4219H188.479H189.479V19.4219H188.479ZM188.479 24.4219V23.4219H174.495V24.4219V25.4219H188.479V24.4219ZM174.495 24.4219H173.495V31.8242H174.495H175.495V24.4219H174.495ZM174.495 31.8242V32.8242H190.432V31.8242V30.8242H174.495V31.8242ZM190.432 31.8242H189.432V37H190.432H191.432V31.8242H190.432ZM190.432 37V36H168.616V37V38H190.432V37ZM168.616 37H169.616V8.21094H168.616H167.616V37H168.616ZM168.616 8.21094V9.21094H189.729V8.21094V7.21094H168.616V8.21094ZM189.729 8.21094H188.729V13.3086H189.729H190.729V8.21094H189.729ZM197.075 28.1133L198.066 27.976L197.946 27.1133H197.075V28.1133ZM198.149 31.0625L197.376 31.6966L197.378 31.6985L198.149 31.0625ZM206.626 32.3711L206.959 33.3141L206.962 33.313L206.626 32.3711ZM207.895 26.8242L208.425 25.9762L208.416 25.9703L207.895 26.8242ZM203.97 25.4766L203.751 26.4523L203.756 26.4534L203.97 25.4766ZM200.923 24.793L200.702 25.7684L200.704 25.7687L200.923 24.793ZM194.712 22.5859L195.281 21.7641L195.277 21.7608L194.712 22.5859ZM210.63 9.79297L210.027 10.5906L210.032 10.5947L210.63 9.79297ZM214.009 16.7852V17.7852H215.043L215.008 16.7511L214.009 16.7852ZM208.227 16.7852L207.229 16.8452L207.286 17.7852H208.227V16.7852ZM205.962 13.0938L206.422 12.206L206.419 12.2043L205.962 13.0938ZM198.755 13.3086L198.195 12.4802L198.755 13.3086ZM198.735 18.2305L199.235 17.3646L199.229 17.3607L199.222 17.3569L198.735 18.2305ZM202.485 19.4219L202.719 18.4495L202.717 18.4491L202.485 19.4219ZM207.446 20.6133L207.213 21.5856L207.213 21.5858L207.446 20.6133ZM212.368 22.7031L211.749 23.4885L211.749 23.4886L212.368 22.7031ZM211.919 35.1445L212.572 35.9014L212.573 35.901L211.919 35.1445ZM194.555 35.1836L193.931 35.9645L193.934 35.9668L194.555 35.1836ZM191.333 28.1133V27.1133H190.333V28.1133H191.333ZM197.075 28.1133L196.084 28.2506C196.279 29.6521 196.676 30.8432 197.376 31.6966L198.149 31.0625L198.922 30.4284C198.555 29.9797 198.236 29.2046 198.066 27.976L197.075 28.1133ZM198.149 31.0625L197.378 31.6985C198.628 33.2158 200.664 33.8398 203.169 33.8398V32.8398V31.8398C200.934 31.8398 199.624 31.279 198.921 30.4265L198.149 31.0625ZM203.169 32.8398V33.8398C204.649 33.8398 205.926 33.6784 206.959 33.3141L206.626 32.3711L206.293 31.4281C205.554 31.6888 204.527 31.8398 203.169 31.8398V32.8398ZM206.626 32.3711L206.962 33.313C207.935 32.9661 208.747 32.4399 209.314 31.6892C209.886 30.9312 210.145 30.0247 210.145 29.0312H209.145H208.145C208.145 29.6654 207.985 30.1294 207.717 30.4847C207.444 30.8472 206.997 31.1772 206.29 31.4292L206.626 32.3711ZM209.145 29.0312H210.145C210.145 27.722 209.539 26.6723 208.425 25.9762L207.895 26.8242L207.365 27.6722C207.918 28.0178 208.145 28.4395 208.145 29.0312H209.145ZM207.895 26.8242L208.416 25.9703C207.438 25.3745 205.998 24.8971 204.183 24.4997L203.97 25.4766L203.756 26.4534C205.508 26.8372 206.686 27.2583 207.375 27.6782L207.895 26.8242ZM203.97 25.4766L204.188 24.5008L201.142 23.8172L200.923 24.793L200.704 25.7687L203.751 26.4523L203.97 25.4766ZM200.923 24.793L201.143 23.8176C198.159 23.1429 196.256 22.4395 195.281 21.7641L194.712 22.5859L194.142 23.4078C195.459 24.3209 197.697 25.0888 200.702 25.7684L200.923 24.793ZM194.712 22.5859L195.277 21.7608C193.666 20.6583 192.802 18.9271 192.802 16.3555H191.802H190.802C190.802 19.4349 191.877 21.8574 194.147 23.4111L194.712 22.5859ZM191.802 16.3555H192.802C192.802 14.0535 193.624 12.1819 195.287 10.6694L194.614 9.92969L193.941 9.18998C191.854 11.0889 190.802 13.5012 190.802 16.3555H191.802ZM194.614 9.92969L195.287 10.6694C196.912 9.19136 199.385 8.37109 202.876 8.37109V7.37109V6.37109C199.101 6.37109 196.066 7.25655 193.941 9.18998L194.614 9.92969ZM202.876 7.37109V8.37109C205.722 8.37109 208.088 9.12456 210.027 10.5906L210.63 9.79297L211.233 8.99531C208.901 7.23221 206.097 6.37109 202.876 6.37109V7.37109ZM210.63 9.79297L210.032 10.5947C211.9 11.9874 212.914 14.0141 213.009 16.8192L214.009 16.7852L215.008 16.7511C214.895 13.4364 213.656 10.8017 211.227 8.99122L210.63 9.79297ZM214.009 16.7852V15.7852H208.227V16.7852V17.7852H214.009V16.7852ZM208.227 16.7852L209.226 16.7251C209.103 14.6824 208.175 13.115 206.422 12.206L205.962 13.0938L205.501 13.9815C206.561 14.5309 207.144 15.4244 207.229 16.8452L208.227 16.7852ZM205.962 13.0938L206.419 12.2043C205.302 11.6303 203.969 11.3711 202.466 11.3711V12.3711V13.3711C203.749 13.3711 204.747 13.5936 205.505 13.9832L205.962 13.0938ZM202.466 12.3711V11.3711C200.792 11.3711 199.337 11.7076 198.195 12.4802L198.755 13.3086L199.315 14.137C200.021 13.6596 201.041 13.3711 202.466 13.3711V12.3711ZM198.755 13.3086L198.195 12.4802C196.994 13.2919 196.368 14.4753 196.368 15.9258H197.368H198.368C198.368 15.1367 198.667 14.5753 199.315 14.137L198.755 13.3086ZM197.368 15.9258H196.368C196.368 16.592 196.517 17.2229 196.85 17.7836C197.182 18.3436 197.665 18.7787 198.248 19.104L198.735 18.2305L199.222 17.3569C198.894 17.1744 198.693 16.9715 198.57 16.7632C198.447 16.5557 198.368 16.2882 198.368 15.9258H197.368ZM198.735 18.2305L198.235 19.0963C198.967 19.5196 200.361 19.9441 202.254 20.3947L202.485 19.4219L202.717 18.4491C200.781 17.9882 199.675 17.6184 199.235 17.3646L198.735 18.2305ZM202.485 19.4219L202.252 20.3942L207.213 21.5856L207.446 20.6133L207.68 19.6409L202.719 18.4495L202.485 19.4219ZM207.446 20.6133L207.213 21.5858C209.32 22.0905 210.803 22.7429 211.749 23.4885L212.368 22.7031L212.987 21.9178C211.719 20.9185 209.921 20.1777 207.679 19.6408L207.446 20.6133ZM212.368 22.7031L211.749 23.4886C213.184 24.6193 213.946 26.2641 213.946 28.582H214.946H215.946C215.946 25.7698 214.989 23.4953 212.987 21.9176L212.368 22.7031ZM214.946 28.582H213.946C213.946 30.917 213.067 32.8301 211.265 34.388L211.919 35.1445L212.573 35.901C214.807 33.9694 215.946 31.5074 215.946 28.582H214.946ZM211.919 35.1445L211.265 34.3877C209.501 35.9113 206.927 36.7422 203.403 36.7422V37.7422V38.7422C207.223 38.7422 210.326 37.8413 212.572 35.9014L211.919 35.1445ZM203.403 37.7422V36.7422C199.797 36.7422 197.094 35.922 195.177 34.4004L194.555 35.1836L193.934 35.9668C196.314 37.8566 199.509 38.7422 203.403 38.7422V37.7422ZM194.555 35.1836L195.18 34.4027C193.292 32.8922 192.333 30.835 192.333 28.1133H191.333H190.333C190.333 31.3811 191.522 34.0375 193.931 35.9645L194.555 35.1836ZM191.333 28.1133V29.1133H197.075V28.1133V27.1133H191.333V28.1133ZM221.355 28.1133L222.345 27.976L222.226 27.1133H221.355V28.1133ZM222.429 31.0625L221.656 31.6966L221.657 31.6985L222.429 31.0625ZM230.905 32.3711L231.238 33.3141L231.241 33.313L230.905 32.3711ZM232.175 26.8242L232.705 25.9762L232.695 25.9703L232.175 26.8242ZM228.249 25.4766L228.03 26.4523L228.035 26.4534L228.249 25.4766ZM225.202 24.793L224.982 25.7684L224.983 25.7687L225.202 24.793ZM218.991 22.5859L219.561 21.7641L219.556 21.7608L218.991 22.5859ZM234.909 9.79297L234.306 10.5906L234.312 10.5947L234.909 9.79297ZM238.288 16.7852V17.7852H239.323L239.288 16.7511L238.288 16.7852ZM232.507 16.7852L231.509 16.8452L231.565 17.7852H232.507V16.7852ZM230.241 13.0938L230.702 12.206L230.698 12.2043L230.241 13.0938ZM223.034 13.3086L222.474 12.4802L223.034 13.3086ZM223.015 18.2305L223.515 17.3646L223.508 17.3607L223.502 17.3569L223.015 18.2305ZM226.765 19.4219L226.998 18.4495L226.996 18.4491L226.765 19.4219ZM231.726 20.6133L231.492 21.5856L231.493 21.5858L231.726 20.6133ZM236.648 22.7031L236.029 23.4885L236.029 23.4886L236.648 22.7031ZM236.198 35.1445L236.852 35.9014L236.852 35.901L236.198 35.1445ZM218.835 35.1836L218.21 35.9645L218.213 35.9668L218.835 35.1836ZM215.613 28.1133V27.1133H214.613V28.1133H215.613ZM221.355 28.1133L220.364 28.2506C220.558 29.6521 220.956 30.8432 221.656 31.6966L222.429 31.0625L223.202 30.4284C222.834 29.9797 222.516 29.2046 222.345 27.976L221.355 28.1133ZM222.429 31.0625L221.657 31.6985C222.908 33.2158 224.944 33.8398 227.448 33.8398V32.8398V31.8398C225.214 31.8398 223.903 31.279 223.201 30.4265L222.429 31.0625ZM227.448 32.8398V33.8398C228.929 33.8398 230.206 33.6784 231.238 33.3141L230.905 32.3711L230.573 31.4281C229.834 31.6888 228.806 31.8398 227.448 31.8398V32.8398ZM230.905 32.3711L231.241 33.313C232.214 32.9661 233.027 32.4399 233.593 31.6892C234.165 30.9312 234.425 30.0247 234.425 29.0312H233.425H232.425C232.425 29.6654 232.265 30.1294 231.997 30.4847C231.723 30.8472 231.276 31.1772 230.57 31.4292L230.905 32.3711ZM233.425 29.0312H234.425C234.425 27.722 233.819 26.6723 232.705 25.9762L232.175 26.8242L231.645 27.6722C232.198 28.0178 232.425 28.4395 232.425 29.0312H233.425ZM232.175 26.8242L232.695 25.9703C231.718 25.3745 230.278 24.8971 228.463 24.4997L228.249 25.4766L228.035 26.4534C229.788 26.8372 230.966 27.2583 231.655 27.6782L232.175 26.8242ZM228.249 25.4766L228.468 24.5008L225.421 23.8172L225.202 24.793L224.983 25.7687L228.03 26.4523L228.249 25.4766ZM225.202 24.793L225.423 23.8176C222.439 23.1429 220.535 22.4395 219.561 21.7641L218.991 22.5859L218.422 23.4078C219.739 24.3209 221.976 25.0888 224.982 25.7684L225.202 24.793ZM218.991 22.5859L219.556 21.7608C217.946 20.6583 217.081 18.9271 217.081 16.3555H216.081H215.081C215.081 19.4349 216.157 21.8574 218.427 23.4111L218.991 22.5859ZM216.081 16.3555H217.081C217.081 14.0535 217.904 12.1819 219.567 10.6694L218.894 9.92969L218.221 9.18998C216.133 11.0889 215.081 13.5012 215.081 16.3555H216.081ZM218.894 9.92969L219.567 10.6694C221.191 9.19136 223.665 8.37109 227.155 8.37109V7.37109V6.37109C223.381 6.37109 220.346 7.25655 218.221 9.18998L218.894 9.92969ZM227.155 7.37109V8.37109C230.002 8.37109 232.367 9.12456 234.306 10.5906L234.909 9.79297L235.512 8.99531C233.181 7.23221 230.377 6.37109 227.155 6.37109V7.37109ZM234.909 9.79297L234.312 10.5947C236.18 11.9874 237.193 14.0141 237.289 16.8192L238.288 16.7852L239.288 16.7511C239.175 13.4364 237.936 10.8017 235.507 8.99122L234.909 9.79297ZM238.288 16.7852V15.7852H232.507V16.7852V17.7852H238.288V16.7852ZM232.507 16.7852L233.505 16.7251C233.382 14.6824 232.455 13.115 230.702 12.206L230.241 13.0938L229.781 13.9815C230.841 14.5309 231.423 15.4244 231.509 16.8452L232.507 16.7852ZM230.241 13.0938L230.698 12.2043C229.582 11.6303 228.248 11.3711 226.745 11.3711V12.3711V13.3711C228.029 13.3711 229.026 13.5936 229.784 13.9832L230.241 13.0938ZM226.745 12.3711V11.3711C225.071 11.3711 223.617 11.7076 222.474 12.4802L223.034 13.3086L223.594 14.137C224.301 13.6596 225.32 13.3711 226.745 13.3711V12.3711ZM223.034 13.3086L222.474 12.4802C221.274 13.2919 220.648 14.4753 220.648 15.9258H221.648H222.648C222.648 15.1367 222.946 14.5753 223.594 14.137L223.034 13.3086ZM221.648 15.9258H220.648C220.648 16.592 220.797 17.2229 221.129 17.7836C221.462 18.3436 221.944 18.7787 222.528 19.104L223.015 18.2305L223.502 17.3569C223.174 17.1744 222.973 16.9715 222.85 16.7632C222.726 16.5557 222.648 16.2882 222.648 15.9258H221.648ZM223.015 18.2305L222.515 19.0963C223.247 19.5196 224.641 19.9441 226.533 20.3947L226.765 19.4219L226.996 18.4491C225.061 17.9882 223.954 17.6184 223.515 17.3646L223.015 18.2305ZM226.765 19.4219L226.531 20.3942L231.492 21.5856L231.726 20.6133L231.959 19.6409L226.998 18.4495L226.765 19.4219ZM231.726 20.6133L231.493 21.5858C233.6 22.0905 235.083 22.7429 236.029 23.4885L236.648 22.7031L237.267 21.9178C235.999 20.9185 234.2 20.1777 231.959 19.6408L231.726 20.6133ZM236.648 22.7031L236.029 23.4886C237.464 24.6193 238.226 26.2641 238.226 28.582H239.226H240.226C240.226 25.7698 239.269 23.4953 237.267 21.9176L236.648 22.7031ZM239.226 28.582H238.226C238.226 30.917 237.347 32.8301 235.544 34.388L236.198 35.1445L236.852 35.901C239.087 33.9694 240.226 31.5074 240.226 28.582H239.226ZM236.198 35.1445L235.545 34.3877C233.781 35.9113 231.207 36.7422 227.683 36.7422V37.7422V38.7422C231.502 38.7422 234.606 37.8413 236.852 35.9014L236.198 35.1445ZM227.683 37.7422V36.7422C224.076 36.7422 221.373 35.922 219.457 34.4004L218.835 35.1836L218.213 35.9668C220.594 37.8566 223.789 38.7422 227.683 38.7422V37.7422ZM218.835 35.1836L219.46 34.4027C217.572 32.8922 216.613 30.835 216.613 28.1133H215.613H214.613C214.613 31.3811 215.802 34.0375 218.21 35.9645L218.835 35.1836ZM215.613 28.1133V29.1133H221.355V28.1133V27.1133H215.613V28.1133Z" fill="#09322F" mask="url(#path-3-outside-2_2288_21173)"/>
</svg>
