<svg width="160" height="60" viewBox="0 0 160 60" fill="none" xmlns="http://www.w3.org/2000/svg">
  <path d="M44.54 16.32L36.68 42H30.22L25.04 24.7L19.72 42H13.26L5.54 16.32H11.72L17.04 35.46L22.66 16.32H27.8L33.1 35.32L38.5 16.32H44.54Z" fill="#1B3728"/>
  <path d="M52.1254 16.32V42H46.3654V16.32H52.1254Z" fill="#1B3728"/>
  <path d="M71.6287 36.42H60.8287L58.8487 42H52.8087L63.4687 16.32H69.0687L79.7287 42H73.6087L71.6287 36.42ZM69.7887 31.74L66.2287 21.74L62.6687 31.74H69.7887Z" fill="#1B3728"/>
  <path d="M101.718 22.02L95.8784 42H89.8384L83.9984 22.02V42H78.2384V16.32H87.3584L93.8384 37.26L100.318 16.32H109.438V42H103.678V22.02H101.718Z" fill="#1B3728"/>
  <path d="M113.02 16.32H128.44V21.56H118.78V26.32H127.06V31.56H118.78V36.76H128.58V42H113.02V16.32Z" fill="#1B3728"/>
  <path d="M146.347 32.24H141.507V42H135.747V16.32H146.347C148.507 16.32 150.347 16.74 151.867 17.58C153.387 18.42 154.527 19.6 155.287 21.12C156.047 22.64 156.427 24.38 156.427 26.34C156.427 28.26 156.047 29.92 155.287 31.32C154.527 32.72 153.387 33.78 151.867 34.5L156.987 42H150.767L146.347 32.24ZM141.507 26.94H146.347C147.547 26.94 148.447 26.62 149.047 25.98C149.647 25.34 149.947 24.42 149.947 23.22C149.947 22.02 149.647 21.1 149.047 20.46C148.447 19.82 147.547 19.5 146.347 19.5H141.507V26.94Z" fill="#1B3728"/>
</svg> 