<svg width="60" height="60" viewBox="0 0 60 60" fill="none" xmlns="http://www.w3.org/2000/svg">
<rect width="60" height="60" rx="30" fill="white"/>
<path d="M14.6543 20L14.7441 20.3867L17.2832 31.2656L17.2861 31.2783L17.2891 31.29L17.3545 31.6533L17.4121 31.3506L17.4131 31.3467L19.5742 20.4033L19.6533 20H24.7021L24.7861 20.3975L27.0645 31.2764L27.0654 31.2842L27.1699 31.8262L27.2568 31.3965L27.2578 31.3887L27.2598 31.3818L29.8252 20.3867L29.915 20H43.6719C45.6841 20 47.3472 20.5132 48.6064 21.5898L48.8408 21.8037C49.9722 22.9072 50.5 24.5095 50.5 26.5195C50.5 28.6887 49.9811 30.3778 48.834 31.457L48.5957 31.665C47.329 32.6909 45.5645 33.1679 43.373 33.168H39.7969V40H34.8135V20.8281L29.4648 39.6367L29.3613 40H24.749L24.666 39.6025L22.3486 28.4912L22.3457 28.4795V28.4785L22.1602 27.4727L21.9756 28.4795L21.9736 28.4912L19.6562 39.6025L19.5732 40H15.0654L14.9619 39.6377L9.51953 20.6377L9.33691 20H14.6543ZM39.7969 28.8945H43.0342C43.9037 28.8945 44.5044 28.6854 44.9053 28.335L44.9082 28.332L45.0439 28.1982C45.3439 27.8612 45.5283 27.3375 45.5283 26.5459C45.5283 25.6377 45.2865 25.112 44.9238 24.8232L44.9199 24.8203C44.5185 24.4958 43.9121 24.2998 43.0342 24.2998H39.7969V28.8945Z" fill="#126456" stroke="#126456"/>
</svg>
