<svg width="22" height="24" viewBox="0 0 22 24" fill="none" xmlns="http://www.w3.org/2000/svg">
<path d="M2.32166 17.2366C1.22511 17.2372 0.33409 16.3673 0.333892 15.2983L0.333496 9.36405C0.3331 8.29608 1.22392 7.42638 2.31909 7.42618C2.85152 7.4258 3.3501 7.62715 3.72591 7.99318C4.10173 8.35921 4.30844 8.84609 4.30884 9.36367L4.30825 15.2981C4.30967 15.5525 4.25907 15.8047 4.15943 16.0398C4.05979 16.275 3.91308 16.4884 3.72789 16.6676C3.54386 16.8486 3.32477 16.9921 3.08336 17.0898C2.84195 17.1874 2.58303 17.2373 2.32166 17.2366ZM2.32008 7.94685C1.51757 7.94646 0.867119 8.58219 0.866921 9.36405L0.867911 15.2977C0.867859 15.6737 1.02094 16.0344 1.29351 16.3004C1.56607 16.5664 1.93582 16.716 2.32147 16.7163C2.51242 16.7163 2.7015 16.6796 2.8779 16.6082C3.0543 16.5369 3.21455 16.4324 3.34951 16.3007C3.48446 16.169 3.59147 16.0126 3.66441 15.8406C3.73735 15.6685 3.77481 15.4841 3.77462 15.2979V9.36328C3.7742 8.98744 3.62077 8.62714 3.34803 8.36155C3.07529 8.09596 2.70556 7.9468 2.32008 7.94685Z" fill="white"/>
<path d="M17.9106 8.24068L3.75007 8.24241L3.74967 7.72136C3.74849 5.58233 4.94364 3.59292 6.90132 2.41761L6.14019 1.06296C6.04712 0.904267 6.02376 0.703299 6.07801 0.519512C6.10549 0.42784 6.1514 0.342413 6.21306 0.268205C6.27473 0.193997 6.35092 0.13249 6.43719 0.0872657C6.54383 0.0299718 6.66373 0.000262799 6.78549 0.000970908C7.05517 0.000970908 7.30208 0.143637 7.43237 0.374143L8.22894 1.78903C9.05972 1.4924 9.93787 1.34174 10.8226 1.34404C11.7346 1.34366 12.6092 1.49404 13.4371 1.79019L14.2324 0.372985C14.2958 0.259905 14.3892 0.165574 14.5029 0.0999326C14.6166 0.0342911 14.7464 -0.000230506 14.8785 5.64243e-06C15.0002 -0.00046565 15.12 0.0285941 15.2272 0.084563C15.3137 0.129735 15.3899 0.191373 15.4515 0.265821C15.5131 0.34027 15.5587 0.426014 15.5856 0.517968C15.6127 0.608632 15.6211 0.703634 15.6103 0.797479C15.5995 0.891323 15.5697 0.982146 15.5226 1.06469L14.7619 2.41858C16.7164 3.59639 17.9102 5.58426 17.91 7.71963L17.9106 8.24068ZM14.0404 2.61819L15.0548 0.812181C15.0692 0.789493 15.0788 0.764165 15.0829 0.737744C15.0871 0.711322 15.0856 0.684361 15.0787 0.658505C15.0718 0.632648 15.0595 0.608439 15.0427 0.587355C15.0258 0.56627 15.0047 0.548752 14.9807 0.53587C14.9567 0.522988 14.9303 0.515011 14.903 0.512427C14.8757 0.509843 14.8482 0.512705 14.8221 0.520839C14.7959 0.528973 14.7718 0.542209 14.7511 0.559738C14.7304 0.577267 14.7136 0.598723 14.7017 0.622795L13.6768 2.44715C12.8147 2.07378 11.8495 1.86393 10.8291 1.8649C9.811 1.86393 8.84751 2.07301 7.98797 2.44502L6.96211 0.624726C6.94956 0.601995 6.93252 0.581918 6.91196 0.565659C6.8914 0.5494 6.86774 0.537282 6.84234 0.530009C6.81694 0.522736 6.79031 0.520452 6.764 0.52329C6.73769 0.526127 6.71221 0.53403 6.68906 0.546539C6.59065 0.597892 6.55441 0.71855 6.60926 0.81276L7.62404 2.61742C5.63013 3.62014 4.2829 5.52944 4.28409 7.72156L17.3758 7.72001C17.3764 5.52867 16.0315 3.62323 14.0404 2.61819ZM7.85154 5.40916C7.70595 5.40909 7.56635 5.35262 7.46345 5.25219C7.36055 5.15176 7.30279 5.01559 7.30287 4.87364C7.30295 4.73168 7.36086 4.59557 7.46387 4.49525C7.56688 4.39493 7.70654 4.33861 7.85214 4.33868C7.99775 4.33894 8.13733 4.39544 8.24031 4.49581C8.34329 4.59618 8.40129 4.73224 8.4016 4.87421C8.40139 5.01626 8.34333 5.15242 8.24018 5.25273C8.13703 5.35305 7.99724 5.40932 7.85154 5.40916ZM13.8129 5.40801C13.7408 5.40813 13.6694 5.39438 13.6027 5.36755C13.5361 5.34071 13.4755 5.30132 13.4245 5.25162C13.3736 5.20192 13.3331 5.1429 13.3056 5.07794C13.278 5.01298 13.2639 4.94335 13.264 4.87306C13.2646 4.73117 13.3226 4.59526 13.4255 4.49484C13.5283 4.39443 13.6676 4.33762 13.8131 4.33675C13.9584 4.33792 14.0974 4.39489 14.2 4.49532C14.3026 4.59574 14.3604 4.73153 14.361 4.87325C14.361 5.01501 14.3032 5.15097 14.2004 5.25124C14.0977 5.35152 13.9583 5.4079 13.8129 5.40801ZM8.40021 24C7.30465 23.9998 6.41304 23.1311 6.41284 22.0621L6.41244 19.443L5.89011 19.4436C5.61613 19.4445 5.34469 19.3924 5.09153 19.2903C4.83837 19.1881 4.60854 19.038 4.41537 18.8486C4.22086 18.6602 4.06672 18.436 3.96192 18.189C3.85711 17.9421 3.80375 17.6772 3.80492 17.4099L3.80294 7.69395L17.8656 7.69163L17.867 17.4084C17.8672 18.5298 16.9315 19.4424 15.7816 19.4422L15.2561 19.4426L15.2567 22.0608C15.2567 23.1291 14.3653 23.9988 13.2701 23.9988C13.009 24.0001 12.7502 23.9506 12.5089 23.8532C12.2676 23.7559 12.0486 23.6126 11.8647 23.4318C11.6792 23.2526 11.532 23.0392 11.4319 22.804C11.3317 22.5688 11.2805 22.3166 11.2812 22.0619V19.4426H10.388V22.0614C10.3876 23.1299 9.49637 24.0002 8.40021 24Z" fill="white"/>
<path d="M4.33993 17.4097C4.33948 17.6084 4.37928 17.8053 4.45703 17.989C4.53478 18.1726 4.64896 18.3396 4.79302 18.4801C4.93708 18.6207 5.10818 18.7321 5.29651 18.8081C5.48484 18.884 5.6867 18.923 5.8905 18.9227H6.94646L6.94765 22.0625C6.94745 22.8444 7.59889 23.4797 8.40002 23.4799C8.59097 23.4799 8.78005 23.4431 8.95644 23.3718C9.13282 23.3005 9.29306 23.1959 9.428 23.0642C9.56293 22.9325 9.66992 22.7761 9.74284 22.604C9.81576 22.4319 9.85318 22.2475 9.85298 22.0614L9.85317 18.9225L11.8152 18.9219L11.815 22.0616C11.8158 22.8436 12.468 23.4797 13.269 23.4782C14.0721 23.4788 14.7231 22.8426 14.7229 22.0604L14.7219 18.9215L15.7818 18.9213C16.637 18.9215 17.3326 18.2441 17.3326 17.4084L17.3308 8.2123L4.33755 8.21461L4.33993 17.4097ZM19.3469 17.2341C18.2508 17.2343 17.3591 16.3657 17.3593 15.2966L17.3578 9.36251C17.3582 8.29357 18.2484 7.42406 19.3439 7.42406C20.4409 7.42387 21.3331 8.29319 21.3329 9.36193L21.3335 15.2956C21.3337 16.364 20.4429 17.2343 19.3469 17.2341ZM19.3449 7.94511C18.5424 7.94434 17.8922 8.57968 17.8922 9.36251L17.8928 15.2964C17.8927 15.4825 17.9302 15.6669 18.0032 15.8389C18.0762 16.0109 18.1833 16.1671 18.3184 16.2987C18.4534 16.4303 18.6137 16.5347 18.7901 16.6059C18.9665 16.677 19.1556 16.7136 19.3465 16.7134C19.5374 16.7133 19.7264 16.6766 19.9027 16.6054C20.079 16.5341 20.2392 16.4297 20.3741 16.298C20.5091 16.1664 20.6161 16.0101 20.6891 15.8382C20.762 15.6662 20.7996 15.4819 20.7995 15.2958L20.7979 9.36212C20.798 9.17604 20.7605 8.99175 20.6876 8.8198C20.6146 8.64784 20.5076 8.4916 20.3726 8.36C20.2377 8.2284 20.0775 8.12402 19.9011 8.05283C19.7248 7.98164 19.5358 7.94504 19.3449 7.94511Z" fill="white"/>
<path d="M2.32008 7.94685C1.51757 7.94646 0.867119 8.58219 0.866921 9.36405L0.867911 15.2977C0.867833 15.4839 0.905381 15.6683 0.978409 15.8403C1.05144 16.0123 1.1585 16.1687 1.29351 16.3004C1.42851 16.432 1.58882 16.5363 1.76523 16.6075C1.94164 16.6787 2.13052 16.7163 2.32147 16.7163C2.51242 16.7163 2.7015 16.6796 2.8779 16.6082C3.0543 16.5369 3.21455 16.4324 3.34951 16.3007C3.48446 16.169 3.59147 16.0126 3.66441 15.8406C3.73735 15.6685 3.77481 15.4841 3.77462 15.2979V9.36328C3.7742 8.98744 3.62077 8.62714 3.34803 8.36155C3.07529 8.09596 2.70556 7.9468 2.32008 7.94685ZM14.0404 2.61819L15.0548 0.812181C15.0806 0.766366 15.0868 0.712431 15.0719 0.6622C15.057 0.611969 15.0223 0.569542 14.9754 0.544223C14.9284 0.519329 14.8732 0.513622 14.8219 0.528351C14.7706 0.543081 14.7274 0.577045 14.7017 0.622795L13.6768 2.44715C12.8147 2.07378 11.8495 1.86393 10.8291 1.8649C9.811 1.86393 8.84751 2.07301 7.98797 2.44502L6.96211 0.624726C6.94956 0.601995 6.93252 0.581918 6.91196 0.565659C6.8914 0.5494 6.86774 0.537282 6.84234 0.530009C6.81694 0.522736 6.79031 0.520452 6.764 0.52329C6.73769 0.526127 6.71221 0.53403 6.68906 0.546539C6.66568 0.558724 6.64522 0.575139 6.6285 0.5952C6.61178 0.61526 6.59933 0.63837 6.59189 0.663177C6.58444 0.687984 6.58214 0.713991 6.58512 0.739675C6.5881 0.765359 6.59631 0.790205 6.60926 0.81276L7.62404 2.61742C5.63013 3.62014 4.2829 5.52944 4.28409 7.72156L17.3758 7.72001C17.3764 5.52867 16.0315 3.62323 14.0404 2.61819ZM7.85154 5.40916C7.70595 5.40909 7.56635 5.35262 7.46345 5.25219C7.36055 5.15176 7.30279 5.01559 7.30287 4.87364C7.30295 4.73168 7.36086 4.59557 7.46387 4.49525C7.56688 4.39493 7.70654 4.33861 7.85214 4.33868C7.99775 4.33894 8.13733 4.39544 8.24031 4.49581C8.34329 4.59618 8.40129 4.73224 8.4016 4.87421C8.40139 5.01626 8.34333 5.15242 8.24018 5.25273C8.13703 5.35305 7.99724 5.40932 7.85154 5.40916ZM13.8129 5.40801C13.7408 5.40813 13.6694 5.39438 13.6027 5.36755C13.5361 5.34071 13.4755 5.30132 13.4245 5.25162C13.3736 5.20192 13.3331 5.1429 13.3056 5.07794C13.278 5.01298 13.2639 4.94335 13.264 4.87306C13.2646 4.73117 13.3226 4.59526 13.4255 4.49484C13.5283 4.39443 13.6676 4.33762 13.8131 4.33675C13.9584 4.33792 14.0974 4.39489 14.2 4.49532C14.3026 4.59574 14.3604 4.73153 14.361 4.87325C14.361 4.94346 14.3469 5.013 14.3194 5.07789C14.2919 5.14278 14.2514 5.20158 14.2004 5.25124C14.1495 5.30091 14.0893 5.34048 14.0227 5.36734C13.9562 5.39421 13.8849 5.40803 13.8129 5.40801ZM4.33755 8.21461L4.33993 17.4097C4.33948 17.6084 4.37928 17.8053 4.45703 17.989C4.53478 18.1726 4.64896 18.3396 4.79302 18.4801C4.93708 18.6207 5.10818 18.7321 5.29651 18.8081C5.48484 18.884 5.6867 18.923 5.8905 18.9227H6.94646L6.94765 22.0625C6.94745 22.8444 7.59889 23.4797 8.40002 23.4799C9.20312 23.4799 9.85278 22.8436 9.85298 22.0614L9.85317 18.9225L11.8152 18.9219L11.815 22.0616C11.8158 22.8436 12.468 23.4797 13.269 23.4782C14.0721 23.4788 14.7231 22.8426 14.7229 22.0604L14.7219 18.9215L15.7818 18.9213C15.9856 18.9214 16.1871 18.8819 16.3753 18.8059C16.5636 18.7299 16.7346 18.6185 16.8787 18.4781C17.0228 18.3376 17.137 18.1709 17.215 17.9874C17.293 17.8039 17.3326 17.607 17.3326 17.4084L17.3308 8.2123L4.33755 8.21461ZM20.7979 9.36212C20.798 9.17604 20.7605 8.99175 20.6876 8.8198C20.6146 8.64784 20.5076 8.4916 20.3726 8.36C20.2377 8.2284 20.0775 8.12402 19.9011 8.05283C19.7248 7.98164 19.5358 7.94504 19.3449 7.94511C18.5424 7.94434 17.8922 8.57968 17.8922 9.36251L17.8928 15.2964C17.8927 15.4825 17.9302 15.6669 18.0032 15.8389C18.0762 16.0109 18.1833 16.1671 18.3184 16.2987C18.4534 16.4303 18.6137 16.5347 18.7901 16.6059C18.9665 16.677 19.1556 16.7136 19.3465 16.7134C19.5374 16.7133 19.7264 16.6766 19.9027 16.6054C20.079 16.5341 20.2392 16.4297 20.3741 16.298C20.5091 16.1664 20.6161 16.0101 20.6891 15.8382C20.762 15.6662 20.7996 15.4819 20.7995 15.2958L20.7979 9.36212Z" fill="#A4C439"/>
</svg>
