<svg width="22" height="24" viewBox="0 0 22 24" fill="none" xmlns="http://www.w3.org/2000/svg">
<path d="M18.1638 23.0371C16.8069 24.3036 15.3254 24.1036 13.8993 23.5037C12.3901 22.8904 11.0055 22.8638 9.41323 23.5037C7.41944 24.3303 6.36716 24.0903 5.17643 23.0371C-1.58031 16.3313 -0.583417 6.11923 7.08714 5.74594C8.95632 5.83926 10.2578 6.73248 11.3516 6.81247C12.9854 6.49251 14.55 5.57263 16.2946 5.69261C18.3853 5.85259 19.9637 6.65249 21.0022 8.09231C16.6823 10.5853 17.7069 16.0646 21.6667 17.5978C20.8775 19.5975 19.853 21.5839 18.1499 23.0504L18.1638 23.0371ZM11.2132 5.66595C11.0055 2.69299 13.5116 0.23997 16.3915 0C16.793 3.43957 13.1516 5.99924 11.2132 5.66595Z" fill="black"/>
</svg>
