<svg width="24" height="24" viewBox="0 0 24 24" fill="none" xmlns="http://www.w3.org/2000/svg">
<path d="M4.00006 9.99997L3.29306 10.707L2.58606 9.99997L3.29306 9.29297L4.00006 9.99997ZM21.0001 18C21.0001 18.2652 20.8947 18.5195 20.7072 18.7071C20.5196 18.8946 20.2653 19 20.0001 19C19.7348 19 19.4805 18.8946 19.293 18.7071C19.1054 18.5195 19.0001 18.2652 19.0001 18H21.0001ZM8.29306 15.707L3.29306 10.707L4.70706 9.29297L9.70706 14.293L8.29306 15.707ZM3.29306 9.29297L8.29306 4.29297L9.70706 5.70697L4.70706 10.707L3.29306 9.29297ZM4.00006 8.99997H14.0001V11H4.00006V8.99997ZM21.0001 16V18H19.0001V16H21.0001ZM14.0001 8.99997C15.8566 8.99997 17.6371 9.73747 18.9498 11.0502C20.2626 12.363 21.0001 14.1435 21.0001 16H19.0001C19.0001 14.6739 18.4733 13.4021 17.5356 12.4644C16.5979 11.5268 15.3261 11 14.0001 11V8.99997Z" fill="#333333"/>
</svg>
