<svg width="12" height="24" viewBox="0 0 12 24" fill="none" xmlns="http://www.w3.org/2000/svg">
<mask id="path-1-inside-1_1775_19149" fill="white">
<path d="M2.45199 6.58023L3.51299 5.52024L9.29199 11.2972C9.38514 11.3898 9.45907 11.4999 9.50952 11.6211C9.55997 11.7424 9.58594 11.8724 9.58594 12.0037C9.58594 12.1351 9.55997 12.2651 9.50952 12.3863C9.45907 12.5076 9.38514 12.6177 9.29199 12.7102L3.51299 18.4902L2.45299 17.4302L7.87699 12.0052L2.45199 6.58023Z"/>
</mask>
<path d="M2.45199 6.58023L3.51299 5.52024L9.29199 11.2972C9.38514 11.3898 9.45907 11.4999 9.50952 11.6211C9.55997 11.7424 9.58594 11.8724 9.58594 12.0037C9.58594 12.1351 9.55997 12.2651 9.50952 12.3863C9.45907 12.5076 9.38514 12.6177 9.29199 12.7102L3.51299 18.4902L2.45299 17.4302L7.87699 12.0052L2.45199 6.58023Z" fill="white"/>
<path d="M2.45199 6.58023L1.03844 5.16535L-0.377107 6.57957L1.03777 7.99445L2.45199 6.58023ZM3.51299 5.52024L4.92696 4.10578L3.51341 2.69272L2.09944 4.10535L3.51299 5.52024ZM9.29199 11.2972L7.87801 12.7117L7.88225 12.7159L9.29199 11.2972ZM9.29199 12.7102L7.88224 11.2916L7.87765 11.2961L9.29199 12.7102ZM3.51299 18.4902L2.09877 19.9044L3.51311 21.3188L4.92732 19.9043L3.51299 18.4902ZM2.45299 17.4302L1.03864 16.0162L-0.37531 17.4304L1.03877 18.8444L2.45299 17.4302ZM7.87699 12.0052L9.29133 13.4193L10.7053 12.0051L9.2912 10.591L7.87699 12.0052ZM3.86553 7.99512L4.92653 6.93512L2.09944 4.10535L1.03844 5.16535L3.86553 7.99512ZM2.09902 6.93469L7.87802 12.7117L10.706 9.88278L4.92696 4.10578L2.09902 6.93469ZM7.88225 12.7159C7.78835 12.6226 7.71382 12.5116 7.66297 12.3894L11.3561 10.8528C11.2043 10.4881 10.9819 10.157 10.7017 9.87856L7.88225 12.7159ZM7.66297 12.3894C7.61212 12.2672 7.58594 12.1361 7.58594 12.0037H11.5859C11.5859 11.6087 11.5078 11.2176 11.3561 10.8528L7.66297 12.3894ZM7.58594 12.0037C7.58594 11.8714 7.61212 11.7403 7.66297 11.6181L11.3561 13.1546C11.5078 12.7899 11.5859 12.3988 11.5859 12.0037H7.58594ZM7.66297 11.6181C7.71382 11.4958 7.78835 11.3849 7.88225 11.2916L10.7017 14.1289C10.9819 13.8505 11.2043 13.5193 11.3561 13.1546L7.66297 11.6181ZM7.87765 11.2961L2.09865 17.0761L4.92732 19.9043L10.7063 14.1243L7.87765 11.2961ZM4.9272 17.076L3.8672 16.016L1.03877 18.8444L2.09877 19.9044L4.9272 17.076ZM3.86733 18.8443L9.29133 13.4193L6.46264 10.5912L1.03864 16.0162L3.86733 18.8443ZM9.2912 10.591L3.8662 5.16602L1.03777 7.99445L6.46277 13.4194L9.2912 10.591Z" fill="white" mask="url(#path-1-inside-1_1775_19149)"/>
</svg>
