<svg width="35" height="28" viewBox="0 0 35 28" fill="none" xmlns="http://www.w3.org/2000/svg">
<ellipse cx="18.2283" cy="14" rx="16.7459" ry="14" fill="url(#paint0_linear_1775_20197)" fill-opacity="0.15"/>
<path d="M8.81902 17.6168L5.63758 14.3782C5.46629 14.2034 5.23373 14.1052 4.99121 14.1052C4.74869 14.1052 4.51613 14.2034 4.34484 14.3782C3.98727 14.7422 3.98727 15.3302 4.34484 15.6942L8.17723 19.5955C8.5348 19.9595 9.11241 19.9595 9.46998 19.5955L19.1702 9.72082C19.5277 9.35682 19.5277 8.76882 19.1702 8.40482C18.9989 8.23005 18.7663 8.13184 18.5238 8.13184C18.2813 8.13184 18.0487 8.23005 17.8774 8.40482L8.81902 17.6168Z" fill="url(#paint1_linear_1775_20197)" stroke="url(#paint2_linear_1775_20197)"/>
<defs>
<linearGradient id="paint0_linear_1775_20197" x1="29.783" y1="15.1666" x2="6.33874" y2="15.1666" gradientUnits="userSpaceOnUse">
<stop stop-color="#2FEA9B"/>
<stop offset="1" stop-color="#7FDD53"/>
</linearGradient>
<linearGradient id="paint1_linear_1775_20197" x1="17.0573" y1="14.4892" x2="6.3041" y2="14.4892" gradientUnits="userSpaceOnUse">
<stop stop-color="#2FEA9B"/>
<stop offset="1" stop-color="#7FDD53"/>
</linearGradient>
<linearGradient id="paint2_linear_1775_20197" x1="17.0573" y1="14.4892" x2="6.3041" y2="14.4892" gradientUnits="userSpaceOnUse">
<stop stop-color="#2FEA9B"/>
<stop offset="1" stop-color="#7FDD53"/>
</linearGradient>
</defs>
</svg>
