<svg width="40" height="40" viewBox="0 0 40 40" fill="none" xmlns="http://www.w3.org/2000/svg">
<path d="M30.125 2.58984L37.08 9.83984V37.4098H11.0988V37.4998H37.1688V9.93109L30.125 2.58984Z" fill="#909090"/>
<path d="M30.0388 2.5H11.01V37.41H37.08V9.84125L30.0388 2.5Z" fill="#F4F4F4"/>
<path d="M10.8187 4.375H2.83124V12.9087H27.9562V4.375H10.8187Z" fill="#7A7B7C"/>
<path d="M28.09 12.7636H2.99377V4.22363H28.09V12.7636Z" fill="#DD2025"/>
<path d="M11.315 5.66734H9.68127V11.6673H10.9663V9.64359L11.25 9.65984C11.5258 9.65604 11.7991 9.60662 12.0588 9.51359C12.2871 9.43608 12.4969 9.31224 12.675 9.14984C12.8577 8.99664 13.0013 8.8021 13.0938 8.58234C13.2203 8.21823 13.2651 7.83072 13.225 7.44734C13.2179 7.1734 13.1699 6.90207 13.0825 6.64234C13.0038 6.4546 12.8868 6.28536 12.7389 6.14545C12.591 6.00554 12.4156 5.89804 12.2238 5.82984C12.0584 5.7686 11.887 5.72502 11.7125 5.69984C11.5807 5.67837 11.4473 5.6675 11.3138 5.66734M11.0775 8.53484H10.9663V6.68484H11.2075C11.314 6.67716 11.4208 6.69351 11.5201 6.73267C11.6195 6.77183 11.7087 6.8328 11.7813 6.91109C11.9317 7.11236 12.012 7.35734 12.01 7.60859C12.01 7.91609 12.01 8.19484 11.7325 8.39109C11.5327 8.50118 11.3051 8.55195 11.0775 8.53484ZM15.6663 5.65109C15.5275 5.65109 15.3925 5.66109 15.2975 5.66484L15 5.67234H14.025V11.6723H15.1725C15.611 11.6836 16.0475 11.6093 16.4575 11.4536C16.7877 11.3232 17.0799 11.1122 17.3075 10.8398C17.5306 10.5663 17.6899 10.2464 17.7738 9.90359C17.8724 9.516 17.9203 9.11725 17.9163 8.71734C17.9407 8.24503 17.9042 7.77154 17.8075 7.30859C17.715 6.9682 17.5437 6.65434 17.3075 6.39234C17.1223 6.18048 16.8944 6.0101 16.6388 5.89234C16.4198 5.79084 16.1894 5.71613 15.9525 5.66984C15.8583 5.6544 15.763 5.64729 15.6675 5.64859M15.44 10.5698H15.315V6.73984H15.3313C15.589 6.71004 15.8498 6.75655 16.0813 6.87359C16.2509 7.009 16.389 7.17959 16.4863 7.37359C16.5912 7.57776 16.6517 7.80184 16.6638 8.03109C16.675 8.30609 16.6638 8.53109 16.6638 8.71734C16.6684 8.93187 16.6546 9.14641 16.6225 9.35859C16.5832 9.57617 16.512 9.78677 16.4113 9.98359C16.2975 10.1671 16.142 10.3213 15.9575 10.4336C15.8034 10.5336 15.6207 10.5802 15.4375 10.5661M21.7875 5.67234H18.75V11.6723H20.035V9.29234H21.66V8.17734H20.035V6.78734H21.785V5.67234" fill="#464648"/>
<path d="M27.2262 25.3189C27.2262 25.3189 31.2112 24.5964 31.2112 25.9576C31.2112 27.3189 28.7425 26.7651 27.2262 25.3189ZM24.28 25.4226C23.6467 25.5622 23.0297 25.767 22.4387 26.0339L22.9387 24.9089C23.4387 23.7839 23.9575 22.2501 23.9575 22.2501C24.5526 23.2553 25.2469 24.1983 26.03 25.0651C25.4405 25.153 24.8563 25.2731 24.28 25.4251V25.4226ZM22.7025 17.2976C22.7025 16.1114 23.0862 15.7876 23.385 15.7876C23.6837 15.7876 24.02 15.9314 24.0312 16.9614C23.9338 17.9971 23.7169 19.018 23.385 20.0039C22.9288 19.1767 22.6933 18.246 22.7012 17.3014L22.7025 17.2976ZM16.8912 30.4426C15.6687 29.7114 19.455 27.4601 20.1412 27.3876C20.1375 27.3889 18.1712 31.2076 16.8912 30.4426ZM32.375 26.1189C32.3625 25.9939 32.25 24.6101 29.7875 24.6689C28.761 24.6509 27.735 24.7233 26.7212 24.8851C25.7386 23.896 24.8927 22.7799 24.2062 21.5664C24.6385 20.3155 24.9004 19.0121 24.985 17.6914C24.9487 16.1914 24.59 15.3314 23.44 15.3439C22.29 15.3564 22.1225 16.3626 22.2737 17.8601C22.4218 18.8665 22.7012 19.849 23.105 20.7826C23.105 20.7826 22.5737 22.4364 21.8712 24.0814C21.1687 25.7264 20.6887 26.5889 20.6887 26.5889C19.467 26.9861 18.3169 27.577 17.2825 28.3389C16.2525 29.2976 15.8337 30.0339 16.3762 30.7701C16.8437 31.4051 18.48 31.5489 19.9425 29.6326C20.7182 28.6419 21.4281 27.6014 22.0675 26.5176C22.0675 26.5176 24.2975 25.9064 24.9912 25.7389C25.685 25.5714 26.5237 25.4389 26.5237 25.4389C26.5237 25.4389 28.56 27.4876 30.5237 27.4151C32.4875 27.3426 32.3925 26.2414 32.38 26.1214" fill="#DD2025"/>
<path d="M29.9425 2.59668V9.93793H36.9838L29.9425 2.59668Z" fill="#909090"/>
<path d="M30.0388 2.5V9.84125H37.08L30.0388 2.5Z" fill="#F4F4F4"/>
<path d="M11.2188 5.57164H9.58502V11.5716H10.875V9.54914L11.16 9.56539C11.4358 9.56158 11.7091 9.51217 11.9688 9.41914C12.1971 9.34163 12.4069 9.21779 12.585 9.05539C12.7664 8.90177 12.9086 8.70726 13 8.48789C13.1266 8.12378 13.1714 7.73627 13.1313 7.35289C13.1241 7.07895 13.0761 6.80762 12.9888 6.54789C12.9101 6.36015 12.793 6.19091 12.6452 6.051C12.4973 5.91109 12.3218 5.80359 12.13 5.73539C11.9639 5.67355 11.7917 5.62955 11.6163 5.60414C11.4844 5.58267 11.3511 5.5718 11.2175 5.57164M10.9813 8.43914H10.87V6.58914H11.1125C11.219 6.58146 11.3258 6.5978 11.4251 6.63696C11.5245 6.67612 11.6137 6.7371 11.6863 6.81539C11.8367 7.01665 11.917 7.26164 11.915 7.51289C11.915 7.82039 11.915 8.09914 11.6375 8.29539C11.4377 8.40548 11.2101 8.45499 10.9825 8.43789M15.57 5.55539C15.4313 5.55539 15.2963 5.56539 15.2013 5.56914L14.9075 5.57664H13.9325V11.5766H15.08C15.5185 11.5879 15.955 11.5136 16.365 11.3579C16.6952 11.2275 16.9874 11.0165 17.215 10.7441C17.4381 10.4706 17.5974 10.1507 17.6813 9.80789C17.7799 9.42029 17.8278 9.02155 17.8238 8.62163C17.8482 8.14933 17.8117 7.67584 17.715 7.21289C17.6225 6.8725 17.4512 6.55864 17.215 6.29664C17.0298 6.08477 16.8019 5.91439 16.5463 5.79664C16.3273 5.69513 16.0969 5.62043 15.86 5.57414C15.7658 5.5587 15.6705 5.55158 15.575 5.55289M15.3475 10.4741H15.2225V6.64414H15.2388C15.4965 6.61434 15.7573 6.66084 15.9888 6.77789C16.1584 6.91329 16.2965 7.08388 16.3938 7.27789C16.4987 7.48205 16.5592 7.70614 16.5713 7.93539C16.5825 8.21039 16.5713 8.43538 16.5713 8.62163C16.5759 8.83617 16.5621 9.05071 16.53 9.26289C16.4907 9.48047 16.4195 9.69106 16.3188 9.88789C16.205 10.0714 16.0495 10.2256 15.865 10.3379C15.7109 10.4379 15.5282 10.4844 15.345 10.4704M21.6913 5.57664H18.6538V11.5766H19.9388V9.19664H21.5638V8.08164H19.9388V6.69164H21.6888V5.57664" fill="white"/>
</svg>
