<svg width="73" height="64" viewBox="0 0 73 64" fill="none" xmlns="http://www.w3.org/2000/svg">
<g clip-path="url(#clip0_1775_19426)">
<path d="M46.2537 51.1104L46.9456 52.6166C46.3832 52.5296 45.8602 52.996 45.8484 53.5948C45.8367 54.1937 46.3383 54.8167 46.9007 54.9018C46.7932 55.3668 46.3294 55.5718 45.9268 55.7597C45.5241 55.9476 45.0902 56.2593 45.1201 56.7547C45.1442 57.1525 45.483 57.5037 45.8428 57.6449C46.2026 57.7861 46.5801 57.7644 46.9445 57.7407C46.3923 58.3016 46.3385 59.3557 46.8234 60.1119C47.3084 60.8682 48.2769 61.2405 49.002 60.9494C48.4897 61.5682 48.601 62.7014 49.2369 63.34C49.8779 63.9838 50.8069 64.0461 51.619 63.9783C53.6872 63.8086 55.6578 63.0503 57.2843 61.7985C57.9052 61.3195 58.4851 60.7562 58.8393 60.0214C59.1935 59.2867 59.2979 58.3563 58.968 57.5201C59.0569 58.5676 60.1368 59.3949 61.1083 59.4412C62.0797 59.4875 62.9279 58.9563 63.6487 58.3505C64.6072 57.5448 65.4947 56.4155 65.3632 55.0222C65.298 54.3324 64.9877 53.6689 64.6833 53.0263L64.0933 51.7805C63.8551 51.2776 63.6114 50.7661 63.2529 50.3441C62.8944 49.922 62.3967 49.5953 61.8987 49.5984C62.0126 49.0933 62.1269 48.5694 62.0315 48.0328C61.9361 47.4962 61.5707 46.9405 61.0738 46.8149C60.4413 46.6549 59.9053 47.2216 59.2693 47.1682C58.6573 47.1168 58.1515 46.5204 57.5572 46.2841C57.3125 46.1814 57.0423 46.1502 56.7796 46.1943C56.5169 46.2384 56.2732 46.3559 56.0782 46.5325C55.7015 46.8896 55.5445 47.4929 55.6796 48.0637C55.7981 48.5638 56.1133 49.0048 56.3046 49.4871C56.4959 49.9693 56.5255 50.5895 56.1581 50.8528C55.7148 51.1707 55.04 50.7382 54.6936 50.215C54.3472 49.6917 54.1484 49.0582 53.7104 48.6181C53.1934 48.0988 52.3842 47.9771 51.852 48.3386C51.3197 48.7002 51.1162 49.5098 51.3845 50.198C51.6039 50.7607 52.1065 51.33 51.9322 51.8599C51.7479 52.42 50.9418 52.349 50.4556 51.9532C49.9693 51.5574 49.6464 50.9613 49.1661 50.5566C48.6783 50.1456 48.0413 49.9655 47.4821 50.0805C47.1984 50.1444 46.9358 50.2767 46.7187 50.465C46.5015 50.6534 46.3368 50.8919 46.2396 51.1584" fill="#E6E6E6"/>
<path d="M57.4553 46.8777L56.0198 47.5253C55.804 47.6287 55.5593 47.6607 55.3229 47.6165C55.1145 47.5686 54.9737 47.4449 54.9367 47.2769L54.6027 45.7622C54.5396 45.4765 54.7833 45.1384 55.1822 44.9585L55.975 44.6008C56.3739 44.4209 56.7972 44.4581 56.9814 44.6892L57.9584 45.9139C58.0667 46.0497 58.0733 46.234 57.9765 46.4195C57.859 46.6234 57.6759 46.7843 57.4553 46.8777Z" fill="#3F3D56"/>
<path d="M12.9417 18.8824C14.2913 15.2961 16.3975 12.023 19.1252 9.27268C21.4395 6.94015 25.0414 7.03707 25.0414 7.03707L25.0619 7.01228C25.9288 5.97442 27.0921 5.2082 28.4058 4.80977C29.7195 4.41133 31.1251 4.39842 32.4463 4.77265C32.7897 4.86833 33.0539 4.91074 33.1795 4.86812C35.4699 4.08985 35.3623 2.33322 37.3384 0.918095C40.7985 -1.55971 52.2752 1.27857 53.8935 5.83802C55.2051 9.53336 61.0598 11.3245 63.2472 14.1511C63.5892 14.5931 63.9248 15.0402 64.2539 15.4924C64.4083 15.7025 64.5608 15.9142 64.7117 16.1274C66.2614 18.3063 67.6517 20.5882 68.8723 22.9562C69.6727 24.5033 70.3683 26.0994 70.9548 27.7344C73.2359 34.2089 72.4558 39.0327 66.166 37.8409C65.4214 37.6995 64.6947 37.5729 63.9859 37.4613C62.9595 37.2987 61.969 37.165 61.0142 37.0603C59.7285 36.9184 58.5052 36.8254 57.3446 36.7813C56.9543 36.7661 56.5712 36.7558 56.1952 36.7507C50.6365 36.6758 46.5133 37.6916 43.3722 39.2683C42.8397 39.5349 42.3351 39.817 41.8584 40.1145C41.1302 40.5664 40.435 41.0664 39.7776 41.611C38.8678 42.369 38.0288 43.2036 37.2705 44.105L37.2288 44.1546C33.5549 48.5177 32.3457 53.3479 29.7901 54.1984C18.8653 57.8345 11.9559 44.6535 11.2473 31.7596C11.2115 31.1098 11.1918 30.4619 11.188 29.8159C11.1858 29.5272 11.1873 29.2392 11.1924 28.9519C11.2036 28.2026 11.2376 27.4581 11.2946 26.7226C11.3159 26.4414 11.3406 26.1617 11.3687 25.8834C11.3996 25.5834 11.4333 25.2851 11.4722 24.9888C11.7501 22.8162 12.2363 20.7492 12.9417 18.8824Z" fill="#043F35"/>
<path d="M46.803 25.9769C45.9305 26.3712 45.9161 28.1377 46.1897 28.71L46.6855 29.746L49.8457 28.3205L49.35 27.2845C49.0759 26.7124 47.6761 25.5838 46.803 25.9769Z" fill="#3F3D56"/>
<path d="M38.3105 40.8503C38.2549 40.8503 38.2001 40.8373 38.1508 40.8124C38.1015 40.7874 38.0591 40.7513 38.0272 40.7071C37.9954 40.6628 37.975 40.6118 37.9678 40.5582C37.9606 40.5047 37.9667 40.4503 37.9858 40.3996C38.0013 40.3581 38.0251 40.3201 38.0558 40.2876C38.0865 40.2552 38.1236 40.229 38.1648 40.2105L54.4852 32.8486C54.5264 32.8301 54.5709 32.8196 54.6162 32.8177C54.6615 32.8158 54.7068 32.8226 54.7494 32.8378C54.792 32.8529 54.8312 32.876 54.8646 32.9058C54.898 32.9356 54.925 32.9715 54.9442 33.0114C54.9827 33.0921 54.9866 33.1844 54.9552 33.2679C54.9237 33.3514 54.8594 33.4194 54.7764 33.457L38.4559 40.8189C38.4104 40.8396 38.3608 40.8503 38.3105 40.8503Z" fill="#3F3D56"/>
<path d="M51.0768 28.9806L46.4116 31.085L53.7296 46.3771L58.3948 44.2727L51.0768 28.9806Z" fill="#E6E6E6"/>
<path d="M33.5642 9.73076C32.6917 10.1251 32.6774 11.8916 32.9509 12.4639L33.4467 13.4999L36.607 12.0744L36.1112 11.0384C35.8371 10.4663 34.4373 9.33772 33.5642 9.73076Z" fill="#3F3D56"/>
<path d="M53.1128 48.6355L51.6773 49.2831C51.4615 49.3865 51.2167 49.4186 50.9804 49.3743C50.772 49.3264 50.6312 49.2027 50.5942 49.0347L50.2601 47.52C50.1971 47.2343 50.4408 46.8962 50.8397 46.7163L51.6325 46.3587C52.0313 46.1787 52.4547 46.2159 52.6389 46.447L53.6158 47.6717C53.7242 47.8075 53.7307 47.9918 53.634 48.1773C53.5165 48.3812 53.3334 48.5421 53.1128 48.6355Z" fill="#3F3D56"/>
<path d="M48.6992 50.7615L47.2637 51.409C47.0479 51.5125 46.8032 51.5445 46.5668 51.5003C46.3584 51.4524 46.2176 51.3287 46.1806 51.1607L45.8466 49.646C45.7835 49.3603 46.0272 49.0222 46.4261 48.8423L47.2189 48.4846C47.6178 48.3047 48.0411 48.3419 48.2253 48.573L49.2023 49.7977C49.3106 49.9335 49.3172 50.1178 49.2204 50.3033C49.1029 50.5072 48.9198 50.6681 48.6992 50.7615Z" fill="#3F3D56"/>
<path d="M39.0829 15.3361L34.4177 17.4404L49.2102 48.3517L53.8754 46.2473L39.0829 15.3361Z" fill="#E6E6E6"/>
<path d="M43.9234 31.2708L43.3999 30.1525L43.7013 30.0176L44.2231 31.1323L51.78 47.3999L51.479 47.5357" fill="#3F3D56"/>
<path d="M49.8274 30.3412L49.304 29.2228L49.6053 29.0879L50.1272 30.2027L57.6841 46.4702L57.383 46.606" fill="#3F3D56"/>
<path d="M41.2848 17.8099L34.9637 20.6613C34.5612 20.0534 33.3481 16.9384 33.6205 16.0142L33.416 15.1328L37.7806 13.1641L38.3648 13.8618C39.232 14.1201 40.9202 17.0459 41.2848 17.8099Z" fill="#E6E6E6"/>
<path d="M37.9629 13.2021L33.4589 15.2337C33.2927 15.3087 33.1157 15.2812 33.0635 15.1722C33.056 15.1565 33.0514 15.1396 33.0498 15.1224L32.8167 12.708C32.8067 12.6046 32.8978 12.4875 33.037 12.4247L36.0239 11.0774C36.1631 11.0146 36.314 11.0225 36.389 11.0966L38.1391 12.8266C38.2287 12.9151 38.18 13.0666 38.0306 13.1649C38.0091 13.1791 37.9864 13.1915 37.9629 13.2021Z" fill="#E6E6E6"/>
<path d="M41.4957 32.1174C41.447 32.1175 41.3984 32.1119 41.351 32.1008C41.2842 32.0874 41.2214 32.0592 41.1676 32.0186C41.1137 31.978 41.0701 31.926 41.0401 31.8665L38.2865 26.1123C38.1725 25.8741 38.3255 25.5695 38.6275 25.4332L42.6596 23.6144C42.9616 23.4781 43.3001 23.5612 43.4141 23.7993L46.1677 29.5535C46.1952 29.6141 46.2081 29.68 46.2053 29.7462C46.2025 29.8124 46.1842 29.8771 46.1517 29.9353C46.081 30.0672 45.9664 30.1719 45.8266 30.2326L41.7946 32.0513C41.7011 32.0942 41.5991 32.1167 41.4957 32.1174Z" fill="#3F3D56"/>
<path d="M42.047 32.9884L37.3818 35.0928L44.6998 50.3849L49.365 48.2805L42.047 32.9884Z" fill="#E6E6E6"/>
<path d="M36.2995 13.4537L34.9314 14.0708C34.6675 14.1899 34.3113 13.9914 34.1376 13.6285C33.9639 13.2656 34.0374 12.8733 34.3014 12.7542L35.6695 12.1371C35.9335 12.018 36.2897 12.2165 36.4633 12.5794C36.637 12.9423 36.5635 13.3346 36.2995 13.4537Z" fill="#3F3D56"/>
<path d="M37.8643 29.9427C36.9918 30.337 36.9774 32.1035 37.251 32.6758L37.7468 33.7118L40.907 32.2863L40.4112 31.2503C40.1371 30.6782 38.7374 29.5496 37.8643 29.9427Z" fill="#3F3D56"/>
<path d="M23.3713 26.4168C23.0632 26.6162 22.7478 26.1417 23.0618 25.9513C23.37 25.752 23.6853 26.2264 23.3713 26.4168Z" fill="#E6E6E6"/>
<path d="M55.4453 19.6004C55.1371 19.7998 54.8218 19.3253 55.1358 19.1349C55.4439 18.9355 55.7593 19.41 55.4453 19.6004Z" fill="#E6E6E6"/>
<path d="M33.5839 25.0223C33.2758 25.2216 32.9604 24.7472 33.2745 24.5567C33.5826 24.3574 33.898 24.8318 33.5839 25.0223Z" fill="#E6E6E6"/>
<path d="M23.3713 43.6131C23.0632 43.8124 22.7478 43.338 23.0618 43.1476C23.37 42.9482 23.6853 43.4227 23.3713 43.6131Z" fill="#E6E6E6"/>
<path d="M39.0891 4.80453C38.7809 5.00385 38.4656 4.52944 38.7796 4.33897C39.0877 4.13965 39.4031 4.61406 39.0891 4.80453Z" fill="#E6E6E6"/>
<path d="M23.9299 13.9452C23.6218 14.1445 23.3064 13.6701 23.6204 13.4796C23.9286 13.2803 24.2439 13.7547 23.9299 13.9452Z" fill="#E6E6E6"/>
<path d="M45.7336 11.3254L45.5376 11.2836L45.5805 11.0932L45.4498 11.0654L45.4068 11.2558L45.2108 11.2142L45.1821 11.341L45.3782 11.3828L45.3352 11.5731L45.4659 11.6009L45.5089 11.4105L45.705 11.4523L45.7336 11.3254Z" fill="#E6E6E6"/>
<path d="M13.8116 27.1876L13.6155 27.1459L13.6585 26.9555L13.5278 26.9277L13.4848 27.1181L13.2887 27.0764L13.26 27.2033L13.4561 27.245L13.4132 27.4354L13.5439 27.4632L13.5869 27.2728L13.7829 27.3145L13.8116 27.1876Z" fill="#E6E6E6"/>
<path d="M54.0145 35.2797C53.8514 35.3531 53.6649 35.3606 53.4961 35.3007C53.3272 35.2407 53.1897 35.1182 53.1138 34.96L52.3069 33.274C52.2314 33.1157 52.2237 32.9347 52.2855 32.7709C52.3473 32.607 52.4736 32.4737 52.6366 32.4002C52.7996 32.3266 52.9859 32.3189 53.1548 32.3787C53.3236 32.4386 53.4611 32.561 53.537 32.7191L54.3438 34.4051C54.4194 34.5635 54.4272 34.7446 54.3654 34.9085C54.3037 35.0725 54.1775 35.2059 54.0145 35.2797Z" fill="#3F3D56"/>
<path d="M40.2914 41.476C40.1283 41.5494 39.9418 41.5569 39.7729 41.497C39.6041 41.437 39.4666 41.3145 39.3906 41.1563L38.5838 39.4703C38.5083 39.3119 38.5006 39.131 38.5624 38.9671C38.6242 38.8033 38.7504 38.67 38.9134 38.5965C39.0764 38.5229 39.2628 38.5152 39.4316 38.575C39.6004 38.6348 39.7379 38.7573 39.8139 38.9154L40.6207 40.6014C40.6963 40.7598 40.704 40.9408 40.6423 41.1048C40.5806 41.2688 40.4544 41.4022 40.2914 41.476Z" fill="#3F3D56"/>
<path d="M52.7715 31.5952L47.3616 34.0355C47.0171 33.5152 45.9788 30.8493 46.212 30.0583L46.3264 29.1734L49.5566 27.6348L50.2724 28.2161C51.2809 27.8851 52.7633 30.3113 52.7715 31.5952Z" fill="#E6E6E6"/>
<path d="M50.26 31.4264L48.8919 32.0435C48.6279 32.1626 48.2262 31.869 47.9966 31.3891C47.7669 30.9093 47.7949 30.4219 48.0589 30.3028L49.427 29.6857C49.691 29.5666 50.0927 29.8602 50.3223 30.34C50.5519 30.8199 50.524 31.3073 50.26 31.4264Z" fill="#3F3D56"/>
<path d="M38.6575 34.6019L38.134 33.4836L38.4354 33.3486L38.9573 34.4634L46.5142 50.731L46.2131 50.8668" fill="#3F3D56"/>
<path d="M43.833 35.562L38.4231 38.0023C37.6249 37.6022 36.4052 34.9843 37.2735 34.0251L37.3879 33.1402L40.6181 31.6016L41.3339 32.1829C42.0761 32.404 43.521 34.9081 43.833 35.562Z" fill="#E6E6E6"/>
<path d="M41.2098 35.1595L39.8417 35.7766C39.5777 35.8957 39.201 35.6543 39.0021 35.2386C38.8031 34.8229 38.8561 34.3877 39.1201 34.2686L40.4882 33.6515C40.7522 33.5324 41.1289 33.7738 41.3278 34.1895C41.5268 34.6052 41.4738 35.0404 41.2098 35.1595Z" fill="#3F3D56"/>
<path d="M13.7916 23.8459C18.3303 23.8459 22.0096 20.2738 22.0096 15.8673C22.0096 11.4608 18.3303 7.88867 13.7916 7.88867C9.25302 7.88867 5.57373 11.4608 5.57373 15.8673C5.57373 20.2738 9.25302 23.8459 13.7916 23.8459Z" fill="#FF6584"/>
<path opacity="0.3" d="M47.4862 24.1774L52.4802 10.0166L46.9964 24.0079C46.9693 24.0411 46.9507 24.0801 46.9423 24.1217C46.9338 24.1633 46.9356 24.2062 46.9476 24.247C46.9596 24.2877 46.9815 24.3251 47.0114 24.356C47.0412 24.3869 47.0783 24.4104 47.1194 24.4247C47.1605 24.4389 47.2045 24.4434 47.2478 24.4378C47.2911 24.4322 47.3324 24.4167 47.3682 24.3925C47.4041 24.3684 47.4335 24.3363 47.454 24.2988C47.4745 24.2614 47.4855 24.2198 47.4862 24.1774Z" fill="#F0F0F0"/>
<path d="M60.2163 15.7368C59.2386 16.0523 58.1549 16.3621 56.9649 16.6664C50.8098 18.2398 42.5596 19.467 33.7341 20.1222C24.9086 20.7774 16.562 20.7822 10.2321 20.1357C7.14866 19.8208 4.70979 19.3678 2.98333 18.7894C1.15549 18.177 0.195047 17.439 0.128644 16.5961C-0.000668183 14.9539 3.33703 13.5086 6.15979 12.5853L6.23624 12.8055C2.35984 14.0734 0.275569 15.4134 0.367338 16.5784C0.484168 18.0623 4.08889 19.2746 10.2572 19.9046C16.5732 20.5497 24.9043 20.5447 33.7159 19.8906C42.5274 19.2364 50.7624 18.0115 56.904 16.4417C62.9017 14.9087 66.2748 13.1783 66.1579 11.6944C66.0609 10.4624 63.5596 9.40842 59.1147 8.72659L59.152 8.49707C62.3817 8.9925 66.2603 9.94626 66.3966 11.6767C66.463 12.5196 65.6293 13.3907 63.9186 14.2658C62.9434 14.7646 61.7044 15.2567 60.2163 15.7368Z" fill="#3F3D56"/>
<path d="M62.631 29.8876C63.1026 29.8876 63.4849 29.5164 63.4849 29.0585C63.4849 28.6007 63.1026 28.2295 62.631 28.2295C62.1594 28.2295 61.7771 28.6007 61.7771 29.0585C61.7771 29.5164 62.1594 29.8876 62.631 29.8876Z" fill="#FF6584"/>
<path d="M68.0565 52.3524C68.5281 52.3524 68.9104 51.9812 68.9104 51.5234C68.9104 51.0655 68.5281 50.6943 68.0565 50.6943C67.5849 50.6943 67.2026 51.0655 67.2026 51.5234C67.2026 51.9812 67.5849 52.3524 68.0565 52.3524Z" fill="#F2F2F2"/>
<path d="M38.9348 57.3997C39.8543 57.3997 40.5997 56.676 40.5997 55.7833C40.5997 54.8907 39.8543 54.167 38.9348 54.167C38.0154 54.167 37.27 54.8907 37.27 55.7833C37.27 56.676 38.0154 57.3997 38.9348 57.3997Z" fill="#F2F2F2"/>
<path d="M26.2489 36.0077C26.7205 36.0077 27.1028 35.6365 27.1028 35.1786C27.1028 34.7208 26.7205 34.3496 26.2489 34.3496C25.7773 34.3496 25.395 34.7208 25.395 35.1786C25.395 35.6365 25.7773 36.0077 26.2489 36.0077Z" fill="#3F3D56"/>
<path d="M54.9558 37.0869L58.64 38.0128L60.8996 42.3219L57.0795 42.4674L54.9558 37.0869Z" fill="#E6E6E6"/>
<path d="M46.4521 30.875L48.4798 32.8447L53.6297 43.655L52.6816 44.4503L46.4521 30.875Z" fill="#CCCCCC"/>
<path d="M42.0432 32.6602L42.2023 35.4407L47.0632 46.3764L48.3059 46.221L42.0432 32.6602Z" fill="#CCCCCC"/>
<path d="M41.9105 43.8936L39.9263 47.0464L41.389 51.6685L44.2384 49.1938L41.9105 43.8936Z" fill="#E6E6E6"/>
<path d="M59.4381 45.8308C58.4079 45.8308 57.2788 45.793 56.0507 45.7174C49.6986 45.3258 41.4708 43.9642 32.8829 41.8836C24.2949 39.803 16.3728 37.2518 10.576 34.7002C7.75214 33.4571 5.58488 32.2805 4.13444 31.2029C2.5988 30.0622 1.92709 29.0678 2.13789 28.2475C2.54863 26.6496 6.1855 26.3 9.16413 26.2881L9.16514 26.5205C5.07469 26.5368 2.66153 27.1701 2.37016 28.3038C1.99901 29.7477 5.02595 32.0019 10.6748 34.4885C16.4589 37.0346 24.3664 39.5808 32.9408 41.6582C41.5152 43.7354 49.7278 45.0947 56.0659 45.4855C62.2555 45.8672 66.0186 45.2579 66.3897 43.814C66.6978 42.6151 64.6665 40.8491 60.6699 38.841L60.7799 38.6346C63.6839 40.0937 67.0547 42.1864 66.622 43.8702C66.4111 44.6905 65.337 45.2619 63.4293 45.5684C62.3419 45.7432 61.0062 45.8308 59.4381 45.8308Z" fill="#3F3D56"/>
</g>
<defs>
<clipPath id="clip0_1775_19426">
<rect width="72" height="64" fill="white" transform="translate(0.125)"/>
</clipPath>
</defs>
</svg>
