<svg width="146" height="64" viewBox="0 0 146 64" fill="none" xmlns="http://www.w3.org/2000/svg">
<g clip-path="url(#clip0_1775_19325)">
<path d="M43.263 52.6959C42.7645 56.6131 40.9315 60.197 38.9759 63.6494C38.9113 63.7669 38.8448 63.8827 38.7766 64.0002H18.4521C18.041 63.8932 17.6353 63.7757 17.2312 63.6494C14.9356 62.9484 12.7684 61.8791 10.8138 60.483C3.33641 55.0799 0.459118 44.8702 1.75873 35.7218C2.56683 30.038 5.054 24.235 9.89723 21.1738C12.4544 19.5546 15.7392 19.0284 18.6829 19.6301C18.76 19.6441 18.8369 19.6616 18.9156 19.6774C21.4483 20.2493 23.7046 21.6703 24.9885 23.9595C27.2972 28.0733 25.9225 33.1693 24.7874 37.7479C23.6557 42.3265 23.0417 47.8068 26.3265 51.1837C25.242 47.9822 26.3125 44.1632 28.9029 41.9985C30.8602 40.3653 33.5853 39.753 36.0707 40.26C36.3086 40.3109 36.543 40.3688 36.7739 40.4389C37.3319 40.6028 37.8698 40.8288 38.3778 41.1126C42.252 43.2826 43.821 48.2804 43.263 52.6959Z" fill="#F2F2F2"/>
<path d="M31.2114 63.649C31.7746 63.7806 32.3396 63.8964 32.908 63.9999H29.8349C29.4325 63.8911 29.032 63.7753 28.635 63.649C27.7622 63.3754 26.9028 63.0613 26.0568 62.707C22.6636 61.279 19.5379 59.1353 17.1731 56.2829C16.0166 54.901 15.0722 53.3537 14.3711 51.6921C13.6109 49.8141 13.1277 47.8349 12.9369 45.8171C12.5083 41.6771 12.9456 37.423 13.7624 33.3567C14.6054 29.1422 15.9661 25.0487 17.8134 21.17C18.0355 20.7051 18.2652 20.2431 18.5025 19.7841C18.5188 19.7463 18.5435 19.7128 18.5747 19.686C18.6059 19.6593 18.6428 19.64 18.6826 19.6297C18.7633 19.614 18.847 19.6311 18.9152 19.6771C18.9972 19.7242 19.0579 19.8011 19.0849 19.8919C19.1119 19.9826 19.1032 20.0803 19.0604 20.1648C17.1558 23.8901 15.712 27.8347 14.7611 31.9112C13.8307 35.8881 13.3024 40.0492 13.4825 44.1383C13.654 47.959 14.6493 51.7166 16.9073 54.8409C18.9695 57.6934 21.817 59.9423 24.9671 61.4738C26.961 62.4305 29.0555 63.1602 31.2114 63.649Z" fill="white"/>
<path d="M37.9564 64H37.0503C36.9488 63.8842 36.8509 63.7667 36.7547 63.6491C34.691 61.1342 33.2929 58.138 32.6898 54.9375C31.9574 50.9435 32.5271 46.8191 34.3147 43.1753C34.8134 42.1536 35.4011 41.1779 36.0708 40.2598C36.3086 40.3106 36.5431 40.3685 36.7739 40.4387C35.0123 42.7795 33.8274 45.5049 33.316 48.3925C32.8597 51.0982 33.0114 53.872 33.76 56.5114C34.5086 59.1509 35.8353 61.5894 37.6433 63.6491C37.7447 63.7667 37.8496 63.8842 37.9564 64Z" fill="white"/>
<path d="M119.576 61.0169C119.707 62.0507 120.191 62.9965 120.707 63.9077C120.724 63.9387 120.742 63.9693 120.76 64.0003H126.124C126.232 63.972 126.339 63.941 126.446 63.9077C127.052 63.7227 127.624 63.4405 128.14 63.072C130.113 61.646 130.872 58.9515 130.529 56.5371C130.316 55.037 129.66 53.5055 128.382 52.6976C127.687 52.2736 126.859 52.1281 126.063 52.2902C126.043 52.2939 126.022 52.2985 126.001 52.3027C125.67 52.367 125.356 52.5009 125.079 52.6957C124.803 52.8905 124.571 53.1417 124.399 53.4328C123.789 54.5185 124.152 55.8634 124.452 57.0718C124.75 58.2802 124.913 59.7265 124.046 60.6178C124.173 60.245 124.198 59.8451 124.12 59.4591C124.042 59.0731 123.863 58.7148 123.601 58.4213C123.339 58.1277 123.004 57.9094 122.63 57.7887C122.256 57.6681 121.857 57.6495 121.474 57.7348C121.411 57.7482 121.349 57.7635 121.288 57.782C121.141 57.8253 120.999 57.8849 120.865 57.9598C119.843 58.5325 119.428 59.8515 119.576 61.0169Z" fill="#F2F2F2"/>
<path d="M122.756 63.9071C122.608 63.9418 122.459 63.9724 122.309 63.9997H123.12C123.226 63.971 123.332 63.9404 123.436 63.9071C123.667 63.8349 123.893 63.752 124.117 63.6585C125.022 63.2897 125.826 62.7083 126.461 61.963C126.767 61.5983 127.016 61.1899 127.201 60.7514C127.401 60.2558 127.529 59.7335 127.579 59.2009C127.671 58.1 127.598 56.9914 127.361 55.9124C127.139 54.8001 126.78 53.7198 126.292 52.6961C126.234 52.5734 126.173 52.4515 126.11 52.3303C126.106 52.3204 126.1 52.3115 126.091 52.3044C126.083 52.2974 126.073 52.2923 126.063 52.2896C126.042 52.2854 126.02 52.2899 126.002 52.3021C125.98 52.3145 125.964 52.3348 125.957 52.3588C125.95 52.3827 125.952 52.4085 125.963 52.4308C126.466 53.414 126.847 54.455 127.098 55.5309C127.356 56.5861 127.47 57.6718 127.435 58.7579C127.417 59.7679 127.103 60.7503 126.531 61.5825C125.976 62.332 125.246 62.9331 124.404 63.333C123.878 63.5855 123.325 63.7781 122.756 63.9071Z" fill="white"/>
<path d="M120.976 63.9999H121.215C121.242 63.9693 121.268 63.9383 121.293 63.9073C121.838 63.2435 122.207 62.4528 122.366 61.6081C122.56 60.554 122.409 59.4655 121.937 58.5038C121.806 58.2342 121.651 57.9767 121.474 57.7344C121.411 57.7478 121.349 57.7631 121.288 57.7816C121.753 58.3994 122.066 59.1187 122.201 59.8807C122.321 60.5948 122.281 61.3269 122.084 62.0235C121.886 62.7201 121.536 63.3637 121.059 63.9073C121.032 63.9383 121.004 63.9693 120.976 63.9999Z" fill="white"/>
<path d="M71.2276 37.2797H54.4396L54.2617 32.1028C54.254 31.8783 54.2948 31.6549 54.3815 31.4479C54.4681 31.2408 54.5985 31.055 54.7635 30.9034C54.9286 30.7517 55.1245 30.6377 55.3377 30.5692C55.551 30.5007 55.7764 30.4793 55.9987 30.5066L65.7682 31.7064H65.7693C67.2177 31.7103 68.6055 32.2899 69.6286 33.3181C70.6517 34.3463 71.2267 35.7393 71.2276 37.192V37.2797Z" fill="#126456"/>
<path d="M63.7451 18.916H52.0363C51.8806 18.916 51.7264 18.9467 51.5825 19.0065C51.4386 19.0662 51.3079 19.1538 51.1978 19.2642C51.0877 19.3747 51.0003 19.5058 50.9408 19.6501C50.8812 19.7944 50.8505 19.949 50.8506 20.1052V31.8485C50.8505 32.0047 50.8812 32.1593 50.9408 32.3036C51.0003 32.4479 51.0877 32.5791 51.1978 32.6895C51.3079 32.7999 51.4386 32.8875 51.5825 32.9473C51.7264 33.007 51.8806 33.0377 52.0363 33.0377H63.7451C63.9008 33.0377 64.055 33.007 64.1989 32.9473C64.3428 32.8875 64.4735 32.7999 64.5836 32.6895C64.6937 32.5791 64.7811 32.4479 64.8406 32.3036C64.9002 32.1593 64.9309 32.0047 64.9308 31.8485V20.1052C64.9309 19.949 64.9002 19.7944 64.8406 19.6501C64.7811 19.5058 64.6937 19.3747 64.5836 19.2642C64.4735 19.1538 64.3428 19.0662 64.1989 19.0065C64.055 18.9467 63.9008 18.916 63.7451 18.916Z" fill="#CCCCCC"/>
<path d="M61.1079 27.697L55.5796 28.7767C55.2517 28.8404 54.912 28.771 54.635 28.5838C54.3581 28.3965 54.1665 28.1068 54.1022 27.778L53.6773 25.5894C53.6138 25.2605 53.683 24.9198 53.8697 24.642C54.0564 24.3642 54.3453 24.1721 54.6731 24.1077L60.2013 23.0279C60.5292 22.9643 60.8689 23.0337 61.1459 23.2209C61.4229 23.4081 61.6145 23.6979 61.6787 24.0266L62.1036 26.2153C62.1671 26.5442 62.0979 26.8849 61.9113 27.1627C61.7246 27.4404 61.4357 27.6326 61.1079 27.697Z" fill="#3F3D56"/>
<path d="M60.0022 25.1116L55.7833 25.9356C55.7061 25.9507 55.6261 25.9344 55.5609 25.8903C55.4957 25.8462 55.4507 25.778 55.4356 25.7006C55.4206 25.6232 55.4369 25.543 55.4808 25.4776C55.5247 25.4122 55.5928 25.367 55.6699 25.3519L59.8889 24.5279C59.966 24.5129 60.046 24.5292 60.1112 24.5732C60.1764 24.6173 60.2215 24.6855 60.2365 24.7629C60.2515 24.8403 60.2353 24.9205 60.1913 24.9859C60.1474 25.0513 60.0794 25.0965 60.0022 25.1116Z" fill="white"/>
<path d="M59.1818 26.3313L56.9996 26.7575C56.9224 26.7726 56.8424 26.7563 56.7772 26.7122C56.712 26.6682 56.667 26.5999 56.652 26.5225C56.6369 26.4451 56.6532 26.3649 56.6971 26.2995C56.741 26.2341 56.8091 26.1889 56.8863 26.1739L59.0684 25.7477C59.1067 25.7402 59.146 25.7404 59.1841 25.7481C59.2223 25.7559 59.2585 25.7711 59.2908 25.793C59.3231 25.8148 59.3507 25.8428 59.3722 25.8753C59.3937 25.9079 59.4086 25.9443 59.4161 25.9827C59.4235 26.021 59.4234 26.0604 59.4156 26.0987C59.4079 26.1369 59.3927 26.1733 59.3709 26.2056C59.3492 26.238 59.3213 26.2658 59.2888 26.2873C59.2564 26.3089 59.22 26.3238 59.1818 26.3313Z" fill="white"/>
<path d="M64.9308 20.1052V21.666H50.8506V20.1052C50.8505 19.949 50.8812 19.7944 50.9408 19.6501C51.0003 19.5058 51.0877 19.3747 51.1978 19.2642C51.3079 19.1538 51.4386 19.0662 51.5825 19.0065C51.7264 18.9467 51.8806 18.916 52.0363 18.916H63.7451C63.9008 18.916 64.055 18.9467 64.1989 19.0065C64.3428 19.0662 64.4735 19.1538 64.5836 19.2642C64.6937 19.3747 64.7811 19.5058 64.8406 19.6501C64.9002 19.7944 64.9308 19.949 64.9308 20.1052Z" fill="#B3B3B3"/>
<path d="M93.0473 22.1543C92.966 21.8911 92.8282 21.649 92.6435 21.445C92.4588 21.2411 92.2318 21.0802 91.9785 20.9738C91.7251 20.8673 91.4516 20.8179 91.1771 20.8289C90.9026 20.84 90.6339 20.9112 90.3898 21.0377L74.2813 15.2412L73.5718 19.2773L89.6291 23.7059C89.8681 24.103 90.2441 24.3984 90.6857 24.536C91.1274 24.6737 91.604 24.6441 92.0254 24.4528C92.4467 24.2616 92.7834 23.9219 92.9718 23.4983C93.1601 23.0747 93.187 22.5964 93.0473 22.1543Z" fill="#FFB8B8"/>
<path opacity="0.2" d="M93.0473 22.1543C92.966 21.8911 92.8282 21.649 92.6435 21.445C92.4588 21.2411 92.2318 21.0802 91.9785 20.9738C91.7251 20.8673 91.4516 20.8179 91.1771 20.8289C90.9026 20.84 90.6339 20.9112 90.3898 21.0377L74.2813 15.2412L73.5718 19.2773L89.6291 23.7059C89.8681 24.103 90.2441 24.3984 90.6857 24.536C91.1274 24.6737 91.604 24.6441 92.0254 24.4528C92.4467 24.2616 92.7834 23.9219 92.9718 23.4983C93.1601 23.0747 93.187 22.5964 93.0473 22.1543Z" fill="black"/>
<path d="M77.1408 15.9768L75.6197 19.9624C75.5764 20.0758 75.5093 20.1786 75.4228 20.2636C75.3364 20.3486 75.2327 20.414 75.1188 20.4552C75.0049 20.4964 74.8835 20.5125 74.7629 20.5024C74.6422 20.4924 74.5252 20.4563 74.4197 20.3968L70.7227 18.3099C70.1455 18.0844 69.681 17.6387 69.431 17.0703C69.181 16.5019 69.1659 15.8573 69.389 15.2778C69.6121 14.6982 70.0553 14.2311 70.6213 13.9787C71.1873 13.7264 71.83 13.7094 72.4084 13.9315L76.5367 14.8498C76.6549 14.8761 76.766 14.9277 76.8625 15.001C76.9591 15.0743 77.0387 15.1676 77.096 15.2745C77.1534 15.3815 77.1871 15.4996 77.1948 15.6207C77.2025 15.7419 77.1841 15.8633 77.1408 15.9768Z" fill="#126456"/>
<path d="M94.3155 25.8447L88.5435 28.4761L89.3013 31.3374C90.7647 36.8629 91.153 42.6194 90.4451 48.2922L94.6653 49.1762L98.1635 40.2295L96.9391 30.0549L94.3155 25.8447Z" fill="#126456"/>
<path d="M105.641 39.0898C101.848 39.0898 98.7579 41.8549 98.6079 45.3174H112.674C112.524 41.8549 109.433 39.0898 105.641 39.0898Z" fill="#3F3D56"/>
<path d="M102.689 39.6868C102.491 24.0568 93.616 25.4947 93.616 25.4947C93.616 25.4947 93.782 30.3598 93.8618 30.5111C99.5175 41.2435 90.1834 53.8257 78.3018 51.511C78.0778 51.4673 77.8626 51.4231 77.6562 51.3782C76.1507 51.0629 74.8215 50.1844 73.9389 48.9212C73.0563 47.658 72.6866 46.105 72.905 44.5782C74.0755 35.1517 68.2541 35.3185 68.2541 35.3185H59.7419L55.3213 31.3283C55.1653 31.1874 54.9772 31.0871 54.7736 31.036C54.5699 30.9849 54.3569 30.9846 54.1531 31.0351C53.9493 31.0857 53.761 31.1855 53.6046 31.326C53.4482 31.4664 53.3284 31.6431 53.2559 31.8407L52.6871 33.3888C52.6871 33.3888 44.2915 34.2659 44.9911 42.5109H47.5868C47.5805 42.7451 47.5898 42.9796 47.6148 43.2126L66.9862 43.0546C68.1216 43.0454 69.124 43.9682 69.1286 45.107C69.1298 45.3843 69.0752 45.659 68.9681 45.9146C68.861 46.1702 68.7035 46.4015 68.5052 46.5947C68.3069 46.7879 68.0718 46.9389 67.8139 47.0389C67.5561 47.1388 67.2807 47.1856 67.0044 47.1763L63.8814 47.0719C62.9194 51.3698 65.2806 54.2643 67.8824 56.0844C70.332 57.7731 73.2388 58.6685 76.2112 58.65H84.6956C95.7149 58.65 97.6389 49.3524 97.6389 49.3524C103.411 46.8965 102.689 39.6868 102.689 39.6868Z" fill="#043F35"/>
<path d="M105.116 63.7372C110.55 63.7372 114.955 59.3193 114.955 53.8696C114.955 48.4198 110.55 44.002 105.116 44.002C99.6823 44.002 95.2773 48.4198 95.2773 53.8696C95.2773 59.3193 99.6823 63.7372 105.116 63.7372Z" fill="#043F35"/>
<path d="M105.116 56.2882C106.448 56.2882 107.527 55.2054 107.527 53.8697C107.527 52.534 106.448 51.4512 105.116 51.4512C103.784 51.4512 102.705 52.534 102.705 53.8697C102.705 55.2054 103.784 56.2882 105.116 56.2882Z" fill="white"/>
<path d="M55.4416 63.737C61.6964 63.737 66.767 58.6515 66.767 52.3783C66.767 46.105 61.6964 41.0195 55.4416 41.0195C49.1868 41.0195 44.1162 46.105 44.1162 52.3783C44.1162 58.6515 49.1868 63.737 55.4416 63.737Z" fill="#043F35"/>
<path d="M55.4418 55.1618C56.9749 55.1618 58.2177 53.9153 58.2177 52.3778C58.2177 50.8402 56.9749 49.5938 55.4418 49.5938C53.9088 49.5938 52.666 50.8402 52.666 52.3778C52.666 53.9153 53.9088 55.1618 55.4418 55.1618Z" fill="white"/>
<path d="M88.5596 29.2542L86.4828 23.5968C86.3746 23.302 86.3253 22.9886 86.3378 22.6747C86.3503 22.3607 86.4244 22.0523 86.5557 21.7671C86.6871 21.4819 86.8732 21.2254 87.1034 21.0122C87.3335 20.7991 87.6033 20.6336 87.8973 20.525L93.8512 18.3267C94.3685 18.1357 94.9182 18.0487 95.469 18.0707C96.0198 18.0928 96.5608 18.2234 97.0613 18.4551C97.5617 18.6869 98.0118 19.0152 98.3857 19.4214C98.7596 19.8276 99.0501 20.3037 99.2405 20.8225C99.4123 21.2881 99.5 21.7807 99.4996 22.2772C99.4974 22.9076 99.3551 23.5296 99.0832 24.0979C98.8113 24.6663 98.4165 25.1667 97.9275 25.5629C97.5744 25.8471 97.1773 26.0716 96.7521 26.2276L88.5596 29.2542Z" fill="#3F3D56"/>
<path d="M99.4125 22.2772C99.412 22.8948 99.2735 23.5043 99.0071 24.0611C98.7407 24.6179 98.3533 25.1077 97.8733 25.4945C97.1368 25.2997 96.4515 24.9463 95.8649 24.459C95.2784 23.9717 94.8047 23.3621 94.4768 22.6726C94.1489 21.9831 93.9746 21.2303 93.9661 20.4665C93.9576 19.7026 94.1151 18.9461 94.4276 18.2494C95.0275 18.1186 95.6491 18.1242 96.2466 18.2658C96.8441 18.4073 97.4024 18.6813 97.8805 19.0676C98.3586 19.454 98.7444 19.9427 99.0095 20.4981C99.2746 21.0535 99.4123 21.6614 99.4125 22.2772Z" fill="#126456"/>
<path d="M46.4775 43.651C47.8299 43.651 48.9263 42.3158 48.9263 40.6687C48.9263 39.0217 47.8299 37.6865 46.4775 37.6865C45.1251 37.6865 44.0288 39.0217 44.0288 40.6687C44.0288 42.3158 45.1251 43.651 46.4775 43.651Z" fill="#126456"/>
<path d="M78.8465 51.2245H80.9909L82.0112 45.6465L78.8462 45.6467L78.8465 51.2245Z" fill="#FFB8B8"/>
<path d="M78.2998 50.5226L82.5228 50.5225H82.523C82.8764 50.5225 83.2263 50.5923 83.5529 50.7279C83.8794 50.8635 84.1761 51.0624 84.426 51.313C84.6759 51.5636 84.8741 51.8612 85.0094 52.1887C85.1446 52.5161 85.2142 52.8671 85.2142 53.2216V53.3093L78.2999 53.3096L78.2998 50.5226Z" fill="#2F2E41"/>
<path d="M81.3357 48.9353C81.3107 48.9353 81.2856 48.9341 81.2604 48.9317L78.2928 48.715C78.1728 48.7038 78.057 48.6652 77.9542 48.602C77.8514 48.5388 77.7645 48.4528 77.7001 48.3506C77.6358 48.2484 77.5956 48.1328 77.5829 48.0126C77.5701 47.8924 77.5851 47.7708 77.6265 47.6573L81.5981 38.7081C81.6265 38.6283 81.6381 38.5435 81.6322 38.459C81.6263 38.3745 81.603 38.2921 81.5638 38.2171C81.5247 38.1412 81.47 38.0744 81.4034 38.0212C81.3367 37.968 81.2596 37.9296 81.177 37.9084C79.3095 37.4188 74.5179 36.1151 70.37 34.5897C68.5929 33.9362 67.4737 32.9917 67.0434 31.7826C66.4762 30.1885 67.3154 28.7348 67.3514 28.6738L67.3795 28.626L71.2826 28.9818L75.5138 29.3428L84.7864 34.3297C85.5633 34.7511 86.1535 35.4506 86.4394 36.2888C86.7252 37.127 86.6857 38.0425 86.3288 38.8529L82.0539 48.4675C81.992 48.6067 81.8913 48.725 81.7638 48.808C81.6364 48.8911 81.4877 48.9353 81.3357 48.9353Z" fill="#2F2E41"/>
<path d="M71.9615 11.2764C74.3341 11.2764 76.2574 9.34737 76.2574 6.96779C76.2574 4.58821 74.3341 2.65918 71.9615 2.65918C69.5889 2.65918 67.6655 4.58821 67.6655 6.96779C67.6655 9.34737 69.5889 11.2764 71.9615 11.2764Z" fill="#FFB8B8"/>
<path d="M77.6224 51.7508H79.7668L80.7871 46.1729L77.6221 46.173L77.6224 51.7508Z" fill="#FFB8B8"/>
<path d="M77.0752 51.049L81.2982 51.0488H81.2984C81.6518 51.0488 82.0017 51.1186 82.3282 51.2543C82.6548 51.3899 82.9514 51.5887 83.2014 51.8394C83.4513 52.09 83.6495 52.3876 83.7847 52.715C83.92 53.0425 83.9896 53.3935 83.9896 53.748V53.8357L77.0753 53.8359L77.0752 51.049Z" fill="#2F2E41"/>
<path d="M80.1115 49.4617C80.0866 49.4617 80.0615 49.4605 80.0363 49.4581L77.0687 49.2414C76.9487 49.2302 76.8328 49.1915 76.7301 49.1284C76.6273 49.0652 76.5404 48.9792 76.476 48.877C76.4116 48.7748 76.3715 48.6591 76.3588 48.5389C76.346 48.4187 76.3609 48.2972 76.4024 48.1837L80.374 39.2345C80.4024 39.1547 80.414 39.0699 80.4081 38.9854C80.4022 38.9009 80.3789 38.8185 80.3397 38.7435C80.3006 38.6676 80.2459 38.6008 80.1792 38.5476C80.1126 38.4944 80.0355 38.4559 79.9529 38.4348C78.0854 37.9452 73.2938 36.6415 69.1459 35.1161C67.3688 34.4625 66.2496 33.5181 65.8193 32.309C65.2521 30.7149 66.0912 29.2611 66.1272 29.2001L66.1554 29.1523L70.0584 29.5082L74.2897 29.8691L83.5623 34.856C84.3392 35.2775 84.9294 35.9769 85.2153 36.8152C85.5011 37.6534 85.4616 38.5689 85.1047 39.3792L80.8298 48.9938C80.7679 49.1331 80.6672 49.2514 80.5397 49.3344C80.4123 49.4174 80.2635 49.4616 80.1115 49.4617Z" fill="#2F2E41"/>
<path d="M73.286 13.7194L68.7383 12.1406C68.7383 12.1406 65.8835 14.3404 67.2549 19.7977C67.9709 22.6138 67.7624 25.5864 66.6602 28.2742C66.5275 28.6068 66.3745 28.9308 66.2021 29.2445C66.2021 29.2445 71.2745 35.3844 75.9971 30.8233L74.1605 21.9644C74.1605 21.9644 77.0465 16.0877 73.286 13.7194Z" fill="#126456"/>
<path d="M72.4947 11.423C71.8832 10.5052 71.4007 9.23242 72.0739 8.35909C72.7384 7.49703 74.049 7.62403 75.0667 7.24258C76.4841 6.71127 77.3062 5.04112 77.0498 3.54539C76.7935 2.04966 75.5963 0.809744 74.1701 0.302411C72.744 -0.204923 71.1357 -0.039926 69.7391 0.544299C68.0199 1.26349 66.5451 2.65471 65.9266 4.41702C65.3082 6.17933 65.6388 8.29532 66.9218 9.64987C68.2972 11.1021 70.4559 11.4891 72.4529 11.4656" fill="#2F2E41"/>
<path d="M68.4987 3.59304C67.7283 4.22209 66.5528 3.94269 65.7258 3.39062C64.8987 2.83855 64.2277 2.05243 63.3328 1.61959C61.7553 0.856501 59.848 1.36378 58.3126 2.20904C56.7773 3.05429 55.4163 4.22203 53.7945 4.88534C52.1727 5.54865 50.1032 5.58144 48.8752 4.32896C48.573 5.20711 48.5483 6.15738 48.8045 7.05013C49.0606 7.94288 49.5852 8.73461 50.3066 9.31732C51.0279 9.90002 51.911 10.2453 52.8353 10.3061C53.7595 10.3669 54.68 10.1401 55.4711 9.65686C57.248 8.57127 58.2296 6.29508 60.2226 5.69589C61.3255 5.36433 62.5098 5.63137 63.6245 5.92062C64.7391 6.20986 65.9014 6.5224 67.0263 6.27616C68.1512 6.02993 69.2034 5.01607 69.0603 3.87026L68.4987 3.59304Z" fill="#2F2E41"/>
<path d="M92.834 21.9794C92.7209 21.7283 92.5543 21.5051 92.346 21.3256C92.1377 21.146 91.8926 21.0145 91.6281 20.9402C91.3635 20.8659 91.086 20.8507 90.815 20.8956C90.544 20.9406 90.2861 21.0445 90.0594 21.2003L73.3609 17.4414L73.1533 21.5344L89.6327 23.9422C89.9188 24.3067 90.3282 24.5533 90.7834 24.6352C91.2386 24.7172 91.708 24.6288 92.1026 24.3869C92.4972 24.1449 92.7896 23.7662 92.9244 23.3225C93.0592 22.8788 93.027 22.4009 92.834 21.9794Z" fill="#FFB8B8"/>
<path d="M76.2885 17.8175L75.2693 21.9609C75.2403 22.0788 75.1863 22.1891 75.111 22.2841C75.0357 22.3792 74.9408 22.4569 74.8329 22.5119C74.7249 22.5669 74.6064 22.5979 74.4854 22.6028C74.3645 22.6078 74.2439 22.5865 74.1318 22.5404L70.2064 20.927C69.6055 20.775 69.0892 20.3903 68.7709 19.857C68.4525 19.3238 68.3581 18.6857 68.5082 18.0827C68.6584 17.4797 69.041 16.961 69.572 16.6406C70.103 16.3202 70.7391 16.2241 71.3406 16.3735L75.5503 16.7739C75.6708 16.7854 75.7874 16.8228 75.8922 16.8836C75.9971 16.9444 76.0876 17.0271 76.1576 17.1261C76.2277 17.2252 76.2756 17.3382 76.2982 17.4575C76.3208 17.5768 76.3175 17.6996 76.2885 17.8175Z" fill="#126456"/>
<path d="M90.9045 25.2313C91.5807 25.2313 92.1289 24.6816 92.1289 24.0034C92.1289 23.3252 91.5807 22.7754 90.9045 22.7754C90.2283 22.7754 89.6802 23.3252 89.6802 24.0034C89.6802 24.6816 90.2283 25.2313 90.9045 25.2313Z" fill="#126456"/>
<path d="M145.125 63.8248C145.125 63.8713 145.106 63.9159 145.074 63.9487C145.041 63.9816 144.996 64.0001 144.95 64.0003H0.29991C0.253521 64.0003 0.209032 63.9818 0.17623 63.9489C0.143428 63.916 0.125 63.8714 0.125 63.8248C0.125 63.7783 0.143428 63.7337 0.17623 63.7008C0.209032 63.6679 0.253521 63.6494 0.29991 63.6494H144.95C144.996 63.6496 145.041 63.6681 145.074 63.701C145.106 63.7338 145.125 63.7784 145.125 63.8248Z" fill="#3F3D56"/>
</g>
<defs>
<clipPath id="clip0_1775_19325">
<rect width="145" height="64" fill="white" transform="translate(0.125)"/>
</clipPath>
</defs>
</svg>
