<svg width="74" height="64" viewBox="0 0 74 64" fill="none" xmlns="http://www.w3.org/2000/svg">
<g clip-path="url(#clip0_1932_156993)">
<path d="M4.39741 21.8094L0.877532 19.8235C0.830053 17.6987 1.30107 15.5944 2.24967 13.6934C3.0612 17.3831 7.33197 19.1385 9.30245 22.3601C9.90934 23.3696 10.2817 24.5029 10.3919 25.6762C10.5021 26.8494 10.3473 28.0324 9.939 29.1376L10.1705 31.9983C8.3513 31.4525 6.67186 30.5181 5.24787 29.2595C3.82389 28.0009 2.68922 26.448 1.92205 24.7078C1.50132 23.7273 1.20553 22.6976 1.04165 21.643C2.68277 21.818 4.39741 21.8094 4.39741 21.8094Z" fill="#F2F2F2"/>
<path d="M67.673 57.9392L67.7809 55.5081C68.9061 54.9056 70.161 54.5874 71.4368 54.5811C69.6809 56.0191 69.9004 58.7912 68.7099 60.725C68.334 61.3253 67.8281 61.8331 67.2296 62.2109C66.6311 62.5887 65.9555 62.8268 65.2527 62.9074L63.7833 63.8086C63.5817 62.6827 63.6261 61.5263 63.9136 60.4192C64.2011 59.3121 64.7247 58.2806 65.4484 57.3958C65.8594 56.9034 66.3306 56.4648 66.8509 56.0904C67.2028 57.0199 67.673 57.9392 67.673 57.9392Z" fill="#F2F2F2"/>
<path d="M63.8871 62.5579L62.5565 62.5578L61.9236 57.417L63.8873 57.4171L63.8871 62.5579Z" fill="#FFB6B6"/>
<path d="M64.2264 63.8501L59.9363 63.8499V63.7956C59.9363 63.352 60.1122 62.9265 60.4254 62.6128C60.7385 62.2992 61.1632 62.1229 61.6061 62.1229L62.3899 61.5273L63.852 62.123L64.2265 62.123L64.2264 63.8501Z" fill="#2F2E41"/>
<path d="M57.7056 62.5579L56.3751 62.5578L55.7422 57.417L57.7059 57.4171L57.7056 62.5579Z" fill="#FFB6B6"/>
<path d="M58.045 63.8501L53.7549 63.8499V63.7956C53.7549 63.352 53.9309 62.9265 54.244 62.6128C54.5571 62.2992 54.9819 62.1229 55.4247 62.1229L56.2085 61.5273L57.6706 62.123L58.0451 62.123L58.045 63.8501Z" fill="#2F2E41"/>
<path d="M57.13 34.4521L65.7841 34.6689C67.4278 35.5632 67.4527 37.4987 66.9142 39.7967C66.9142 39.7967 67.096 41.1626 66.7324 41.5268C66.3688 41.8911 66.187 41.8911 66.3688 42.5285C66.5506 43.1659 65.59 44.207 65.7067 44.3238C65.8234 44.4407 66.0961 45.0781 66.0961 45.0781L65.1871 50.2685C65.1871 50.2685 64.5507 59.2833 64.3689 59.4654C64.1871 59.6475 64.0053 59.4654 64.1871 59.9207C64.3689 60.376 64.5507 60.1938 64.3689 60.376C64.2079 60.5499 64.0562 60.7323 63.9144 60.9223H61.7167C61.7167 60.9223 61.551 60.0117 61.551 59.9207C61.551 59.8296 61.3692 59.2833 61.3692 59.1922C61.3692 59.1011 61.5299 58.9402 61.5299 58.9402C61.5854 58.7551 61.6229 58.565 61.6419 58.3727C61.6419 58.1905 62.1873 51.179 62.1873 51.179L61.0965 42.0732L58.4604 50.9969C58.4604 50.9969 58.4604 58.828 58.2786 59.0101C58.0968 59.1922 58.0968 59.1011 58.1877 59.4654C58.2786 59.8296 58.6422 59.7385 58.3695 60.0117C58.0968 60.2849 58.0059 59.8296 58.0968 60.2849L58.1877 60.7402L55.4606 60.7793C55.4606 60.7793 55.097 60.0117 55.2788 59.7385C55.4606 59.4654 55.4497 59.5399 55.2279 59.0929C55.0061 58.6458 54.9152 58.5548 55.0061 58.4637C55.097 58.3727 55.097 57.8883 55.097 57.8883L55.5515 49.1757C55.5515 49.1757 55.6424 39.9788 55.6424 39.7057C55.6493 39.5651 55.6234 39.4249 55.5669 39.296V38.9252L55.9151 37.6113L57.13 34.4521Z" fill="#2F2E41"/>
<path d="M62.3286 16.4262C63.8136 16.4262 65.0175 15.2202 65.0175 13.7326C65.0175 12.245 63.8136 11.0391 62.3286 11.0391C60.8435 11.0391 59.6396 12.245 59.6396 13.7326C59.6396 15.2202 60.8435 16.4262 62.3286 16.4262Z" fill="#FFB6B6"/>
<path d="M60.9841 18.2066C60.4048 18.5516 60.0583 19.1855 59.8594 19.8305C59.4911 21.0246 59.2694 22.2593 59.1992 23.5072L58.9891 27.2431L56.387 35.1979C58.6422 37.1094 67.1192 35.6323 67.1192 35.6323C67.1192 35.6323 67.3794 35.5454 67.1192 35.2848C66.859 35.0241 66.6056 35.255 66.8658 34.9944C67.1261 34.7337 66.9467 35.0241 66.8599 34.7634C66.7732 34.5027 66.8599 34.6765 66.9467 34.5896C67.0334 34.5027 66.2752 33.7207 66.2752 33.7207L66.9691 29.1546L67.8365 19.9444C66.7956 18.641 64.7023 17.8727 64.7023 17.8727L64.1614 16.8975L61.457 17.1142L60.9841 18.2066Z" fill="#E6E6E6"/>
<path d="M60.6153 12.1518C60.7193 12.1526 60.8229 12.1662 60.9236 12.1923C61.1222 12.2401 61.3239 12.274 61.5272 12.2937C62.1496 12.3523 62.7345 12.6183 63.1885 13.049C63.6424 13.4797 63.9391 14.0504 64.0312 14.6699C64.1875 14.5334 64.543 14.2824 64.8344 14.5157C64.8389 14.5194 64.8415 14.5213 64.8517 14.5164C65.0452 14.4245 65.3888 13.2924 65.3992 12.2957C65.4047 11.7667 65.3215 11.0912 64.8944 10.8773L64.8719 10.866L64.866 10.8415C64.8375 10.7225 64.5187 10.5194 63.9646 10.3613C62.9576 10.0739 61.4566 9.51425 60.6113 10.3379C60.5474 10.6156 60.3393 11.2099 60.129 11.2772C59.8963 11.3518 59.6952 11.4161 59.6635 11.7022C59.6371 12.1092 59.639 12.5176 59.6693 12.9244C59.7482 12.6755 59.903 12.4576 60.112 12.3015C60.2606 12.2013 60.4362 12.149 60.6153 12.1518Z" fill="#2F2E41"/>
<path d="M55.6105 27.0353L60.0028 24.2174L57.7905 21.2715L55.606 23.9633L48.7997 24.3814C48.6206 24.2042 48.394 24.0829 48.1474 24.0324C47.9007 23.982 47.6448 24.0045 47.4107 24.0972C47.1766 24.1899 46.9745 24.3489 46.8291 24.5547C46.6836 24.7605 46.6011 25.0042 46.5915 25.2562C46.582 25.5082 46.6458 25.7575 46.7752 25.9738C46.9047 26.1901 47.0942 26.3639 47.3206 26.4742C47.5469 26.5844 47.8005 26.6263 48.0502 26.5947C48.3 26.5632 48.5351 26.4595 48.7271 26.2963L55.6105 27.0353Z" fill="#FFB6B6"/>
<path d="M64.0795 20.2835C64.3345 21.829 59.5203 24.7801 59.5203 24.7801C59.5203 24.4174 56.6469 27.1559 56.5173 26.855C56.1486 26 55.8895 23.9748 55.3744 23.6507C55.0799 23.4653 57.1484 21.7239 57.1484 21.7239C57.1484 21.7239 58.2313 20.6311 59.6522 19.2528C60.0467 18.8557 60.5351 18.565 61.0719 18.4078C61.6088 18.2506 62.1766 18.232 62.7225 18.3538C62.7225 18.3538 63.8246 18.738 64.0795 20.2835Z" fill="#E6E6E6"/>
<path d="M73.1329 27.7748L70.2276 23.4355L67.3342 25.7135L70.067 27.8443L70.6285 34.6521C70.4554 34.8352 70.3391 35.0647 70.294 35.3128C70.2488 35.5609 70.2767 35.8167 70.3742 36.0492C70.4717 36.2817 70.6347 36.4807 70.8431 36.622C71.0516 36.7633 71.2966 36.8408 71.5483 36.8451C71.8 36.8493 72.0475 36.7801 72.2606 36.6459C72.4737 36.5116 72.6432 36.3182 72.7484 36.0891C72.8537 35.8601 72.8901 35.6053 72.8533 35.3558C72.8165 35.1064 72.7081 34.873 72.5412 34.6843L73.1329 27.7748Z" fill="#FFB6B6"/>
<path d="M66.2156 19.4354C67.7526 19.1474 70.8 23.9063 70.8 23.9063C70.4379 23.914 73.2319 26.7337 72.9344 26.8699C72.0888 27.2572 70.0731 27.5596 69.7605 28.0824C69.5817 28.3813 67.7999 26.3464 67.7999 26.3464C67.7999 26.3464 66.6864 25.2852 65.2806 23.8912C64.8759 23.5046 64.5755 23.0216 64.4072 22.4873C64.239 21.953 64.2084 21.3847 64.3184 20.8354C64.3184 20.8354 64.6785 19.7235 66.2156 19.4354Z" fill="#E6E6E6"/>
<path d="M73.8751 63.8711C73.8752 63.8881 73.8719 63.9049 73.8654 63.9206C73.859 63.9362 73.8495 63.9505 73.8375 63.9624C73.8255 63.9744 73.8113 63.9839 73.7957 63.9904C73.78 63.9968 73.7633 64.0001 73.7464 64.0001H43.4254C43.3912 64.0001 43.3585 63.9865 43.3343 63.9623C43.3102 63.9381 43.2966 63.9053 43.2966 63.8711C43.2966 63.8369 43.3102 63.8041 43.3343 63.78C43.3585 63.7558 43.3912 63.7422 43.4254 63.7422H73.7464C73.7633 63.7421 73.78 63.7454 73.7957 63.7519C73.8113 63.7584 73.8255 63.7679 73.8375 63.7798C73.8495 63.7918 73.859 63.8061 73.8654 63.8217C73.8719 63.8374 73.8752 63.8542 73.8751 63.8711Z" fill="#CCCCCC"/>
<path d="M45.786 24.793H8.98735C8.41242 24.7936 7.86123 25.0227 7.4547 25.4299C7.04817 25.8372 6.8195 26.3893 6.81885 26.9652V49.9156C6.8195 50.4915 7.04818 51.0436 7.45471 51.4509C7.86124 51.8581 8.41242 52.0872 8.98735 52.0878H45.786C46.3609 52.0872 46.9121 51.8581 47.3186 51.4509C47.7252 51.0436 47.9539 50.4915 47.9545 49.9156V26.9652C47.9539 26.3893 47.7252 25.8372 47.3187 25.4299C46.9121 25.0227 46.3609 24.7936 45.786 24.793Z" fill="#126456"/>
<path d="M45.786 24.793H8.98735C8.41242 24.7936 7.86123 25.0227 7.4547 25.4299C7.04817 25.8372 6.8195 26.3893 6.81885 26.9652V49.9156C6.8195 50.4915 7.04818 51.0436 7.45471 51.4509C7.86124 51.8581 8.41242 52.0872 8.98735 52.0878H45.786C46.3609 52.0872 46.9121 51.8581 47.3186 51.4509C47.7252 51.0436 47.9539 50.4915 47.9545 49.9156V26.9652C47.9539 26.3893 47.7252 25.8372 47.3187 25.4299C46.9121 25.0227 46.3609 24.7936 45.786 24.793ZM46.4977 41.2785C46.4889 43.615 45.5662 45.8549 43.9278 47.5178C42.2893 49.1807 40.0654 50.1341 37.7333 50.1735C33.9994 50.2222 39.7992 50.2411 35.2959 50.2411C24.9982 50.2411 14.2606 50.1426 10.2542 50.0786C9.72712 50.0678 9.22514 49.8509 8.85547 49.4743C8.48581 49.0978 8.27775 48.5913 8.27571 48.0632V26.9669C8.27592 26.7778 8.35089 26.5965 8.48422 26.4626C8.61756 26.3287 8.7984 26.2531 8.9872 26.2524H45.7845C45.9733 26.2527 46.1543 26.3277 46.2879 26.4613C46.4216 26.5948 46.497 26.7759 46.4977 26.965V41.2785Z" fill="#3F3D56"/>
<path d="M41.2563 11.5771H13.2196C12.9715 11.5775 12.7296 11.6545 12.5269 11.7978C12.3242 11.941 12.1705 12.1433 12.0869 12.3773L7.75681 24.5466C7.69218 24.7283 7.67203 24.9228 7.69805 25.1138C7.72406 25.3049 7.79548 25.4869 7.90631 25.6446C8.01713 25.8023 8.16412 25.931 8.33492 26.0199C8.50572 26.1088 8.69535 26.1554 8.88784 26.1557L46.4897 26.2225H46.4914C46.6903 26.2225 46.8862 26.1731 47.0614 26.0785C47.2366 25.984 47.3857 25.8475 47.4952 25.681C47.6048 25.5146 47.6714 25.3236 47.6891 25.125C47.7068 24.9265 47.675 24.7266 47.5966 24.5434L42.3616 12.3072C42.2691 12.0904 42.115 11.9057 41.9185 11.7759C41.722 11.6461 41.4917 11.577 41.2563 11.5771Z" fill="#3F3D56"/>
<path d="M47.6938 24.8075C47.6937 24.9707 47.6605 25.1322 47.5964 25.2822L42.3617 34.7012C42.2685 34.9176 42.1142 35.1019 41.9178 35.2314C41.7213 35.361 41.4914 35.4302 41.2562 35.4305H13.2199C12.9717 35.4303 12.7297 35.3534 12.5268 35.2102C12.3239 35.0671 12.17 34.8648 12.0862 34.6308L7.7569 25.2789C7.70383 25.1299 7.6806 24.9719 7.68853 24.814C7.69646 24.656 7.73539 24.5011 7.8031 24.3582C7.87082 24.2153 7.96598 24.0871 8.08316 23.9811C8.20034 23.875 8.33723 23.7932 8.48601 23.7402C8.61472 23.6936 8.75051 23.6698 8.88735 23.6697L13.4806 23.6611L15.3553 23.6578L40.024 23.6145L41.8998 23.6112L46.4898 23.6025H46.4909C46.8099 23.6026 47.1158 23.7296 47.3414 23.9555C47.567 24.1815 47.6937 24.488 47.6938 24.8075Z" fill="#3F3D56"/>
<path d="M11.7462 42.0088C12.3021 42.0088 19.9367 42.4762 19.9367 43.0331C19.9367 43.59 12.3021 44.0256 11.7462 44.0256C11.4792 44.0256 11.2231 43.9193 11.0343 43.7302C10.8456 43.5411 10.7395 43.2846 10.7395 43.0172C10.7395 42.7497 10.8456 42.4933 11.0343 42.3041C11.2231 42.115 11.4792 42.0088 11.7462 42.0088Z" fill="#3F3D56"/>
<path d="M39.5103 4.17383H15.8703C15.2368 4.17456 14.6294 4.427 14.1814 4.87576C13.7334 5.32452 13.4814 5.93296 13.4807 6.5676V35.4305H41.2563C41.4844 35.4312 41.7078 35.3662 41.9 35.243V6.5676C41.8992 5.93296 41.6472 5.32452 41.1992 4.87576C40.7513 4.427 40.1439 4.17456 39.5103 4.17383Z" fill="#E6E6E6"/>
<path d="M30.4873 6.11523H17.532C16.9551 6.1158 16.402 6.34554 15.994 6.75407C15.5859 7.1626 15.3563 7.71656 15.3555 8.29445V35.4311H40.0242V15.6687C40.0213 13.1358 39.0156 10.7076 37.2277 8.9166C35.4398 7.12561 33.0158 6.11816 30.4873 6.11523Z" fill="white"/>
<path d="M35.8215 33.0205H19.5581C19.4176 33.0205 19.2827 33.0765 19.1833 33.176C19.0839 33.2756 19.0281 33.4107 19.0281 33.5515C19.0281 33.6923 19.0839 33.8274 19.1833 33.927C19.2827 34.0265 19.4176 34.0825 19.5581 34.0825H35.8215C35.9621 34.0825 36.0969 34.0265 36.1963 33.927C36.2957 33.8274 36.3516 33.6923 36.3516 33.5515C36.3516 33.4107 36.2957 33.2756 36.1963 33.176C36.0969 33.0765 35.9621 33.0205 35.8215 33.0205Z" fill="#E4E4E4"/>
<path d="M35.8213 30.9209H19.558C19.4172 30.9209 19.2823 30.9769 19.1828 31.0766C19.0832 31.1763 19.0273 31.3115 19.0273 31.4524C19.0273 31.5934 19.0832 31.7286 19.1828 31.8283C19.2823 31.928 19.4172 31.984 19.558 31.984H35.8213C35.9621 31.984 36.097 31.928 36.1965 31.8283C36.296 31.7286 36.3519 31.5934 36.3519 31.4524C36.3519 31.3115 36.296 31.1763 36.1965 31.0766C36.097 30.9769 35.9621 30.9209 35.8213 30.9209Z" fill="#E4E4E4"/>
<path d="M26.6081 28.8223H19.5581C19.4176 28.8223 19.2827 28.8782 19.1833 28.9778C19.0839 29.0774 19.0281 29.2124 19.0281 29.3533C19.0281 29.4941 19.0839 29.6291 19.1833 29.7287C19.2827 29.8283 19.4176 29.8842 19.5581 29.8842H26.6081C26.7486 29.8842 26.8835 29.8283 26.9829 29.7287C27.0823 29.6291 27.1381 29.4941 27.1381 29.3533C27.1381 29.2124 27.0823 29.0774 26.9829 28.9778C26.8835 28.8782 26.7486 28.8223 26.6081 28.8223Z" fill="#E4E4E4"/>
<path d="M35.8213 24.4248H19.558C19.4172 24.4248 19.2823 24.4808 19.1828 24.5805C19.0832 24.6802 19.0273 24.8154 19.0273 24.9563C19.0273 25.0973 19.0832 25.2325 19.1828 25.3322C19.2823 25.4319 19.4172 25.4879 19.558 25.4879H35.8213C35.9621 25.4879 36.097 25.4319 36.1965 25.3322C36.296 25.2325 36.3519 25.0973 36.3519 24.9563C36.3519 24.8154 36.296 24.6802 36.1965 24.5805C36.097 24.4808 35.9621 24.4248 35.8213 24.4248Z" fill="#E4E4E4"/>
<path d="M35.8215 22.3252H19.5581C19.4176 22.3252 19.2827 22.3811 19.1833 22.4807C19.0839 22.5803 19.0281 22.7154 19.0281 22.8562C19.0281 22.997 19.0839 23.1321 19.1833 23.2316C19.2827 23.3312 19.4176 23.3872 19.5581 23.3872H35.8215C35.9621 23.3872 36.0969 23.3312 36.1963 23.2316C36.2957 23.1321 36.3516 22.997 36.3516 22.8562C36.3516 22.7154 36.2957 22.5803 36.1963 22.4807C36.0969 22.3811 35.9621 22.3252 35.8215 22.3252Z" fill="#E4E4E4"/>
<path d="M26.6079 20.2256H19.558C19.4172 20.2256 19.2823 20.2816 19.1828 20.3813C19.0832 20.4809 19.0273 20.6161 19.0273 20.7571C19.0273 20.8981 19.0832 21.0333 19.1828 21.133C19.2823 21.2326 19.4172 21.2886 19.558 21.2886H26.6079C26.7486 21.2886 26.8836 21.2326 26.9831 21.133C27.0826 21.0333 27.1385 20.8981 27.1385 20.7571C27.1385 20.6161 27.0826 20.4809 26.9831 20.3813C26.8836 20.2816 26.7486 20.2256 26.6079 20.2256Z" fill="#E4E4E4"/>
<path d="M35.8213 15.8281H19.558C19.4172 15.8281 19.2823 15.8841 19.1828 15.9838C19.0832 16.0835 19.0273 16.2187 19.0273 16.3597C19.0273 16.5006 19.0832 16.6358 19.1828 16.7355C19.2823 16.8352 19.4172 16.8912 19.558 16.8912H35.8213C35.9621 16.8912 36.097 16.8352 36.1965 16.7355C36.296 16.6358 36.3519 16.5006 36.3519 16.3597C36.3519 16.2187 36.296 16.0835 36.1965 15.9838C36.097 15.8841 35.9621 15.8281 35.8213 15.8281Z" fill="#126456"/>
<path d="M35.8213 13.7285H19.558C19.4172 13.7285 19.2823 13.7845 19.1828 13.8842C19.0832 13.9839 19.0273 14.1191 19.0273 14.26C19.0273 14.401 19.0832 14.5362 19.1828 14.6359C19.2823 14.7356 19.4172 14.7916 19.558 14.7916H35.8213C35.9621 14.7916 36.097 14.7356 36.1965 14.6359C36.296 14.5362 36.3519 14.401 36.3519 14.26C36.3519 14.1191 36.296 13.9839 36.1965 13.8842C36.097 13.7845 35.9621 13.7285 35.8213 13.7285Z" fill="#126456"/>
<path d="M26.6079 11.6289H19.558C19.4172 11.6289 19.2823 11.6849 19.1828 11.7846C19.0832 11.8843 19.0273 12.0195 19.0273 12.1604C19.0273 12.3014 19.0832 12.4366 19.1828 12.5363C19.2823 12.636 19.4172 12.692 19.558 12.692H26.6079C26.7486 12.692 26.8836 12.636 26.9831 12.5363C27.0826 12.4366 27.1385 12.3014 27.1385 12.1604C27.1385 12.0195 27.0826 11.8843 26.9831 11.7846C26.8836 11.6849 26.7486 11.6289 26.6079 11.6289Z" fill="#126456"/>
<path d="M41.0136 8.271C43.2936 8.271 45.142 6.41947 45.142 4.1355C45.142 1.85153 43.2936 0 41.0136 0C38.7336 0 36.8853 1.85153 36.8853 4.1355C36.8853 6.41947 38.7336 8.271 41.0136 8.271Z" fill="#126456"/>
<path d="M40.4505 6.28814C40.3792 6.28814 40.3089 6.27151 40.2451 6.23957C40.1813 6.20762 40.1259 6.16124 40.0831 6.1041L38.9569 4.59977C38.9205 4.55146 38.894 4.49643 38.8789 4.43784C38.8637 4.37925 38.8603 4.31824 38.8688 4.25832C38.8773 4.19841 38.8974 4.14075 38.9282 4.08866C38.9589 4.03657 38.9996 3.99106 39.048 3.95475C39.0963 3.91845 39.1513 3.89205 39.2098 3.87707C39.2684 3.8621 39.3293 3.85883 39.3891 3.86748C39.4488 3.87612 39.5063 3.89649 39.5583 3.92743C39.6102 3.95838 39.6555 3.99927 39.6916 4.04779L40.4285 5.03188L42.321 2.18825C42.3885 2.08673 42.4936 2.01626 42.613 1.99233C42.7324 1.96841 42.8565 1.99298 42.9578 2.06066C43.0591 2.12834 43.1295 2.23357 43.1534 2.35321C43.1773 2.47284 43.1527 2.59709 43.0852 2.6986L40.8326 6.08329C40.7919 6.1445 40.7371 6.19504 40.6728 6.23065C40.6085 6.26627 40.5367 6.28594 40.4632 6.288C40.459 6.28807 40.4547 6.28814 40.4505 6.28814Z" fill="white"/>
</g>
<defs>
<clipPath id="clip0_1932_156993">
<rect width="73" height="64" fill="white" transform="translate(0.875)"/>
</clipPath>
</defs>
</svg>
