<svg width="29" height="28" viewBox="0 0 29 28" fill="none" xmlns="http://www.w3.org/2000/svg">
<path d="M2.92689 20.0122C2.24739 20.3811 1.39035 20.1314 1.09109 19.4185C0.334695 17.6165 -0.0380775 15.671 0.00307104 13.7068C0.0540218 11.2747 0.73783 8.89778 1.9871 6.8104C3.23638 4.72303 5.008 2.9972 7.12736 1.803C9.24673 0.608799 11.6407 -0.0125478 14.0733 0.000191982C16.5059 0.0129317 18.8933 0.659319 21 1.87565C23.1068 3.09198 24.8602 4.83627 26.0875 6.93662C27.3149 9.03696 27.9738 11.4209 27.9992 13.8534C28.0198 15.8179 27.6267 17.7594 26.8514 19.5534C26.5447 20.2632 25.6851 20.5039 25.0095 20.1278C24.3339 19.7518 24.1001 18.9015 24.389 18.1843C24.9377 16.8219 25.2149 15.3605 25.1994 13.8827C25.179 11.9367 24.6519 10.0296 23.67 8.34929C22.6882 6.66902 21.2854 5.27358 19.6 4.30052C17.9146 3.32746 16.0048 2.81035 14.0587 2.80015C12.1126 2.78996 10.1974 3.28704 8.50189 4.2424C6.8064 5.19776 5.3891 6.57842 4.38968 8.24832C3.39026 9.91822 2.84322 11.8197 2.80246 13.7654C2.7715 15.2429 3.03332 16.7072 3.56774 18.0753C3.84908 18.7955 3.60639 19.6432 2.92689 20.0122Z" fill="#E4E4E4"/>
<path d="M2.92689 20.0122C2.24739 20.3811 1.39032 20.1314 1.09105 19.4185C-0.15366 16.4534 -0.344869 13.1343 0.576533 10.0238C1.6311 6.46363 4.05673 3.46824 7.3198 1.69655C10.5829 -0.0751522 14.4161 -0.478033 17.9762 0.576532C21.0868 1.49793 23.7663 3.466 25.5751 6.12482C26.01 6.7641 25.7526 7.61889 25.0731 7.98782C24.3936 8.35676 23.5505 8.09854 23.0997 7.47033C21.6569 5.45956 19.5791 3.97158 17.181 3.26123C14.3329 2.41757 11.2663 2.73988 8.65584 4.15724C6.04538 5.57459 4.10488 7.9709 3.26123 10.819C2.55087 13.2171 2.66714 15.7701 3.56769 18.0753C3.84905 18.7955 3.60639 19.6432 2.92689 20.0122Z" fill="url(#paint0_linear_1775_20207)"/>
<path d="M27.408 10.5166C27.5528 10.5166 27.6949 10.5565 27.8054 10.6357C27.9144 10.714 28.0037 10.8422 27.9998 11.0049H28.0007V13.3252C28.0005 13.5888 27.7771 13.7319 27.6072 13.7812C27.4484 13.8273 27.2487 13.8242 27.0779 13.7354L27.0066 13.6924L26.0339 13.0039L21.8962 15.9248L21.8972 15.9258C21.705 16.0617 21.4638 16.123 21.2332 16.123C21.0312 16.123 20.8214 16.0756 20.6433 15.9727L20.5691 15.9258L18.1853 14.2393L14.2761 17.0098C14.0838 17.1457 13.8428 17.208 13.6121 17.208C13.4101 17.208 13.2003 17.1606 13.0222 17.0576L12.948 17.0098C12.7537 16.8723 12.6327 16.6733 12.6326 16.4512C12.6326 16.2288 12.7535 16.0291 12.948 15.8916L17.5251 12.6504V12.6494L17.5994 12.6025C17.7775 12.4995 17.9872 12.4521 18.1892 12.4521C18.4199 12.4522 18.6609 12.5135 18.8533 12.6494L21.2361 14.335L24.5798 11.9697L23.7341 11.3721C23.6403 11.3056 23.5694 11.2142 23.5427 11.1025C23.5159 10.9905 23.5394 10.881 23.5925 10.791C23.6966 10.6146 23.907 10.5166 24.1355 10.5166H27.408Z" fill="url(#paint1_linear_1775_20207)" stroke="url(#paint2_linear_1775_20207)" stroke-width="0.4375"/>
<defs>
<linearGradient id="paint0_linear_1775_20207" x1="30.1" y1="22.8466" x2="-2.8" y2="22.8466" gradientUnits="userSpaceOnUse">
<stop stop-color="#6BD5BF"/>
<stop offset="0.159669" stop-color="#32D172"/>
<stop offset="0.268196" stop-color="#8ACD41"/>
<stop offset="0.658066" stop-color="#F3AF3D"/>
<stop offset="0.804268" stop-color="#FF7A00"/>
<stop offset="1" stop-color="#FF2E00"/>
</linearGradient>
<linearGradient id="paint1_linear_1775_20207" x1="25.4675" y1="14.1227" x2="15.0162" y2="14.1227" gradientUnits="userSpaceOnUse">
<stop stop-color="#52D060"/>
<stop offset="0.395833" stop-color="#EDB13E"/>
<stop offset="1" stop-color="#FF7501"/>
</linearGradient>
<linearGradient id="paint2_linear_1775_20207" x1="25.4675" y1="14.1227" x2="15.0162" y2="14.1227" gradientUnits="userSpaceOnUse">
<stop stop-color="#52D060"/>
<stop offset="0.395833" stop-color="#EDB13E"/>
<stop offset="1" stop-color="#FF7501"/>
</linearGradient>
</defs>
</svg>
