<svg width="91" height="64" viewBox="0 0 91 64" fill="none" xmlns="http://www.w3.org/2000/svg">
<g clip-path="url(#clip0_1775_19373)">
<path d="M82.7984 58.9486C81.1795 59.6544 79.2555 59.9375 77.3778 60.2066C67.0188 61.6955 56.6265 63.1874 46.0772 63.7587C43.5713 63.8952 41.057 63.9745 38.5343 63.9966C38.3661 63.9976 38.198 63.9986 38.0299 63.9986C37.4882 64.0006 36.9462 63.9996 36.4039 63.9956C29.029 63.9384 21.6773 63.2998 14.6539 61.7888C11.6647 61.1463 8.70667 60.3331 6.20778 59.0369C4.23143 58.0119 2.55409 56.6535 1.6379 55.0873C1.39868 54.6841 1.21096 54.2528 1.07912 53.8032C0.972158 53.4334 0.906982 53.0529 0.884807 52.6687C0.875746 52.5301 0.87272 52.3916 0.876753 52.254C0.885052 51.8495 0.934641 51.4468 1.02475 51.0522C1.29055 49.8625 1.89363 48.6909 2.6598 47.5544C2.66383 47.5493 2.66685 47.5433 2.67088 47.5383C2.76048 47.4048 2.85277 47.2719 2.94776 47.1397C2.99608 47.0714 3.04542 47.0032 3.09475 46.9359C3.71192 46.0885 4.40561 45.2623 5.0993 44.4661C5.67619 43.8035 6.26216 43.1278 6.81791 42.4401C6.92866 42.3025 7.0384 42.1643 7.14714 42.0254C7.58081 41.4758 7.98608 40.9045 8.36134 40.3136C8.40363 40.2454 8.44591 40.1771 8.48719 40.1088C8.60801 39.909 8.72245 39.7082 8.83051 39.5064C9.2076 38.8208 9.48941 38.0872 9.66817 37.3258C9.69939 37.1882 9.72556 37.0497 9.7457 36.9111C9.83482 36.3492 9.83685 35.7769 9.75174 35.2144C9.74369 35.1602 9.73462 35.106 9.72355 35.0527C9.57253 34.2325 9.23424 33.4474 8.79628 32.6793C8.70768 32.5227 8.61405 32.3671 8.5174 32.2115C8.48921 32.1663 8.46202 32.1221 8.43283 32.0769C8.37342 31.9836 8.31302 31.8902 8.2516 31.7968C7.47435 30.6212 6.54205 29.4716 5.78996 28.2859C5.54368 27.9025 5.31849 27.506 5.11541 27.0982C5.04795 26.9606 4.98351 26.8221 4.92512 26.6835C4.79349 26.3807 4.68348 26.0691 4.59589 25.7508C4.39863 25.0234 4.34798 24.2641 4.44689 23.517V23.516C4.51679 22.9904 4.65277 22.4756 4.85162 21.9839C4.908 21.8443 4.96841 21.7058 5.03486 21.5692C5.46596 20.6867 6.0525 19.8886 6.76656 19.2129C7.32147 18.6819 7.93443 18.2148 8.59391 17.8204C8.66842 17.7742 8.74494 17.73 8.82145 17.6858C9.03792 17.5613 9.25908 17.4435 9.48494 17.3324C9.56246 17.2923 9.63998 17.2541 9.71751 17.218C10.1861 16.9952 10.666 16.7968 11.1552 16.6236C11.2096 16.6035 11.264 16.5844 11.3193 16.5664C11.4341 16.5262 11.5499 16.4881 11.6657 16.4509C11.869 16.3847 12.0754 16.3234 12.2839 16.2652C16.5648 15.0564 21.7327 15.2371 26.4013 15.8525C26.8332 15.9098 27.2654 15.9697 27.698 16.0323C28.0363 16.0794 28.3746 16.1296 28.7139 16.1808C30.0489 16.3806 31.3849 16.5935 32.723 16.7913C33.7741 16.9469 34.8262 17.0935 35.8793 17.218C37.7774 17.4563 39.688 17.5824 41.601 17.5955C42.5816 17.5955 43.5633 17.5563 44.5459 17.4649C45.2043 17.4037 45.8564 17.3214 46.5021 17.218C48.2567 16.9289 49.9933 16.5397 51.7033 16.0523C52.7725 15.7572 53.8306 15.4409 54.8838 15.1257C55.4184 14.965 55.9547 14.8054 56.4926 14.6468C57.0162 14.4921 57.5414 14.3412 58.0683 14.194C58.9613 13.945 59.8614 13.711 60.7716 13.5022C62.2331 13.1593 63.7151 12.9098 65.2085 12.7553C65.4743 12.7291 65.7418 12.7071 66.011 12.689C66.3996 12.6629 66.7899 12.6462 67.1819 12.6388C67.6692 12.6277 68.1575 12.6318 68.6438 12.6528C68.7837 12.6579 68.9226 12.6649 69.0626 12.6729C69.2881 12.687 69.5126 12.7041 69.7361 12.7241C69.7633 12.7261 69.7895 12.7292 69.8157 12.7312C70.2808 12.7753 70.7409 12.8346 71.193 12.9099C72.4249 13.1027 73.6273 13.4509 74.7712 13.946L74.7742 13.947C75.049 14.0685 75.3155 14.2 75.5736 14.3415C76.0487 14.6006 76.496 14.9074 76.9086 15.2572C77.2683 15.5605 77.5947 15.9011 77.8822 16.2732C77.9305 16.3355 77.9768 16.3987 78.0201 16.462C79.043 17.9087 79.2424 19.6064 78.1993 21.0331L78.2406 20.6275C78.1218 20.9407 78.002 21.255 77.8842 21.5692C77.8319 21.7068 77.7795 21.8453 77.7281 21.9839C77.4875 22.6244 77.2513 23.268 77.0194 23.9145V23.9186C76.9469 24.1184 76.8764 24.3141 76.8069 24.5149V24.5189C76.5532 25.2388 76.3096 25.9587 76.08 26.6835C76.0367 26.8211 75.9924 26.9596 75.9501 27.0982C75.8978 27.2678 75.8461 27.4375 75.7951 27.6072C75.7427 27.7809 75.6914 27.9552 75.641 28.1303C75.6209 28.1995 75.6018 28.2698 75.5816 28.3401C75.2544 29.4907 74.9715 30.6442 74.751 31.7968C74.7239 31.9354 74.6987 32.0739 74.6735 32.2115C74.6604 32.2858 74.6473 32.3611 74.6342 32.4354C74.6201 32.5167 74.6071 32.598 74.594 32.6793C74.3591 34.0778 74.2406 35.4932 74.2396 36.9111C74.2396 37.0497 74.2416 37.1882 74.2446 37.3258C74.2613 38.0552 74.3185 38.7832 74.4158 39.5064C74.443 39.7072 74.4735 39.908 74.5074 40.1088C74.6164 40.7554 74.7619 41.3952 74.9433 42.0254C74.9826 42.164 75.0249 42.3025 75.0682 42.4401C75.4059 43.5097 75.8487 44.5434 76.3901 45.5263C76.6529 46.0032 76.9412 46.4731 77.255 46.9359C77.3013 47.0042 77.3476 47.0724 77.3949 47.1397C77.4875 47.2732 77.5828 47.4061 77.6808 47.5383C77.6849 47.5433 77.6889 47.5493 77.6929 47.5544C78.648 48.8373 79.7431 50.0105 80.958 51.0522C81.406 51.4408 81.8745 51.8176 82.3635 52.1827C82.3947 52.2058 82.4269 52.2299 82.4581 52.254C82.6434 52.3906 82.8326 52.5291 83.0209 52.6687C84.0106 53.4016 84.9912 54.1746 85.3809 55.0873C85.4657 55.2804 85.521 55.4852 85.545 55.6947C85.691 57.0079 84.4174 58.2418 82.7984 58.9486Z" fill="#F2F2F2"/>
<path d="M74.3698 17.2188C74.3426 17.4195 74.3174 17.6203 74.2923 17.8211H8.13616C8.05058 17.6193 7.96097 17.4185 7.87036 17.2188H74.3698Z" fill="white"/>
<path d="M73.8633 25.2508H9.28687C9.31808 25.051 9.34425 24.8492 9.36439 24.6484H73.8583C73.8583 24.8492 73.86 25.05 73.8633 25.2508Z" fill="white"/>
<path d="M74.6866 32.6795H8.79632C8.70772 32.5229 8.61409 32.3673 8.51743 32.2117C8.48924 32.1665 8.46206 32.1223 8.43286 32.0771H74.5618C74.585 32.1966 74.6091 32.3161 74.6343 32.4356C74.6514 32.5169 74.6695 32.5982 74.6866 32.6795Z" fill="white"/>
<path d="M74.5074 40.1092H8.20232C8.08553 39.9636 7.96572 39.8211 7.84591 39.6835C7.79557 39.6253 7.74422 39.5661 7.69287 39.5068H74.4158C74.443 39.7076 74.4735 39.9084 74.5074 40.1092Z" fill="white"/>
<path d="M77.6808 47.5389H2.6709C2.7605 47.4054 2.85279 47.2725 2.94777 47.1403C2.9961 47.0721 3.04543 47.0038 3.09476 46.9365H77.255C77.3013 47.0048 77.3476 47.0731 77.3949 47.1403C77.4875 47.2739 77.5829 47.4067 77.6808 47.5389Z" fill="white"/>
<path d="M55.7244 0.538141C55.6368 0.462453 55.5432 0.393959 55.4445 0.333329V0.332324C55.4355 0.326379 55.4261 0.321015 55.4163 0.316261C55.3038 0.247937 55.1852 0.190129 55.0619 0.143576C54.8116 0.0481 54.5457 -0.000569369 54.2776 5.02542e-06H29.913C29.3257 0.000695861 28.7628 0.233626 28.3475 0.6477C27.9323 1.06177 27.6987 1.62318 27.698 2.20877V49.898C27.6976 50.1225 27.7319 50.3456 27.7997 50.5597C27.8067 50.5828 27.8148 50.6058 27.8228 50.6279C27.8289 50.646 27.8349 50.6631 27.842 50.6801C27.8749 50.7686 27.9142 50.8545 27.9598 50.9372C27.9809 50.9763 28.0031 51.0145 28.0262 51.0526C28.0474 51.0878 28.0695 51.1209 28.0937 51.154C28.1047 51.1711 28.1168 51.1882 28.1299 51.2052C28.1313 51.2083 28.1333 51.2111 28.136 51.2133C28.1571 51.2424 28.1793 51.2715 28.2034 51.2996C28.2407 51.3448 28.2799 51.389 28.3202 51.4301C28.3474 51.4592 28.3756 51.4863 28.4038 51.5124C28.813 51.8944 29.3525 52.1068 29.913 52.1068H54.2776C54.865 52.1065 55.4282 51.8737 55.8435 51.4595C56.2588 51.0454 56.4923 50.4837 56.4926 49.898V2.20877C56.4927 1.89157 56.4242 1.57808 56.2916 1.28975C56.159 1.00141 55.9655 0.74503 55.7244 0.538141Z" fill="#E6E6E6"/>
<path d="M55.1334 25.2505H55.1304C55.0619 25.2485 54.9935 25.2505 54.925 25.2505H51.373C51.1762 25.2394 50.9789 25.2394 50.782 25.2505C50.6569 25.2591 50.5361 25.2992 50.4306 25.3669C50.3436 25.427 50.2724 25.5071 50.223 25.6004C50.1736 25.6937 50.1474 25.7975 50.1467 25.9031C50.1501 26.0777 50.2222 26.244 50.3475 26.3661C50.4727 26.4881 50.6411 26.5562 50.8162 26.5557C50.9169 26.5577 51.0186 26.5557 51.1193 26.5557H54.7005C55.0811 26.5557 55.518 26.6038 55.7184 26.1892C55.7649 26.0898 55.7858 25.9803 55.7792 25.8708C55.7726 25.7613 55.7388 25.6551 55.6807 25.5619C55.6226 25.4688 55.5422 25.3915 55.4466 25.3371C55.3511 25.2827 55.2434 25.2529 55.1334 25.2505Z" fill="#CCCCCC"/>
<path d="M52.9653 30.7726C53.5213 30.7726 53.9721 30.3231 53.9721 29.7686C53.9721 29.2141 53.5213 28.7646 52.9653 28.7646C52.4093 28.7646 51.9585 29.2141 51.9585 29.7686C51.9585 30.3231 52.4093 30.7726 52.9653 30.7726Z" fill="#CCCCCC"/>
<path d="M52.9652 30.1704C53.1876 30.1704 53.3679 29.9906 53.3679 29.7688C53.3679 29.547 53.1876 29.3672 52.9652 29.3672C52.7428 29.3672 52.5625 29.547 52.5625 29.7688C52.5625 29.9906 52.7428 30.1704 52.9652 30.1704Z" fill="#F2F2F2"/>
<path d="M29.5097 40.8613C29.1586 41.2102 28.8802 41.6248 28.6904 42.0815C28.5007 42.5381 28.4035 43.0276 28.4043 43.5219C28.4043 44.1367 28.6493 44.7263 29.0852 45.161C29.5212 45.5957 30.1124 45.84 30.729 45.8401H55.0755C55.45 45.8401 55.5668 46.082 55.3141 46.3571C55.2225 46.4565 55.1238 46.4405 55.0252 46.4425C54.5771 46.4505 54.1271 46.4425 53.6781 46.4425H32.1778C31.6821 46.4425 31.1914 46.5399 30.7335 46.729C30.2756 46.9182 29.8596 47.1955 29.5092 47.545C29.1588 47.8945 28.8808 48.3095 28.6913 48.7661C28.5017 49.2228 28.4041 49.7122 28.4043 50.2064V51.5126C28.1236 51.2525 27.9155 50.9242 27.8002 50.5598V50.3329C27.8003 50.0345 27.7662 49.7371 27.6985 49.4464V43.5409C27.7663 43.2844 27.8004 43.0202 27.8002 42.7548C27.8005 42.4935 27.7663 42.2332 27.6985 41.9808V36.8574C27.7662 36.6008 27.8004 36.3366 27.8002 36.0713C27.8005 35.81 27.7663 35.5497 27.6985 35.2972V30.1729C27.7662 29.9163 27.8004 29.6521 27.8002 29.3868V25.2012H28.4043V27.5465C28.4043 28.8528 28.9247 30.1056 29.851 31.0293C30.7773 31.953 32.0337 32.472 33.3436 32.472H55.0775C55.4521 32.472 55.5699 32.714 55.3161 32.9891C55.2235 33.0885 55.1238 33.0734 55.0252 33.0744C54.5771 33.0824 54.1271 33.0744 53.6781 33.0744H32.1778C31.1769 33.0746 30.217 33.4713 29.5094 34.1771C28.8017 34.883 28.4042 35.8403 28.4043 36.8384C28.4043 37.4532 28.6493 38.0428 29.0852 38.4775C29.5212 38.9122 30.1124 39.1565 30.729 39.1566H55.0755C55.45 39.1566 55.5668 39.3975 55.3141 39.6736C55.2225 39.773 55.1238 39.7569 55.0252 39.7589C54.5771 39.767 54.1271 39.7589 53.6781 39.7589H32.1778C31.6821 39.7582 31.1912 39.8551 30.7333 40.0443C30.2754 40.2335 29.8596 40.5112 29.5097 40.8613Z" fill="#CCCCCC"/>
<path d="M55.3141 13.8279C55.2225 13.9273 55.1238 13.9112 55.0252 13.9132C54.5771 13.9213 54.1271 13.9132 53.6781 13.9132H32.1778C31.6821 13.9132 31.1914 14.0106 30.7335 14.1998C30.2756 14.389 29.8596 14.6662 29.5092 15.0158C29.1588 15.3653 28.8808 15.7802 28.6913 16.2369C28.5017 16.6935 28.4041 17.1829 28.4043 17.6772V18.9833C28.1236 18.7232 27.9155 18.3949 27.8002 18.0306V17.8037C27.8003 17.5053 27.7662 17.2078 27.6985 16.9171V11.0117C27.7663 10.7551 27.8004 10.4909 27.8002 10.2256C27.8005 9.96424 27.7663 9.70398 27.6985 9.45152V2.20877C27.6992 1.62318 27.9328 1.06178 28.348 0.647702C28.7632 0.233628 29.3262 0.000695862 29.9135 5.02622e-06H54.2781C54.5462 -0.000569414 54.8121 0.0481 55.0624 0.143576C55.1856 0.190126 55.3043 0.247934 55.4168 0.316261C55.3909 0.369019 55.3569 0.41745 55.3161 0.45983C55.2235 0.559225 55.1238 0.544165 55.0252 0.545169C54.5771 0.553201 54.1271 0.545169 53.6781 0.545169H32.1778C31.1769 0.545382 30.217 0.94204 29.5094 1.6479C28.8017 2.35376 28.4042 3.31101 28.4043 4.30911C28.4043 4.92391 28.6493 5.51351 29.0852 5.94824C29.5212 6.38297 30.1124 6.62723 30.729 6.62731H55.0755C55.45 6.62731 55.5668 6.86826 55.3141 7.14436C55.2225 7.24375 55.1238 7.22769 55.0252 7.2297C54.5771 7.23773 54.1271 7.2297 53.6781 7.2297H32.1778C31.177 7.22991 30.2173 7.62643 29.5097 8.33207C28.8021 9.03771 28.4045 9.99471 28.4043 10.9926C28.4043 11.6074 28.6493 12.197 29.0852 12.6318C29.5212 13.0665 30.1124 13.3108 30.729 13.3108H55.0755C55.4501 13.3108 55.5668 13.5528 55.3141 13.8279Z" fill="#CCCCCC"/>
<path d="M59.3772 22.6731C60.2112 22.6731 60.8874 21.9988 60.8874 21.1671C60.8874 20.3354 60.2112 19.6611 59.3772 19.6611C58.5431 19.6611 57.8669 20.3354 57.8669 21.1671C57.8669 21.9988 58.5431 22.6731 59.3772 22.6731Z" fill="white"/>
<path d="M20.3203 47.5385C20.132 48.924 19.0054 50.1428 17.6905 50.7342C17.4081 50.8606 17.1171 50.967 16.8196 51.0524C15.5138 51.4329 14.1022 51.449 12.729 51.457C11.3416 51.4661 9.9542 51.4748 8.56683 51.4831C7.47243 51.4902 6.3428 51.4902 5.33197 51.0715C5.31686 51.0655 5.30176 51.0595 5.28767 51.0524C4.29596 50.6247 3.44924 49.686 3.47341 48.6107C3.48363 48.2326 3.5911 47.8633 3.78551 47.5385C3.91436 47.3199 4.06919 47.1177 4.24663 46.9361C4.79735 46.3668 5.5605 45.9211 6.27534 45.5626C7.57613 44.9111 9.06418 44.0456 9.20514 42.6009C9.28669 41.7676 8.87994 40.9995 8.36143 40.3138C8.31009 40.2445 8.25673 40.1763 8.20236 40.109C8.08557 39.9634 7.96576 39.8208 7.84595 39.6833C7.79561 39.6251 7.74426 39.5658 7.69292 39.5066C7.01332 38.7215 6.32568 37.8591 6.2995 36.833C6.27232 35.7597 7.47444 34.6794 8.38459 35.1865C8.83061 35.1423 9.27696 35.0978 9.72364 35.0529C10.2713 34.9987 10.8184 34.9442 11.3647 34.8893C11.4866 34.8782 11.6074 34.8662 11.7282 34.8531C12.8649 34.7407 14.0009 34.6276 15.1362 34.5138C15.6416 34.4636 16.2346 34.4455 16.5629 34.832C16.9203 35.2547 16.735 35.9214 16.3816 36.3471C16.0283 36.7728 15.5379 37.0729 15.2047 37.5137C14.7758 38.0819 14.6751 38.8008 14.7989 39.5066C14.8345 39.7116 14.8877 39.9131 14.958 40.109C15.0825 40.4582 15.2546 40.7886 15.4695 41.0909C16.2145 42.133 17.318 42.8509 18.2986 43.6762C19.2792 44.5024 20.1974 45.5516 20.3323 46.8236C20.3364 46.8608 20.3394 46.8989 20.3414 46.9361C20.3551 47.1371 20.348 47.3389 20.3203 47.5385Z" fill="#E6E6E6"/>
<path d="M12.3479 35.9631C11.3587 34.9886 10.5162 33.8765 9.8464 32.6614C9.17865 31.4525 8.68545 30.1556 8.3814 28.8091C8.07314 27.4426 7.97105 26.0379 8.07848 24.6414C8.30127 21.7972 9.35519 19.0805 11.1099 16.8273C11.2171 16.6902 11.3268 16.5552 11.4391 16.4223C11.5642 16.2737 11.7769 16.4877 11.6526 16.6353C9.86202 18.7764 8.7402 21.394 8.42599 24.1642C8.19873 26.2811 8.45248 28.4219 9.16842 30.4276C9.88435 32.4333 11.0441 34.2525 12.5615 35.7502C12.7001 35.8865 12.4865 36.0994 12.3479 35.9631Z" fill="#E6E6E6"/>
<path d="M10.9883 17.0828C11.1106 17.0372 11.2303 16.9851 11.347 16.9268C11.3529 16.9358 11.3587 16.945 11.3646 16.9541L10.9883 17.0828Z" fill="#E6E6E6"/>
<path d="M10.8551 13.2083C11.2773 12.6807 12.0845 12.4442 12.6684 12.7856C13.06 13.0145 13.2944 13.4594 13.3387 13.9098C13.3677 14.3643 13.2697 14.8178 13.0556 15.2201C12.6866 15.9585 12.0869 16.5574 11.3469 16.9264C10.9843 16.3687 10.6443 15.7823 10.4995 15.134C10.3524 14.4751 10.4328 13.7359 10.8551 13.2083Z" fill="#E6E6E6"/>
<path d="M5.64307 16.9739C5.42594 16.1096 5.39927 15.2087 5.56492 14.3331C5.73057 13.4576 6.0846 12.6283 6.60261 11.9023C6.70931 13.6687 8.56539 14.7935 9.24501 16.4281C9.45306 16.9396 9.54303 17.4911 9.50825 18.042C9.47347 18.5928 9.31483 19.1288 9.04409 19.6102L8.942 20.9506C8.13658 20.5649 7.42458 20.0096 6.85507 19.3231C6.28555 18.6366 5.87206 17.8351 5.64307 16.9739Z" fill="#E6E6E6"/>
<path d="M2.35521 21.9863C3.28345 23.4945 5.452 23.6152 6.82345 24.7381C7.24851 25.0916 7.58834 25.536 7.81777 26.0382C8.0472 26.5405 8.16035 27.0878 8.14883 27.6396L8.69172 28.8701C7.79832 28.9141 6.90615 28.7615 6.07861 28.4229C5.25106 28.0843 4.50847 27.5681 3.90358 26.911C3.2987 26.2538 2.84638 25.4719 2.57878 24.6208C2.31117 23.7697 2.23484 22.8702 2.35521 21.9863Z" fill="#E6E6E6"/>
<path d="M10.9037 25.2842C11.6018 25.8418 12.1682 26.546 12.5626 27.3466C12.957 28.1471 13.1698 29.0245 13.1857 29.9164C13.2017 30.8082 13.0205 31.6926 12.6549 32.5067C12.2894 33.3209 11.7486 34.0447 11.0708 34.6268L10.6137 33.3622C10.2239 32.9703 9.92759 32.496 9.74664 31.9744C9.5657 31.4528 9.50478 30.8973 9.5684 30.349C9.78586 28.5928 11.2736 27.0149 10.9037 25.2842Z" fill="#E6E6E6"/>
<path d="M52.0632 13.4033C52.0634 13.9414 52.02 14.4786 51.9333 15.0097C51.897 15.2336 51.8531 15.4548 51.8014 15.6733C51.7823 15.7536 51.7631 15.834 51.742 15.9133C51.6755 16.1693 51.598 16.4223 51.5114 16.6693C50.6893 19.0234 49.0106 20.9838 46.8076 22.1621C46.6657 22.2394 46.5207 22.3127 46.3747 22.3819C46.1895 22.4703 46.0012 22.5526 45.8099 22.6289C45.6971 22.6741 45.5834 22.7173 45.4686 22.7584C43.4249 23.4881 41.1988 23.5357 39.1257 22.894C39.024 22.8629 38.9244 22.8297 38.8247 22.7946C38.6193 22.7243 38.4176 22.6473 38.2196 22.5637C38.0867 22.5074 37.9558 22.4492 37.8269 22.387C36.6322 21.821 35.5619 21.0242 34.6783 20.0427C33.7946 19.0612 33.1151 17.9146 32.6792 16.6693C32.5936 16.4213 32.5161 16.1693 32.4496 15.9133C32.4285 15.834 32.4093 15.7536 32.3902 15.6733C32.3389 15.4545 32.2949 15.2332 32.2583 15.0097C31.9129 12.8935 32.2607 10.7227 33.25 8.81912C33.2561 8.80808 33.2621 8.79603 33.2681 8.78499C33.4317 8.4744 33.6119 8.17278 33.8078 7.8814L33.847 7.82417C34.846 6.35598 36.22 5.18033 37.8269 4.41866C37.9568 4.35741 38.0877 4.29818 38.2196 4.24296C38.4119 4.16264 38.6062 4.08734 38.8046 4.01907C38.9103 3.98192 39.018 3.94678 39.1257 3.91265C41.1988 3.27096 43.4249 3.31852 45.4686 4.04819C45.5904 4.09136 45.7112 4.13754 45.831 4.18573C46.0153 4.26003 46.1965 4.33968 46.3747 4.42468C46.5207 4.49395 46.665 4.56691 46.8076 4.64355C48.227 5.40325 49.4406 6.49459 50.3445 7.82417L50.3838 7.8814C50.5797 8.17278 50.7599 8.4744 50.9235 8.78499C50.9295 8.79603 50.9355 8.80808 50.9416 8.81912C51.6809 10.2345 52.0657 11.8074 52.0632 13.4033Z" fill="white"/>
<path d="M82.7984 58.9491C81.1795 59.6549 79.2555 59.938 77.3778 60.2071C67.0188 61.696 56.6265 63.1879 46.0772 63.7592C43.5713 63.8957 41.057 63.975 38.5343 63.9971C38.3661 63.9981 38.198 63.9991 38.0299 63.9991C37.4882 64.0011 36.9462 64.0001 36.4039 63.9961C29.029 63.9389 21.6773 63.3003 14.6539 61.7893C11.6647 61.1468 8.70667 60.3336 6.20778 59.0374C4.23143 58.0124 2.55409 56.654 1.6379 55.0877C1.39868 54.6846 1.21096 54.2532 1.07912 53.8037C0.972158 53.4339 0.906982 53.0534 0.884807 52.6692C0.875746 52.5306 0.87272 52.3921 0.876753 52.2545C0.885052 51.8499 0.934641 51.4473 1.02475 51.0527H80.958C81.406 51.4413 81.8745 51.8181 82.3635 52.1832C82.3947 52.2063 82.4269 52.2304 82.4581 52.2545C82.6434 52.391 82.8326 52.5296 83.0209 52.6692C84.0106 53.4021 84.9912 54.1751 85.3809 55.0877C85.4657 55.2809 85.521 55.4857 85.545 55.6952C85.691 57.0084 84.4174 58.2423 82.7984 58.9491Z" fill="#CCCCCC"/>
<path d="M56.5934 54.2596C56.5934 54.097 56.6025 53.9323 56.5924 53.7697C56.5795 53.5657 56.4897 53.3741 56.341 53.2334C56.1924 53.0926 55.996 53.0131 55.791 53.0107C55.6883 53.0087 55.5856 53.0107 55.4829 53.0107H28.4573C28.3458 53.0057 28.2345 53.0234 28.1302 53.0626C28.0258 53.1018 27.9305 53.1618 27.8501 53.2389C27.7697 53.316 27.7058 53.4086 27.6624 53.511C27.619 53.6135 27.5969 53.7237 27.5975 53.8349C27.5924 54.4203 27.5975 55.0056 27.5975 55.5909V56.611C27.5975 56.7756 27.5864 56.9463 27.6025 57.1109C27.6243 57.3076 27.7177 57.4895 27.8651 57.622C28.0125 57.7545 28.2035 57.8284 28.4019 57.8298C28.4341 57.8308 28.4673 57.8298 28.4996 57.8298H55.794C56.0086 57.8262 56.213 57.7382 56.3628 57.5849C56.5125 57.4316 56.5954 57.2255 56.5934 57.0115C56.5954 56.8027 56.5934 56.5929 56.5934 56.383V54.2596Z" fill="#E6E6E6"/>
<path d="M55.1338 27.2589C55.6898 27.2589 56.1406 26.8094 56.1406 26.255C56.1406 25.7005 55.6898 25.251 55.1338 25.251C54.5777 25.251 54.127 25.7005 54.127 26.255C54.127 26.8094 54.5777 27.2589 55.1338 27.2589Z" fill="#CCCCCC"/>
<path d="M80.1214 5.63587V14.6994C80.1196 14.8473 80.1725 14.9906 80.27 15.102C80.3675 15.2134 80.5028 15.285 80.65 15.3031C80.6695 15.3044 80.689 15.3057 80.7086 15.3057C80.8541 15.3059 80.9944 15.2517 81.1018 15.1538C81.1619 15.0988 81.2099 15.032 81.2428 14.9576C81.2758 14.8832 81.2929 14.8028 81.2931 14.7215V5.56836L80.1214 5.63587Z" fill="#126456"/>
<path d="M68.6438 5.63587V14.6994C68.642 14.8473 68.6949 14.9906 68.7925 15.102C68.89 15.2134 69.0253 15.285 69.1724 15.3031C69.192 15.3044 69.2115 15.3057 69.231 15.3057C69.3765 15.3059 69.5168 15.2517 69.6242 15.1538C69.6843 15.0988 69.7324 15.032 69.7653 14.9576C69.7982 14.8832 69.8154 14.8028 69.8156 14.7215V5.56836L68.6438 5.63587Z" fill="#126456"/>
<path d="M85.2601 14.8795C85.2589 14.6741 85.1847 14.4757 85.0507 14.3196C84.9167 14.1635 84.7315 14.0599 84.5281 14.0271L83.8475 13.9157L82.6756 13.7239L81.2933 13.498L80.1214 13.3053L72.0397 11.982C71.9201 11.9627 71.7977 11.9682 71.6803 11.9981L69.8157 12.48L69.0626 12.6738L68.7555 12.7531H68.7545L68.7535 12.7541L68.6438 12.7822L67.5333 13.0683L67.1819 13.1587L67.0742 13.1858L66.011 13.4599L63.9742 13.986C63.8382 14.021 63.7128 14.0886 63.6088 14.1827V14.1848C63.5179 14.2657 63.4453 14.3649 63.3957 14.4758C63.346 14.5867 63.3205 14.7068 63.3208 14.8283V25.0358C63.3205 25.1084 63.33 25.1806 63.349 25.2507C63.3899 25.4074 63.4736 25.5497 63.5907 25.6619C63.7078 25.7741 63.8538 25.8517 64.0125 25.8862L75.5817 28.3409L76.7325 28.5849C76.7811 28.5956 76.8307 28.6013 76.8805 28.602C76.8918 28.6036 76.9032 28.6043 76.9147 28.604C76.9534 28.6038 76.9921 28.6011 77.0305 28.5959L77.0315 28.5949C77.0811 28.5892 77.13 28.5784 77.1775 28.5628L81.2933 27.2667L84.7345 26.1834C84.9129 26.128 85.0687 26.0167 85.1786 25.866C85.2885 25.7154 85.3467 25.5334 85.3447 25.3471L85.2601 14.8795Z" fill="white"/>
<path d="M84.4959 14.884C84.4959 14.8584 84.4866 14.8337 84.4698 14.8143C84.4529 14.795 84.4297 14.7823 84.4043 14.7786L84.3187 14.7645L83.8475 14.6872L83.8012 14.6792H83.8002L83.7982 14.6782L82.6756 14.4955L81.2933 14.2686L80.1214 14.0768L71.9159 12.7325C71.9099 12.7325 71.9048 12.7315 71.8978 12.7315C71.8889 12.7313 71.88 12.7326 71.8716 12.7355L71.193 12.9102L70.4772 13.0949L69.8157 13.2656L68.6438 13.5678L68.5361 13.5959H68.5351L67.1819 13.9453L66.011 14.2465L65.2388 14.4463L64.7364 14.5758L64.7344 14.5768L64.1655 14.7224C64.1422 14.7283 64.1215 14.742 64.1069 14.7611C64.0922 14.7802 64.0845 14.8037 64.085 14.8278V25.0353C64.0851 25.06 64.0936 25.0839 64.1092 25.103C64.1247 25.1222 64.1464 25.1355 64.1706 25.1407L64.686 25.2502L75.7951 27.6075L76.8362 27.8284H76.8372L76.8915 27.8394C76.9098 27.8438 76.929 27.8431 76.9469 27.8374L77.0546 27.8033L80.0962 26.8455H80.0972L81.2661 26.478L84.505 25.457C84.5272 25.4502 84.5466 25.4365 84.5604 25.4179C84.5742 25.3993 84.5816 25.3767 84.5815 25.3536L84.4959 14.884Z" fill="#3F3D56"/>
<path d="M85.2601 14.8795C85.2589 14.6741 85.1847 14.4757 85.0507 14.3196C84.9167 14.1635 84.7315 14.0599 84.5281 14.0271L83.8475 13.9157L82.6756 13.7239L81.2933 13.498L80.1214 13.3053L72.0397 11.982C71.9201 11.9627 71.7977 11.9682 71.6803 11.9981L69.8157 12.48L69.0626 12.6738L68.7555 12.7531H68.7545L68.7535 12.7541L68.6438 12.7822L67.5333 13.0683L67.1819 13.1587L67.0742 13.1858L66.011 13.4599L63.9742 13.986C63.8382 14.021 63.7128 14.0886 63.6088 14.1827V14.1848C63.5179 14.2657 63.4453 14.3649 63.3957 14.4758C63.346 14.5867 63.3205 14.7068 63.3208 14.8283V25.0358C63.3205 25.1084 63.33 25.1806 63.349 25.2507C63.3899 25.4074 63.4736 25.5497 63.5907 25.6619C63.7078 25.7741 63.8538 25.8517 64.0125 25.8862L75.5817 28.3409L76.7325 28.5849C76.7811 28.5956 76.8307 28.6013 76.8805 28.602C76.8918 28.6036 76.9032 28.6043 76.9147 28.604C76.9534 28.6038 76.9921 28.6011 77.0305 28.5959L77.0315 28.5949C77.0811 28.5892 77.13 28.5784 77.1775 28.5628L81.2933 27.2667L84.7345 26.1834C84.9129 26.128 85.0687 26.0167 85.1786 25.866C85.2885 25.7154 85.3467 25.5334 85.3447 25.3471L85.2601 14.8795ZM84.6691 25.9766L81.2671 27.0478L80.1204 27.4092L77.111 28.357C77.0939 28.362 77.0768 28.366 77.0607 28.3701C76.9889 28.3854 76.9153 28.3898 76.8422 28.3831H76.8412C76.8211 28.3801 76.7999 28.3761 76.7788 28.3721L75.6411 28.1311L64.0568 25.6734C63.9471 25.6496 63.8453 25.5983 63.7611 25.5244C63.6769 25.4504 63.613 25.3562 63.5755 25.2507C63.5518 25.1815 63.5395 25.1089 63.5393 25.0358V14.8283C63.5391 14.6667 63.599 14.5107 63.7074 14.3906H63.7084V14.3896C63.7796 14.3115 63.8687 14.2519 63.9682 14.2159C63.9878 14.2077 64.008 14.201 64.0286 14.1958L66.011 13.6858L67.1819 13.3836L67.3047 13.3504H67.3078L68.6438 13.0071L69.2469 12.8515L69.7362 12.725L69.8157 12.7049L71.7337 12.2099C71.7873 12.1961 71.8424 12.189 71.8978 12.1888C71.9335 12.189 71.9692 12.1917 72.0045 12.1969L80.1214 13.5261L81.2933 13.7179L82.6756 13.9438L83.8475 14.1366L84.4929 14.242C84.6173 14.2619 84.7332 14.3177 84.8262 14.4026H84.8282C84.8946 14.4635 84.9479 14.5373 84.9846 14.6195C85.0213 14.7017 85.0407 14.7905 85.0416 14.8805L85.1262 25.3491C85.1279 25.4888 85.0843 25.6253 85.0019 25.7384C84.9196 25.8514 84.8029 25.9349 84.6691 25.9766Z" fill="#3F3D56"/>
<path d="M84.9687 14.5843C84.9602 14.5899 84.9508 14.594 84.941 14.5966L81.2675 15.5869L80.1239 15.895L76.8714 16.7715C76.8621 16.7738 76.8526 16.775 76.843 16.7751C76.8364 16.775 76.8299 16.7745 76.8234 16.7737L63.7084 14.3893L63.6647 14.3813C63.6363 14.376 63.6111 14.3597 63.5947 14.3359C63.5783 14.3122 63.572 14.2829 63.5772 14.2545C63.5824 14.2262 63.5987 14.201 63.6224 14.1845C63.6462 14.1681 63.6755 14.1617 63.704 14.1667L63.9679 14.2146L76.8386 16.5547L79.6419 15.7993L81.2101 15.3767L84.8269 14.4016L84.8843 14.3864C84.9091 14.3799 84.9355 14.3822 84.9587 14.3931C84.982 14.404 85.0007 14.4226 85.0115 14.4458C85.0144 14.4514 85.0165 14.4572 85.0181 14.4632C85.0241 14.486 85.0225 14.5102 85.0136 14.532C85.0047 14.5538 84.9889 14.5722 84.9687 14.5843Z" fill="#3F3D56"/>
<path d="M76.9522 28.6282C76.9235 28.6282 76.8959 28.6169 76.8755 28.5967C76.855 28.5765 76.8434 28.5491 76.8432 28.5205L76.7341 16.6674C76.7339 16.6385 76.7451 16.6108 76.7654 16.5902C76.7856 16.5696 76.8133 16.5579 76.8422 16.5576H76.8432C76.8719 16.5576 76.8995 16.5689 76.9199 16.5891C76.9404 16.6093 76.952 16.6367 76.9522 16.6654L77.0613 28.5185C77.0615 28.5473 77.0503 28.5751 77.03 28.5956C77.0098 28.6162 76.9821 28.6279 76.9532 28.6282H76.9522Z" fill="#3F3D56"/>
<path d="M81.2676 27.1869L80.124 27.495L79.642 15.7999L67.3434 13.3597C67.3314 13.3576 67.3195 13.3547 67.3078 13.351C67.2134 13.3242 67.1308 13.2662 67.0737 13.1864L68.7531 12.7529L69.2467 12.8508L80.9165 15.1656C80.9778 15.1777 81.0359 15.2029 81.0866 15.2394C81.1373 15.2759 81.1794 15.323 81.2102 15.3773C81.2465 15.4403 81.2669 27.1115 81.2676 27.1869Z" fill="#126456"/>
<path d="M87.4447 3.29533C87.2444 3.24212 87.042 3.19092 86.8416 3.14072V2.2291C86.8433 1.90116 86.719 1.58503 86.4943 1.3456C86.3961 1.23905 86.2794 1.15097 86.15 1.08556C86.121 1.07004 86.091 1.05629 86.0604 1.0444C85.9415 0.995103 85.8153 0.965919 85.6868 0.958051C85.5496 0.94848 85.4118 0.962058 85.2791 0.998212C85.1996 1.01985 85.1224 1.0491 85.0485 1.08556C84.9427 1.13955 84.8451 1.20816 84.7586 1.28937C84.7394 1.30744 84.7213 1.32551 84.7022 1.34559C84.4875 1.57425 84.368 1.87572 84.3679 2.18894V2.5835C78.1372 1.33656 71.7201 1.33656 65.4893 2.5835V2.2291C65.491 1.90116 65.3667 1.58502 65.142 1.34559C65.0441 1.23907 64.9278 1.15099 64.7987 1.08556C64.7692 1.07022 64.739 1.05648 64.7081 1.04439C64.5892 0.995097 64.463 0.965914 64.3345 0.958047C64.1973 0.948526 64.0595 0.962101 63.9268 0.998205C63.8476 1.01985 63.7707 1.0491 63.6972 1.08555C63.591 1.13928 63.493 1.20791 63.4063 1.28936C63.3871 1.30743 63.369 1.32551 63.3509 1.34558C63.136 1.57414 63.0161 1.87559 63.0156 2.18893V3.14071C62.8153 3.19091 62.6139 3.24211 62.4136 3.29532L62.3652 3.30837V3.35757C62.3647 3.76776 62.4551 4.173 62.63 4.54428L62.7629 4.78925C63.0111 5.20361 63.3628 5.54669 63.7836 5.78496C64.2045 6.02323 64.6802 6.14854 65.1642 6.14865H66.0109V15.2799C66.009 15.4277 66.0619 15.5711 66.1594 15.6824C66.2569 15.7938 66.3923 15.8653 66.5394 15.8833C66.6209 15.8915 66.7031 15.8825 66.7809 15.8569C66.8586 15.8313 66.93 15.7897 66.9905 15.7347C67.0507 15.6797 67.0988 15.6129 67.1318 15.5384C67.1647 15.4639 67.1817 15.3834 67.1818 15.302V6.21693C67.4403 6.287 67.6811 6.41068 67.8884 6.57988C68.0957 6.74907 68.2649 6.95998 68.3849 7.19882C68.4604 7.34885 68.5469 7.49314 68.6437 7.63054C68.9456 8.05658 69.3459 8.40389 69.8108 8.64312C70.2757 8.88235 70.7916 9.00647 71.3147 9.00499H78.5436C79.094 9.00564 79.636 8.87043 80.1212 8.61143C80.5998 8.3587 81.0038 7.9856 81.2931 7.52914C81.3535 7.43331 81.4083 7.33409 81.4573 7.23196C81.5743 6.98474 81.7439 6.76589 81.9542 6.59061C82.1646 6.41532 82.4107 6.28781 82.6755 6.21693V15.2799C82.6736 15.4277 82.7265 15.5711 82.824 15.6824C82.9216 15.7938 83.0569 15.8653 83.2041 15.8833C83.2235 15.8853 83.243 15.8863 83.2625 15.8863C83.408 15.8864 83.5484 15.8324 83.6561 15.7347C83.7162 15.6796 83.7642 15.6127 83.7971 15.5383C83.83 15.4638 83.8471 15.3834 83.8474 15.302V6.14866H84.6931C85.1771 6.14867 85.6528 6.02342 86.0737 5.78513C86.4946 5.54685 86.8463 5.20371 87.0944 4.78926C87.1428 4.70991 87.1872 4.62814 87.2273 4.54429C87.4025 4.17308 87.4932 3.76785 87.4931 3.35758V3.30838L87.4447 3.29533Z" fill="#126456"/>
<path d="M74.6687 10.2387C76.3944 10.2387 77.7934 8.84369 77.7934 7.12279C77.7934 5.4019 76.3944 4.00684 74.6687 4.00684C72.9429 4.00684 71.5439 5.4019 71.5439 7.12279C71.5439 8.84369 72.9429 10.2387 74.6687 10.2387Z" fill="#3F3D56"/>
<path d="M74.6685 8.78463C75.5889 8.78463 76.335 8.04059 76.335 7.12278C76.335 6.20497 75.5889 5.46094 74.6685 5.46094C73.7481 5.46094 73.002 6.20497 73.002 7.12278C73.002 8.04059 73.7481 8.78463 74.6685 8.78463Z" fill="#126456"/>
<path d="M90.1623 0.435547H86.0605V1.08513H90.8751C90.8586 0.907818 90.7765 0.743003 90.6446 0.622882C90.5128 0.502761 90.3408 0.435965 90.1623 0.435547Z" fill="#126456"/>
<path d="M81.1784 0.435547C80.9998 0.436097 80.8278 0.502912 80.6958 0.622984C80.5639 0.743055 80.4814 0.907791 80.4646 1.08513H85.2791V0.435547H81.1784Z" fill="#126456"/>
<path d="M86.6947 1.08483C86.6481 0.831442 86.5151 0.601924 86.3181 0.435253C86.1698 0.310173 85.991 0.226306 85.7998 0.192108C85.6086 0.15791 85.4118 0.174592 85.2291 0.240471C85.0464 0.306349 84.8844 0.419094 84.7594 0.567337C84.6343 0.71558 84.5507 0.894078 84.5169 1.08483C84.5044 1.14901 84.498 1.21422 84.4978 1.2796V1.34486H86.7118V1.2796C86.7112 1.21433 86.7055 1.14921 86.6947 1.08483Z" fill="#3F3D56"/>
<path d="M68.81 0.435547H64.7083V1.08513H69.5228C69.5063 0.907819 69.4242 0.743005 69.2923 0.622884C69.1605 0.502763 68.9885 0.435967 68.81 0.435547Z" fill="#126456"/>
<path d="M59.8261 0.435547C59.6475 0.436099 59.4755 0.502914 59.3435 0.622985C59.2116 0.743056 59.1292 0.907791 59.1123 1.08513H63.9268V0.435547H59.8261Z" fill="#126456"/>
<path d="M65.3423 1.08535C65.2971 0.830189 65.1631 0.599076 64.964 0.432571C64.7649 0.266065 64.5133 0.174805 64.2535 0.174805C63.9936 0.174805 63.7421 0.266065 63.5429 0.432571C63.3438 0.599076 63.2099 0.830189 63.1646 1.08535C63.1524 1.14956 63.1463 1.21478 63.1465 1.28013V1.34539H65.3594V1.28013C65.3589 1.21486 65.3531 1.14973 65.3423 1.08535Z" fill="#3F3D56"/>
<path d="M62.6306 4.54364C70.7964 3.50499 79.0615 3.50499 87.2273 4.54364C87.1872 4.62759 87.1428 4.70949 87.0945 4.78902C83.0862 4.28264 79.05 4.02724 75.0097 4.02431H75.0071C74.7766 4.02431 74.5449 4.02431 74.3144 4.02691H74.3105C70.4497 4.05042 66.5937 4.30491 62.7634 4.78902L62.6306 4.54364Z" fill="#3F3D56"/>
<path d="M70.4168 24.2144C70.4023 24.2144 70.3879 24.2128 70.3737 24.2096L66.3376 23.3008C66.3126 23.2951 66.289 23.2847 66.268 23.2699C66.247 23.2552 66.2292 23.2364 66.2155 23.2148C66.2018 23.1932 66.1925 23.1691 66.1881 23.1439C66.1838 23.1187 66.1844 23.0929 66.1901 23.0679C66.1957 23.043 66.2063 23.0194 66.221 22.9985C66.2358 22.9776 66.2546 22.9598 66.2763 22.9461C66.298 22.9325 66.3221 22.9232 66.3474 22.9189C66.3727 22.9145 66.3986 22.9152 66.4236 22.9208L70.4597 23.8296C70.5065 23.8402 70.5478 23.8676 70.5757 23.9066C70.6036 23.9456 70.6161 23.9935 70.6108 24.0411C70.6055 24.0887 70.5828 24.1327 70.547 24.1647C70.5112 24.1967 70.4649 24.2144 70.4168 24.2144Z" fill="#126456"/>
<path d="M69.3753 21.7476C69.3608 21.7476 69.3464 21.746 69.3322 21.7428L65.2961 20.834C65.2456 20.8226 65.2017 20.7917 65.174 20.748C65.1463 20.7044 65.1372 20.6515 65.1486 20.6011C65.16 20.5507 65.191 20.5069 65.2348 20.4793C65.2786 20.4517 65.3316 20.4426 65.3821 20.454L69.4182 21.3628C69.465 21.3734 69.5063 21.4008 69.5342 21.4398C69.5621 21.4788 69.5746 21.5267 69.5693 21.5743C69.564 21.6219 69.5412 21.6659 69.5055 21.6979C69.4697 21.7299 69.4234 21.7476 69.3753 21.7476Z" fill="#126456"/>
</g>
<defs>
<clipPath id="clip0_1775_19373">
<rect width="90" height="64" fill="white" transform="translate(0.875)"/>
</clipPath>
</defs>
</svg>
